Lato-ThinItalic.ufo
<glyph name="exclam" format="2">
  <advance width="458.5"/>
  <unicode hex="0021"/>
  <guideline x="287.8"/>
  <guideline x="100.0" y="0.0" angle="82.9991"/>
  <outline>
    <contour>
      <point x="297.9" y="1406.0" type="line"/>
      <point x="227.9" y="833.8" type="line" smooth="yes"/>
      <point x="213.7" y="715.4"/>
      <point x="206.5" y="634.8"/>
      <point x="192.9" y="480.2" type="curve"/>
      <point x="227.5" y="480.2" type="line"/>
      <point x="252.9" y="634.8"/>
      <point x="265.1" y="715.4"/>
      <point x="280.9" y="833.8" type="curve"/>
      <point x="350.9" y="1406.0" type="line"/>
    </contour>
    <contour>
      <point x="96.1" y="59.4" type="curve" smooth="yes"/>
      <point x="96.1" y="17.0"/>
      <point x="128.9" y="-15.8"/>
      <point x="171.3" y="-15.8" type="curve" smooth="yes"/>
      <point x="213.5" y="-15.8"/>
      <point x="248.3" y="17.0"/>
      <point x="248.3" y="59.4" type="curve" smooth="yes"/>
      <point x="248.3" y="101.6"/>
      <point x="213.5" y="136.4"/>
      <point x="171.3" y="136.4" type="curve" smooth="yes"/>
      <point x="128.9" y="136.4"/>
      <point x="96.1" y="101.6"/>
    </contour>
  </outline>
</glyph>
<glyph name="numbersign" format="2">
  <advance width="1160.0"/>
  <unicode hex="0023"/>
  <guideline x="580.0" y="0.0" angle="82.9991"/>
  <outline>
    <contour>
      <point x="306.4" y="479.0" type="line"/>
      <point x="304.0" y="464.8" type="line"/>
      <point x="145.6" y="0.0" type="line"/>
      <point x="168.0" y="0.0" type="line" smooth="yes"/>
      <point x="181.4" y="0.0"/>
      <point x="193.0" y="6.6"/>
      <point x="198.8" y="25.200000000000003" type="curve" smooth="yes"/>
      <point x="348.2" y="464.8" type="line"/>
      <point x="350.6" y="479.0" type="line"/>
      <point x="503.8" y="927.8" type="line"/>
      <point x="504.4" y="940.4" type="line"/>
      <point x="664.2" y="1405.8" type="line"/>
      <point x="643.2" y="1405.8" type="line" smooth="yes"/>
      <point x="628.0" y="1405.8"/>
      <point x="617.0" y="1398.4"/>
      <point x="611.4" y="1381.4" type="curve" smooth="yes"/>
      <point x="460.2" y="940.4" type="line"/>
      <point x="459.4" y="927.8" type="line"/>
    </contour>
    <contour>
      <point x="675.8" y="479.0" type="line"/>
      <point x="673.4" y="464.8" type="line"/>
      <point x="524.2" y="26.8" type="line"/>
      <point x="516.6" y="7.6000000000000005"/>
      <point x="525.6" y="0.0"/>
      <point x="540.0" y="0.0" type="curve" smooth="yes"/>
      <point x="559.4" y="0.0" type="line"/>
      <point x="717.6" y="464.8" type="line"/>
      <point x="720.0" y="479.0" type="line"/>
      <point x="873.0" y="927.8" type="line"/>
      <point x="873.8" y="940.4" type="line"/>
      <point x="1025.0" y="1377.6" type="line"/>
      <point x="1032.2" y="1396.0"/>
      <point x="1024.8" y="1405.8"/>
      <point x="1011.6" y="1405.8" type="curve"/>
      <point x="989.2" y="1405.8" type="line"/>
      <point x="829.4" y="940.4" type="line"/>
      <point x="828.8" y="927.8" type="line"/>
    </contour>
    <contour>
      <point x="987.4" y="453.4" type="line"/>
      <point x="992.0" y="468.4" type="line"/>
      <point x="994.4" y="484.6"/>
      <point x="986.6" y="491.4"/>
      <point x="973.4" y="491.4" type="curve" smooth="yes"/>
      <point x="84.0" y="491.4" type="line"/>
      <point x="81.2" y="476.4" type="line"/>
      <point x="77.0" y="460.4"/>
      <point x="84.8" y="453.4"/>
      <point x="98.0" y="453.4" type="curve" smooth="yes"/>
    </contour>
    <contour>
      <point x="189.8" y="914.6" type="line"/>
      <point x="1077.0" y="914.6" type="line" smooth="yes"/>
      <point x="1092.6" y="914.6"/>
      <point x="1102.0" y="921.0"/>
      <point x="1103.8" y="934.4" type="curve"/>
      <point x="1109.6" y="952.4" type="line"/>
      <point x="222.4" y="952.4" type="line"/>
      <point x="206.6" y="952.4"/>
      <point x="195.6" y="946.0"/>
      <point x="193.6" y="932.6" type="curve" smooth="yes"/>
    </contour>
  </outline>
</glyph>
<glyph name="dollar" format="2">
  <advance width="1160.0"/>
  <unicode hex="0024"/>
  <guideline x="580.0" y="0.0" angle="82.9991"/>
  <outline>
    <contour>
      <point x="1033.3" y="1280.0" type="line"/>
      <point x="953.1" y="1375.4"/>
      <point x="855.1" y="1421.6"/>
      <point x="710.5" y="1421.6" type="curve" smooth="yes"/>
      <point x="439.3" y="1421.6"/>
      <point x="273.3" y="1236.0"/>
      <point x="273.3" y="1030.8" type="curve" smooth="yes"/>
      <point x="273.3" y="628.8"/>
      <point x="922.9" y="793.6"/>
      <point x="922.9" y="428.8" type="curve" smooth="yes"/>
      <point x="922.9" y="212.2"/>
      <point x="753.3" y="27.0"/>
      <point x="482.7" y="27.0" type="curve" smooth="yes"/>
      <point x="225.5" y="27.0"/>
      <point x="161.7" y="194.0"/>
      <point x="132.1" y="194.0" type="curve" smooth="yes"/>
      <point x="123.7" y="194.0"/>
      <point x="118.9" y="190.6"/>
      <point x="111.7" y="184.6" type="curve"/>
      <point x="97.1" y="167.0" type="line"/>
      <point x="181.5" y="53.0"/>
      <point x="289.5" y="-16.0"/>
      <point x="477.7" y="-16.0" type="curve" smooth="yes"/>
      <point x="781.5" y="-16.0"/>
      <point x="973.7" y="193.6"/>
      <point x="973.7" y="439.8" type="curve" smooth="yes"/>
      <point x="973.7" y="832.2"/>
      <point x="321.9" y="679.6"/>
      <point x="321.9" y="1041.2" type="curve" smooth="yes"/>
      <point x="321.9" y="1218.0"/>
      <point x="462.3" y="1378.4"/>
      <point x="708.5" y="1378.4" type="curve" smooth="yes"/>
      <point x="923.1" y="1378.4"/>
      <point x="975.3" y="1253.2"/>
      <point x="1004.1" y="1253.2" type="curve" smooth="yes"/>
      <point x="1010.9" y="1253.2"/>
      <point x="1016.7" y="1256.4"/>
      <point x="1021.1" y="1263.4" type="curve"/>
    </contour>
    <contour>
      <point x="421.5" y="-267.6" type="line"/>
      <point x="441.5" y="-267.6" type="line" smooth="yes"/>
      <point x="453.1" y="-267.6"/>
      <point x="462.3" y="-258.6"/>
      <point x="462.9" y="-246.0" type="curve"/>
      <point x="768.5" y="1621.6" type="line"/>
      <point x="748.5" y="1621.6" type="line" smooth="yes"/>
      <point x="736.9" y="1621.6"/>
      <point x="729.5" y="1612.6"/>
      <point x="727.1" y="1599.8" type="curve"/>
    </contour>
  </outline>
</glyph>
<glyph name="percent" format="2">
  <advance width="1423.6"/>
  <unicode hex="0025"/>
  <guideline x="697.5" y="0.0" angle="82.9991"/>
  <outline>
    <contour>
      <point x="694.3" y="1132.6" type="curve" smooth="yes"/>
      <point x="694.3" y="1324.2"/>
      <point x="596.7" y="1421.6"/>
      <point x="467.9" y="1421.6" type="curve" smooth="yes"/>
      <point x="301.3" y="1421.6"/>
      <point x="155.3" y="1284.0"/>
      <point x="155.3" y="1003.8" type="curve" smooth="yes"/>
      <point x="155.3" y="814.4"/>
      <point x="251.1" y="717.0"/>
      <point x="381.5" y="717.0" type="curve" smooth="yes"/>
      <point x="542.3" y="717.0"/>
      <point x="694.3" y="852.4"/>
    </contour>
    <contour>
      <point x="651.5" y="1132.4" type="curve" smooth="yes"/>
      <point x="651.5" y="867.6"/>
      <point x="524.1" y="752.8"/>
      <point x="385.7" y="752.8" type="curve" smooth="yes"/>
      <point x="278.5" y="752.8"/>
      <point x="196.3" y="831.2"/>
      <point x="196.3" y="1003.8" type="curve" smooth="yes"/>
      <point x="196.3" y="1268.6"/>
      <point x="323.3" y="1386.0"/>
      <point x="463.7" y="1386.0" type="curve" smooth="yes"/>
      <point x="569.1" y="1386.0"/>
      <point x="651.5" y="1305.4"/>
    </contour>
    <contour>
      <point x="145.3" y="0.0" type="line"/>
      <point x="180.1" y="0.0" type="line" smooth="yes"/>
      <point x="189.7" y="0.0"/>
      <point x="198.1" y="3.8"/>
      <point x="203.9" y="11.6" type="curve"/>
      <point x="1296.7" y="1405.8" type="line"/>
      <point x="1262.3" y="1405.8" type="line"/>
      <point x="1250.1" y="1405.8"/>
      <point x="1243.7" y="1401.6"/>
      <point x="1236.1" y="1394.0" type="curve"/>
    </contour>
    <contour>
      <point x="1295.3" y="399.4" type="curve" smooth="yes"/>
      <point x="1295.3" y="591.0"/>
      <point x="1197.7" y="688.4"/>
      <point x="1068.9" y="688.4" type="curve" smooth="yes"/>
      <point x="902.3" y="688.4"/>
      <point x="756.3" y="550.8"/>
      <point x="756.3" y="270.4" type="curve" smooth="yes"/>
      <point x="756.3" y="81.2"/>
      <point x="852.1" y="-16.2"/>
      <point x="982.5" y="-16.2" type="curve" smooth="yes"/>
      <point x="1143.3" y="-16.2"/>
      <point x="1295.3" y="119.0"/>
    </contour>
    <contour>
      <point x="1252.5" y="399.2" type="curve" smooth="yes"/>
      <point x="1252.5" y="134.4"/>
      <point x="1125.1" y="19.400000000000002"/>
      <point x="986.7" y="19.400000000000002" type="curve" smooth="yes"/>
      <point x="879.5" y="19.400000000000002"/>
      <point x="797.3" y="98.0"/>
      <point x="797.3" y="270.4" type="curve" smooth="yes"/>
      <point x="797.3" y="535.2"/>
      <point x="924.3" y="652.6"/>
      <point x="1064.7" y="652.6" type="curve" smooth="yes"/>
      <point x="1170.1" y="652.6"/>
      <point x="1252.5" y="572.2"/>
    </contour>
  </outline>
</glyph>
<glyph name="ampersand" format="2">
  <advance width="1273"/>
  <unicode hex="0026"/>
  <outline>
    <contour>
      <point x="490.1" y="789.8" type="line"/>
      <point x="268.5" y="721.6"/>
      <point x="79.5" y="538.2"/>
      <point x="79.5" y="306.4" type="curve" smooth="yes"/>
      <point x="79.5" y="101.6"/>
      <point x="234.5" y="-16" name="n05"/>
      <point x="405.5" y="-16" type="curve" smooth="yes"/>
      <point x="781.7" y="-16"/>
      <point x="1055.9" y="380.6"/>
      <point x="1094.5" y="642.6" type="curve"/>
      <point x="1064.3" y="642.6" type="line" smooth="yes"/>
      <point x="1052.3" y="642.6"/>
      <point x="1047" y="636.4"/>
      <point x="1044.5" y="625.5" type="curve"/>
      <point x="998.4" y="386.7"/>
      <point x="752.1" y="26"/>
      <point x="415.5" y="26" type="curve" smooth="yes" name="n16"/>
      <point x="282.3" y="26"/>
      <point x="131.9" y="121.6"/>
      <point x="131.9" y="312.2" type="curve" smooth="yes"/>
      <point x="131.9" y="520.2"/>
      <point x="296.7" y="694.2"/>
      <point x="516.9" y="763.6" type="curve"/>
    </contour>
    <contour>
      <point x="708.1" y="1421.8" type="curve" smooth="yes" name="n23"/>
      <point x="502.1" y="1421.8"/>
      <point x="353.7" y="1272"/>
      <point x="353.7" y="1063.4" type="curve" smooth="yes"/>
      <point x="353.7" y="949"/>
      <point x="403.5" y="850"/>
      <point x="499.9" y="732.8" type="curve" smooth="yes"/>
      <point x="1087.3" y="17.6" type="line"/>
      <point x="1101.1" y="2.4"/>
      <point x="1109.9" y="0"/>
      <point x="1130.3" y="0" type="curve" smooth="yes" name="n33"/>
      <point x="1170.7" y="0" type="line"/>
      <point x="536.9" y="765.4" type="line" smooth="yes"/>
      <point x="451.5" y="869.2"/>
      <point x="403.1" y="972"/>
      <point x="403.1" y="1072.4" type="curve" smooth="yes"/>
      <point x="403.1" y="1250.7"/>
      <point x="527.1" y="1380.8"/>
      <point x="705.3" y="1380.8" type="curve" smooth="yes" name="n41"/>
      <point x="865.7" y="1380.8"/>
      <point x="925.7" y="1246.2"/>
      <point x="927.9" y="1165.6" type="curve"/>
      <point x="929.3" y="1150.4"/>
      <point x="936.9" y="1145.8"/>
      <point x="947.3" y="1146.8" type="curve"/>
      <point x="973.4" y="1150.4" type="line"/>
      <point x="973.8" y="1315.4"/>
      <point x="860.1" y="1421.8"/>
    </contour>
  </outline>
  <guideline angle="82.9991" x="627" y="0"/>
</glyph>
<glyph name="quotesingle" format="2">
  <advance width="359.6"/>
  <unicode hex="0027"/>
  <guideline x="200.0"/>
  <guideline x="100.0" y="0.0" angle="82.9991"/>
  <outline>
    <contour>
      <point x="257.5" y="1405.8" type="line"/>
      <point x="219.7" y="1112.6" type="line"/>
      <point x="206.1" y="960.0" type="line"/>
      <point x="206.7" y="949.2"/>
      <point x="210.9" y="941.6"/>
      <point x="222.1" y="941.6" type="curve"/>
      <point x="234.3" y="941.6"/>
      <point x="239.1" y="949.2"/>
      <point x="241.1" y="960.0" type="curve"/>
      <point x="263.7" y="1112.6" type="line"/>
      <point x="299.7" y="1405.8" type="line"/>
    </contour>
  </outline>
</glyph>
<glyph name="parenleft" format="2">
  <advance width="486.8"/>
  <unicode hex="0028"/>
  <guideline x="276.0" y="0.0" angle="82.9991"/>
  <outline>
    <contour>
      <point x="164.4" y="454.8" type="curve"/>
      <point x="164.4" y="881.6"/>
      <point x="281.2" y="1147.4"/>
      <point x="514.6" y="1472.6" type="curve" smooth="yes"/>
      <point x="524.2" y="1486.4"/>
      <point x="520.0" y="1494.8"/>
      <point x="515.2" y="1498.8" type="curve"/>
      <point x="493.8" y="1512.2" type="line"/>
      <point x="156.0" y="1046.0"/>
      <point x="116.8" y="773.8"/>
      <point x="116.8" y="445.4" type="curve"/>
      <point x="116.8" y="234.8"/>
      <point x="162.8" y="-11.200000000000001"/>
      <point x="277.8" y="-249.4" type="curve"/>
      <point x="301.0" y="-236.0" type="line"/>
      <point x="308.2" y="-232.0"/>
      <point x="314.8" y="-223.6"/>
      <point x="307.0" y="-209.8" type="curve"/>
      <point x="212.0" y="-10.4"/>
      <point x="164.4" y="237.6"/>
    </contour>
  </outline>
</glyph>
<glyph name="parenright" format="2">
  <advance width="486.7"/>
  <unicode hex="0029"/>
  <guideline x="276.0" y="0.0" angle="82.9991"/>
  <outline>
    <contour>
      <point x="332.4" y="808.0" type="curve"/>
      <point x="332.4" y="422.6"/>
      <point x="215.6" y="115.4"/>
      <point x="-17.8" y="-209.8" type="curve" smooth="yes"/>
      <point x="-27.4" y="-223.6"/>
      <point x="-25.0" y="-232.0"/>
      <point x="-18.4" y="-236.0" type="curve"/>
      <point x="2.8000000000000007" y="-249.4" type="line"/>
      <point x="340.8" y="216.8"/>
      <point x="378.2" y="489.0"/>
      <point x="378.2" y="817.4" type="curve" smooth="yes"/>
      <point x="378.2" y="1028.2"/>
      <point x="332.2" y="1274.0"/>
      <point x="219.0" y="1512.2" type="curve"/>
      <point x="194.0" y="1498.8" type="line" smooth="yes"/>
      <point x="186.8" y="1494.8"/>
      <point x="182.0" y="1486.4"/>
      <point x="188.0" y="1472.6" type="curve" smooth="yes"/>
      <point x="282.8" y="1273.2"/>
      <point x="332.4" y="1025.2"/>
    </contour>
  </outline>
</glyph>
<glyph name="asterisk" format="2">
  <advance width="785.9"/>
  <unicode hex="002A"/>
  <guideline x="368.0" y="0.0" angle="82.9991"/>
  <outline>
    <contour>
      <point x="217.2" y="1040.0" type="line"/>
      <point x="411.4" y="1154.8" type="line" smooth="yes"/>
      <point x="428.6" y="1164.6"/>
      <point x="436.0" y="1169.4"/>
      <point x="455.8" y="1189.8" type="curve"/>
      <point x="451.6" y="1200.6" type="line"/>
      <point x="425.8" y="1194.2"/>
      <point x="415.8" y="1192.8"/>
      <point x="398.8" y="1183.0" type="curve" smooth="yes"/>
      <point x="204.6" y="1068.2" type="line"/>
    </contour>
    <contour>
      <point x="442.2" y="914.8" type="line"/>
      <point x="469.6" y="1137.4" type="line" smooth="yes"/>
      <point x="472.0" y="1156.8"/>
      <point x="469.6" y="1165.0"/>
      <point x="467.0" y="1191.6" type="curve"/>
      <point x="455.8" y="1191.6" type="line"/>
      <point x="443.4" y="1167.0"/>
      <point x="440.0" y="1156.8"/>
      <point x="437.6" y="1137.2" type="curve" smooth="yes"/>
      <point x="410.2" y="914.8" type="line"/>
    </contour>
    <contour>
      <point x="687.8" y="1068.0" type="line"/>
      <point x="519.2" y="1183.0" type="line" smooth="yes"/>
      <point x="504.6" y="1193.0"/>
      <point x="496.4" y="1194.2"/>
      <point x="472.6" y="1200.6" type="curve"/>
      <point x="465.2" y="1189.8" type="line"/>
      <point x="480.2" y="1167.6"/>
      <point x="485.4" y="1164.6"/>
      <point x="501.8" y="1154.8" type="curve"/>
      <point x="668.8" y="1040.0" type="line"/>
    </contour>
    <contour>
      <point x="480.2" y="1486.2" type="line"/>
      <point x="452.8" y="1263.6" type="line" smooth="yes"/>
      <point x="450.4" y="1244.4"/>
      <point x="452.8" y="1234.4"/>
      <point x="457.0" y="1207.8" type="curve"/>
      <point x="468.4" y="1207.8" type="line"/>
      <point x="479.0" y="1234.2"/>
      <point x="482.4" y="1244.4"/>
      <point x="484.8" y="1263.8" type="curve" smooth="yes"/>
      <point x="512.2" y="1486.2" type="line"/>
    </contour>
    <contour>
      <point x="236.2" y="1333.0" type="line"/>
      <point x="403.2" y="1218.0" type="line" smooth="yes"/>
      <point x="417.8" y="1208.2"/>
      <point x="425.8" y="1206.8"/>
      <point x="451.6" y="1198.8" type="curve"/>
      <point x="457.0" y="1209.6" type="line"/>
      <point x="440.4" y="1229.8"/>
      <point x="437.0" y="1236.6"/>
      <point x="422.4" y="1246.2" type="curve" smooth="yes"/>
      <point x="255.4" y="1361.2" type="line"/>
    </contour>
    <contour>
      <point x="707.0" y="1361.0" type="line"/>
      <point x="512.8" y="1246.2" type="line" smooth="yes"/>
      <point x="495.6" y="1236.6"/>
      <point x="486.4" y="1229.8"/>
      <point x="468.4" y="1209.6" type="curve"/>
      <point x="472.6" y="1198.8" type="line"/>
      <point x="496.4" y="1203.2"/>
      <point x="506.4" y="1208.4"/>
      <point x="523.6" y="1218.0" type="curve" smooth="yes"/>
      <point x="717.8" y="1332.8" type="line"/>
    </contour>
    <contour>
      <point x="447.6" y="1205.8" type="line"/>
      <point x="447.4" y="1192.2" type="line"/>
      <point x="457.4" y="1183.6" type="line"/>
      <point x="473.6" y="1192.0" type="line"/>
      <point x="476.6" y="1208.6" type="line"/>
      <point x="463.0" y="1212.0" type="line"/>
    </contour>
  </outline>
</glyph>
<glyph name="plus" format="2">
  <advance width="1160.0"/>
  <unicode hex="002B"/>
  <guideline x="580.0" y="0.0" angle="82.9991"/>
  <outline>
    <contour>
      <point x="123.1" y="650.0" type="line"/>
      <point x="1051.7" y="650.0" type="line"/>
      <point x="1056.3" y="690.4" type="line"/>
      <point x="127.7" y="690.4" type="line"/>
    </contour>
    <contour>
      <point x="626.9" y="1152.8" type="line"/>
      <point x="508.1" y="185.6" type="line"/>
      <point x="550.5" y="185.6" type="line"/>
      <point x="669.1" y="1152.8" type="line"/>
    </contour>
  </outline>
</glyph>
<glyph name="comma" format="2">
  <advance width="411.6"/>
  <unicode hex="002C"/>
  <guideline x="190.1" y="0.0" angle="82.9991"/>
  <outline>
    <contour>
      <point x="66.7" y="65.0" type="curve" smooth="yes"/>
      <point x="66.7" y="22.6"/>
      <point x="95.1" y="-6.6"/>
      <point x="133.9" y="-6.6" type="curve" smooth="yes"/>
      <point x="158.9" y="-6.6"/>
      <point x="174.1" y="1.4000000000000001"/>
      <point x="186.7" y="16.8" type="curve"/>
      <point x="174.3" y="19.8" type="line"/>
      <point x="174.3" y="-111.0"/>
      <point x="66.7" y="-207.8"/>
      <point x="66.7" y="-223.8" type="curve"/>
      <point x="66.7" y="-227.4"/>
      <point x="67.3" y="-232.2"/>
      <point x="70.7" y="-235.4" type="curve" smooth="yes"/>
      <point x="79.7" y="-244.0" type="line"/>
      <point x="157.3" y="-166.8"/>
      <point x="210.9" y="-58.6"/>
      <point x="210.9" y="46.6" type="curve" smooth="yes"/>
      <point x="210.9" y="102.0"/>
      <point x="181.9" y="136.4"/>
      <point x="137.5" y="136.4" type="curve"/>
      <point x="95.1" y="136.4"/>
      <point x="66.7" y="102.6"/>
    </contour>
  </outline>
</glyph>
<glyph name="hyphen" format="2">
  <advance width="717"/>
  <unicode hex="002D"/>
  <unicode hex="00AD"/>
  <unicode hex="2010"/>
  <outline>
    <contour>
      <point x="146.2" y="568.4" type="line"/>
      <point x="561.6" y="568.4" type="line" name="n01"/>
      <point x="566.6" y="611.6" type="line" name="n02"/>
      <point x="152.8" y="611.6" type="line"/>
    </contour>
  </outline>
  <guideline angle="82.9991" x="294" y="0"/>
</glyph>
<glyph name="period" format="2">
  <advance width="454"/>
  <unicode hex="002E"/>
  <outline>
    <contour>
      <point x="88.6" y="59.4" type="curve" smooth="yes"/>
      <point x="88.6" y="17"/>
      <point x="121.4" y="-15.8"/>
      <point x="163.8" y="-15.8" type="curve" smooth="yes" name="n03"/>
      <point x="206" y="-15.8"/>
      <point x="240.8" y="17"/>
      <point x="240.8" y="59.4" type="curve" smooth="yes"/>
      <point x="240.8" y="101.6"/>
      <point x="206" y="136.4"/>
      <point x="163.8" y="136.4" type="curve" smooth="yes" name="n09"/>
      <point x="121.4" y="136.4"/>
      <point x="88.6" y="101.6"/>
    </contour>
  </outline>
  <guideline angle="82.9991" x="185" y="0"/>
</glyph>
<glyph name="slash" format="2">
  <advance width="794.5"/>
  <unicode hex="002F"/>
  <guideline x="321.0" y="0.0" angle="82.9991"/>
  <outline>
    <contour>
      <point x="817.8" y="1442.0" type="line"/>
      <point x="796.2" y="1442.0" type="line" smooth="yes"/>
      <point x="780.2" y="1442.0"/>
      <point x="768.8" y="1434.4"/>
      <point x="761.8" y="1420.6" type="curve" smooth="yes"/>
      <point x="-3.0" y="-80.4" type="line"/>
      <point x="17.0" y="-80.4" type="line" smooth="yes"/>
      <point x="30.200000000000003" y="-80.4"/>
      <point x="46.400000000000006" y="-74.6"/>
      <point x="53.6" y="-58.4" type="curve"/>
    </contour>
  </outline>
</glyph>
<glyph name="zero" format="2">
  <advance width="1160"/>
  <unicode hex="0030"/>
  <outline>
    <contour>
      <point x="1065.3" y="856.6" type="curve" smooth="yes"/>
      <point x="1065.3" y="1234.1"/>
      <point x="899.6" y="1421.9"/>
      <point x="680.3" y="1421.9" type="curve" smooth="yes" name="n03"/>
      <point x="387.6" y="1421.9"/>
      <point x="119.8" y="1139.4"/>
      <point x="119.8" y="550.1" type="curve" smooth="yes"/>
      <point x="119.8" y="172.7"/>
      <point x="285.2" y="-14.2"/>
      <point x="504.5" y="-14.2" type="curve" smooth="yes" name="n09"/>
      <point x="797.1" y="-14.2"/>
      <point x="1065.3" y="265.4"/>
    </contour>
    <contour>
      <point x="1011.3" y="859.1" type="curve" smooth="yes"/>
      <point x="1011.3" y="284.2"/>
      <point x="768.6" y="28.8"/>
      <point x="509.3" y="28.8" type="curve" smooth="yes" name="n15"/>
      <point x="319.2" y="28.8"/>
      <point x="172" y="194"/>
      <point x="172" y="548.2" type="curve" smooth="yes"/>
      <point x="172" y="1121.2"/>
      <point x="416.8" y="1378.8"/>
      <point x="675.4" y="1378.8" type="curve" smooth="yes" name="n21"/>
      <point x="865.6" y="1378.8"/>
      <point x="1011.3" y="1211.8"/>
    </contour>
  </outline>
  <guideline angle="82.9991" x="656" y="0"/>
</glyph>
<glyph name="one" format="2">
  <advance width="1160"/>
  <unicode hex="0031"/>
  <outline>
    <contour>
      <point x="727.5" y="1413.1" type="line" name="n00"/>
      <point x="714.5" y="1370"/>
      <point x="702.8" y="1322.9"/>
      <point x="697.3" y="1280.2" type="curve" smooth="yes"/>
      <point x="540.6" y="0" type="line"/>
      <point x="592.1" y="0" type="line"/>
      <point x="765.7" y="1413.1" type="line"/>
    </contour>
    <contour>
      <point x="233.4" y="0" type="line" name="n07"/>
      <point x="887.3" y="0" type="line"/>
      <point x="892.8" y="40.5" type="line"/>
      <point x="238.9" y="40.5" type="line" name="n10"/>
    </contour>
    <contour>
      <point x="315.4" y="1056.4" type="line"/>
      <point x="327.7" y="1036.1" type="line"/>
      <point x="333.8" y="1028"/>
      <point x="345.7" y="1025.1"/>
      <point x="358.1" y="1035" type="curve"/>
      <point x="725.7" y="1356.8" type="line"/>
      <point x="727.5" y="1413.1" type="line"/>
    </contour>
  </outline>
  <guideline angle="82.9991" x="458" y="0"/>
</glyph>
<glyph name="two" format="2">
  <advance width="1160.0"/>
  <unicode hex="0032"/>
  <guideline x="492.0" y="0.0" angle="82.9991"/>
  <outline>
    <contour>
      <point x="692.9" y="1421.9" type="curve" smooth="yes"/>
      <point x="483.7" y="1421.9"/>
      <point x="314.3" y="1281.7"/>
      <point x="257.1" y="1050.9" type="curve"/>
      <point x="282.5" y="1048.1" type="line" smooth="yes"/>
      <point x="296.7" y="1046.7"/>
      <point x="307.1" y="1052.5"/>
      <point x="313.4" y="1070.6" type="curve" smooth="yes"/>
      <point x="364.1" y="1252.3"/>
      <point x="506.4" y="1378.4"/>
      <point x="685.3" y="1378.4" type="curve" smooth="yes"/>
      <point x="831.7" y="1378.4"/>
      <point x="961.6" y="1290.2"/>
      <point x="961.6" y="1097.8" type="curve" smooth="yes"/>
      <point x="961.6" y="875.5"/>
      <point x="814.4" y="730.4"/>
      <point x="627.8" y="547.0" type="curve"/>
      <point x="111.0" y="44.0" type="line"/>
      <point x="104.9" y="38.5"/>
      <point x="96.7" y="28.3"/>
      <point x="96.2" y="19.0" type="curve"/>
      <point x="93.2" y="0.0" type="line"/>
      <point x="914.4" y="0.0" type="line"/>
      <point x="918.4" y="28.900000000000002" type="line" smooth="yes"/>
      <point x="920.0" y="40.3"/>
      <point x="912.9" y="47.900000000000006"/>
      <point x="901.1" y="47.900000000000006" type="curve" smooth="yes"/>
      <point x="281.5" y="47.900000000000006" type="line" smooth="yes"/>
      <point x="223.6" y="47.900000000000006"/>
      <point x="170.0" y="41.1"/>
      <point x="132.9" y="31.700000000000003" type="curve"/>
      <point x="142.0" y="16.2" type="line"/>
      <point x="661.9" y="523.6" type="line" smooth="yes"/>
      <point x="850.8" y="707.5"/>
      <point x="1014.1" y="856.6"/>
      <point x="1014.1" y="1102.3" type="curve" smooth="yes"/>
      <point x="1014.1" y="1319.8"/>
      <point x="863.2" y="1421.9"/>
    </contour>
  </outline>
</glyph>
<glyph name="three" format="2">
  <advance width="1160"/>
  <unicode hex="0033"/>
  <outline>
    <contour>
      <point x="691.8" y="1421.9" type="curve" smooth="yes" name="n00"/>
      <point x="483.5" y="1421.9"/>
      <point x="314.1" y="1281.7"/>
      <point x="256.9" y="1050.9" type="curve"/>
      <point x="281.3" y="1048.1" type="line" smooth="yes"/>
      <point x="296.5" y="1046.7"/>
      <point x="304.2" y="1052.5"/>
      <point x="311.4" y="1070.6" type="curve"/>
      <point x="362.1" y="1252.3"/>
      <point x="505.3" y="1378.4"/>
      <point x="685.1" y="1378.4" type="curve" smooth="yes" name="n10"/>
      <point x="831.5" y="1378.4"/>
      <point x="956.1" y="1294.7"/>
      <point x="956.1" y="1110.4" type="curve" smooth="yes"/>
      <point x="956.1" y="891.4"/>
      <point x="798.3" y="748.7"/>
      <point x="553.5" y="740.6" type="curve"/>
      <point x="549.1" y="704.6" type="line"/>
      <point x="806" y="702.8"/>
      <point x="906.3" y="579.9"/>
      <point x="906.3" y="421.8" type="curve" smooth="yes"/>
      <point x="906.3" y="242.3"/>
      <point x="758.2" y="27.4"/>
      <point x="502" y="27.4" type="curve" smooth="yes" name="n23"/>
      <point x="197.1" y="27.4"/>
      <point x="188.1" y="296.7"/>
      <point x="179.2" y="331.1" type="curve"/>
      <point x="174.6" y="354"/>
      <point x="155.7" y="351.9"/>
      <point x="144.8" y="347.2" type="curve"/>
      <point x="126.3" y="339.8" type="line"/>
      <point x="143.5" y="191.8"/>
      <point x="192.5" y="-16"/>
      <point x="497.5" y="-16" type="curve" smooth="yes" name="n33"/>
      <point x="750.5" y="-16"/>
      <point x="957.7" y="181.1"/>
      <point x="957.7" y="423.7" type="curve" smooth="yes"/>
      <point x="957.7" y="600.5"/>
      <point x="843.8" y="727.6"/>
      <point x="622.6" y="733.5" type="curve"/>
      <point x="621.5" y="719.1" type="line"/>
      <point x="812.7" y="731.6"/>
      <point x="1007.4" y="872.4"/>
      <point x="1007.4" y="1118.1" type="curve" smooth="yes"/>
      <point x="1007.4" y="1324.2"/>
      <point x="863.2" y="1421.9"/>
    </contour>
  </outline>
  <guideline angle="82.9991" x="488" y="0"/>
</glyph>
<glyph name="four" format="2">
  <advance width="1160.0"/>
  <unicode hex="0034"/>
  <guideline x="515.6" y="0.0" angle="82.9991"/>
  <outline>
    <contour>
      <point x="896.5" y="1407.7" type="line"/>
      <point x="854.5" y="1407.7" type="line"/>
      <point x="76.9" y="460.3" type="line"/>
      <point x="79.0" y="437.6" type="line"/>
      <point x="80.2" y="428.5"/>
      <point x="85.1" y="422.2"/>
      <point x="100.4" y="422.2" type="curve" smooth="yes"/>
      <point x="1013.4" y="422.2" type="line" smooth="yes"/>
      <point x="1026.9" y="422.2"/>
      <point x="1033.0" y="428.5"/>
      <point x="1034.3" y="438.8" type="curve" smooth="yes"/>
      <point x="1037.3" y="463.6" type="line"/>
      <point x="96.6" y="463.6" type="line"/>
      <point x="117.8" y="444.1" type="line"/>
      <point x="878.6" y="1375.0" type="line"/>
      <point x="858.8" y="1380.6" type="line"/>
      <point x="846.8" y="1347.9"/>
      <point x="838.6" y="1313.9"/>
      <point x="835.4" y="1284.3" type="curve" smooth="yes"/>
      <point x="678.0" y="0.0" type="line"/>
      <point x="722.9" y="0.0" type="line"/>
    </contour>
  </outline>
</glyph>
<glyph name="five" format="2">
  <advance width="1160.0"/>
  <unicode hex="0035"/>
  <guideline x="465.0" y="0.0" angle="82.9991"/>
  <outline>
    <contour>
      <point x="1019.4" y="1405.9" type="line"/>
      <point x="452.4" y="1405.9" type="line"/>
      <point x="278.9" y="801.8" type="line"/>
      <point x="311.2" y="789.4" type="line"/>
      <point x="407.8" y="816.1"/>
      <point x="492.2" y="828.2"/>
      <point x="563.8" y="828.2" type="curve" smooth="yes"/>
      <point x="785.8" y="828.2"/>
      <point x="885.0" y="693.9"/>
      <point x="885.0" y="511.4" type="curve" smooth="yes"/>
      <point x="885.0" y="205.3"/>
      <point x="679.3" y="30.8"/>
      <point x="445.6" y="30.8" type="curve" smooth="yes"/>
      <point x="270.4" y="30.8"/>
      <point x="188.3" y="125.8"/>
      <point x="164.5" y="125.8" type="curve" smooth="yes"/>
      <point x="156.2" y="125.8"/>
      <point x="149.8" y="122.7"/>
      <point x="144.8" y="116.4" type="curve"/>
      <point x="127.7" y="96.3" type="line"/>
      <point x="190.2" y="39.5"/>
      <point x="300.6" y="-16.0"/>
      <point x="438.0" y="-16.0" type="curve" smooth="yes"/>
      <point x="696.2" y="-16.0"/>
      <point x="938.6" y="180.4"/>
      <point x="938.6" y="513.5" type="curve" smooth="yes"/>
      <point x="938.6" y="721.2"/>
      <point x="817.7" y="870.9"/>
      <point x="576.1" y="870.9" type="curve" smooth="yes"/>
      <point x="501.7" y="870.9"/>
      <point x="415.4" y="858.7"/>
      <point x="317.1" y="831.1" type="curve"/>
      <point x="323.1" y="798.2" type="line"/>
      <point x="497.6" y="1399.6" type="line"/>
      <point x="453.0" y="1358.7" type="line"/>
      <point x="983.2" y="1358.7" type="line" smooth="yes"/>
      <point x="1003.1" y="1358.7"/>
      <point x="1015.0" y="1370.1"/>
      <point x="1016.0" y="1384.0" type="curve"/>
    </contour>
  </outline>
</glyph>
<glyph name="six" format="2">
  <advance width="1067.0"/>
  <unicode hex="0036"/>
  <outline>
    <contour>
      <point x="205.0" y="363.3" type="curve"/>
      <point x="205.0" y="570.5"/>
      <point x="371.6" y="788.1"/>
      <point x="624.7" y="788.1" type="curve" smooth="yes"/>
      <point x="807.6" y="788.1"/>
      <point x="925.1" y="661.8"/>
      <point x="925.1" y="465.1" type="curve" smooth="yes"/>
      <point x="925.1" y="213.6"/>
      <point x="757.7" y="26.700000000000003"/>
      <point x="505.2" y="26.700000000000003" type="curve" smooth="yes"/>
      <point x="316.4" y="26.700000000000003"/>
      <point x="205.0" y="170.2"/>
    </contour>
    <contour>
      <point x="206.8" y="435.1" type="line"/>
      <point x="226.9" y="572.6"/>
      <point x="295.8" y="679.5"/>
      <point x="430.1" y="846.7" type="curve"/>
      <point x="884.8" y="1405.9" type="line"/>
      <point x="840.2" y="1405.9" type="line" smooth="yes"/>
      <point x="829.5" y="1405.9"/>
      <point x="818.6" y="1402.6"/>
      <point x="811.7" y="1393.3" type="curve"/>
      <point x="380.4" y="855.9" type="line" smooth="yes"/>
      <point x="221.7" y="657.8"/>
      <point x="155.9" y="517.1"/>
      <point x="155.9" y="366.3" type="curve" smooth="yes"/>
      <point x="155.9" y="126.9"/>
      <point x="291.8" y="-16.0"/>
      <point x="500.9" y="-16.0" type="curve" smooth="yes"/>
      <point x="768.8" y="-16.0"/>
      <point x="976.1" y="183.5"/>
      <point x="976.1" y="469.9" type="curve" smooth="yes"/>
      <point x="976.1" y="679.7"/>
      <point x="847.3" y="828.7"/>
      <point x="639.0" y="828.7" type="curve" smooth="yes"/>
      <point x="427.2" y="828.7"/>
      <point x="224.6" y="664.8"/>
      <point x="196.0" y="429.7" type="curve"/>
    </contour>
  </outline>
</glyph>
<glyph name="seven" format="2">
  <advance width="1160.0"/>
  <unicode hex="0037"/>
  <guideline x="477.1" y="0.0" angle="82.9991"/>
  <outline>
    <contour>
      <point x="261.0" y="1405.9" type="line"/>
      <point x="257.6" y="1376.3" type="line" smooth="yes"/>
      <point x="256.3" y="1365.6"/>
      <point x="261.9" y="1358.7"/>
      <point x="272.5" y="1358.7" type="curve" smooth="yes"/>
      <point x="1087.3" y="1358.7" type="line"/>
      <point x="1060.7" y="1367.0" type="line"/>
      <point x="1049.7" y="1356.8"/>
      <point x="1040.9" y="1346.0"/>
      <point x="1031.9" y="1331.8" type="curve" smooth="yes"/>
      <point x="244.9" y="0.0" type="line"/>
      <point x="277.5" y="0.0" type="line" smooth="yes"/>
      <point x="294.8" y="0.0"/>
      <point x="307.1" y="8.2"/>
      <point x="315.0" y="21.0" type="curve" smooth="yes"/>
      <point x="1099.2" y="1353.9" type="line"/>
      <point x="1103.8" y="1360.8"/>
      <point x="1108.3" y="1370.7"/>
      <point x="1110.2" y="1382.0" type="curve"/>
      <point x="1112.7" y="1405.9" type="line"/>
    </contour>
  </outline>
</glyph>
<glyph name="eight" format="2">
  <advance width="1160.0"/>
  <unicode hex="0038"/>
  <guideline x="492.8" y="0.0" angle="82.9991"/>
  <outline>
    <contour>
      <point x="504.7" y="-16.0" type="curve"/>
      <point x="768.1" y="-16.0"/>
      <point x="968.1" y="147.2"/>
      <point x="968.1" y="416.1" type="curve" smooth="yes"/>
      <point x="968.1" y="641.0"/>
      <point x="803.6" y="738.1"/>
      <point x="612.5" y="744.4" type="curve"/>
      <point x="609.5" y="720.6" type="line"/>
      <point x="854.3" y="731.6"/>
      <point x="1005.9" y="895.5"/>
      <point x="1005.9" y="1110.9" type="curve" smooth="yes"/>
      <point x="1005.9" y="1282.2"/>
      <point x="889.3" y="1421.9"/>
      <point x="680.5" y="1421.9" type="curve"/>
      <point x="433.6" y="1421.9"/>
      <point x="268.7" y="1243.5"/>
      <point x="268.7" y="1026.1" type="curve" smooth="yes"/>
      <point x="268.7" y="858.5"/>
      <point x="378.5" y="729.6"/>
      <point x="580.5" y="720.6" type="curve"/>
      <point x="582.5" y="744.4" type="line"/>
      <point x="353.0" y="737.0"/>
      <point x="134.7" y="613.7"/>
      <point x="134.7" y="316.5" type="curve" smooth="yes"/>
      <point x="134.7" y="112.6"/>
      <point x="281.1" y="-16.0"/>
    </contour>
    <contour>
      <point x="598.3" y="753.2" type="curve"/>
      <point x="405.7" y="753.2"/>
      <point x="319.3" y="884.9"/>
      <point x="319.3" y="1027.6" type="curve" smooth="yes"/>
      <point x="319.3" y="1227.4"/>
      <point x="458.9" y="1381.1"/>
      <point x="675.9" y="1381.1" type="curve"/>
      <point x="855.4" y="1381.1"/>
      <point x="955.1" y="1263.3"/>
      <point x="955.1" y="1108.2" type="curve" smooth="yes"/>
      <point x="955.1" y="925.0"/>
      <point x="831.9" y="753.2"/>
    </contour>
    <contour>
      <point x="509.3" y="25.5" type="curve"/>
      <point x="314.9" y="25.5"/>
      <point x="187.3" y="143.7"/>
      <point x="187.3" y="322.2" type="curve" smooth="yes"/>
      <point x="187.3" y="632.7"/>
      <point x="434.8" y="711.5"/>
      <point x="593.6" y="711.5" type="curve"/>
      <point x="729.4" y="711.5"/>
      <point x="915.8" y="648.1"/>
      <point x="915.8" y="415.5" type="curve" smooth="yes"/>
      <point x="915.8" y="176.1"/>
      <point x="740.6" y="25.5"/>
    </contour>
  </outline>
</glyph>
<glyph name="nine" format="2">
  <advance width="1160"/>
  <unicode hex="0039"/>
  <outline>
    <contour>
      <point x="965.5" y="1054.4" type="curve" smooth="yes"/>
      <point x="965.5" y="859.3"/>
      <point x="806.4" y="650.2"/>
      <point x="563.8" y="650.2" type="curve" smooth="yes" name="n03"/>
      <point x="387.9" y="650.2"/>
      <point x="275.7" y="770.6"/>
      <point x="275.7" y="958.1" type="curve" smooth="yes"/>
      <point x="275.7" y="1209"/>
      <point x="450.2" y="1379.2"/>
      <point x="677.5" y="1379.2" type="curve" smooth="yes" name="n09"/>
      <point x="850.2" y="1379.2"/>
      <point x="965.5" y="1242.4"/>
    </contour>
    <contour>
      <point x="970.8" y="996.3" type="line"/>
      <point x="946.3" y="839.5"/>
      <point x="871.6" y="747.6"/>
      <point x="754.1" y="591.7" type="curve" smooth="yes"/>
      <point x="304" y="0" type="line" name="n16"/>
      <point x="349.6" y="0" type="line" smooth="yes"/>
      <point x="360.1" y="0"/>
      <point x="369.9" y="3.1"/>
      <point x="377.5" y="12.3" type="curve"/>
      <point x="797.6" y="579" type="line"/>
      <point x="939" y="768.1"/>
      <point x="1014.6" y="874"/>
      <point x="1014.6" y="1049.5" type="curve" smooth="yes"/>
      <point x="1014.6" y="1271"/>
      <point x="882" y="1421.9"/>
      <point x="682.7" y="1421.9" type="curve" smooth="yes" name="n27"/>
      <point x="432" y="1421.9"/>
      <point x="223.8" y="1225"/>
      <point x="223.8" y="955.2" type="curve" smooth="yes"/>
      <point x="223.8" y="753.6"/>
      <point x="349.2" y="609.5"/>
      <point x="548.4" y="609.5" type="curve" smooth="yes" name="n33"/>
      <point x="748.3" y="609.5"/>
      <point x="950.4" y="765.8"/>
      <point x="978.7" y="996.3" type="curve"/>
    </contour>
  </outline>
  <guideline angle="82.9991" x="478" y="0"/>
</glyph>
<glyph name="less" format="2">
  <advance width="1160"/>
  <unicode hex="003C"/>
  <outline>
    <contour>
      <point x="191.5" y="682.2" type="line"/>
      <point x="188.6" y="663.8" type="line"/>
      <point x="231.3" y="665.6"/>
      <point x="268.1" y="676.9"/>
      <point x="300.9" y="692.6" type="curve" smooth="yes"/>
      <point x="945.8" y="1000.5" type="line" smooth="yes"/>
      <point x="963.1" y="1008.6"/>
      <point x="970.3" y="1015.9"/>
      <point x="971.6" y="1027.2" type="curve" smooth="yes"/>
      <point x="975.2" y="1059.6" type="line" name="n09"/>
    </contour>
    <contour>
      <point x="188.2" y="658.8" type="line"/>
      <point x="879.5" y="281.4" type="line" name="n11"/>
      <point x="884.1" y="313.8" type="line"/>
      <point x="885.4" y="325.1"/>
      <point x="879.8" y="332.4"/>
      <point x="864.8" y="340.5" type="curve" smooth="yes"/>
      <point x="295.4" y="648.4" type="line"/>
      <point x="266.7" y="665"/>
      <point x="232" y="675.4"/>
      <point x="190.2" y="677.2" type="curve"/>
    </contour>
  </outline>
  <guideline angle="82.9991" x="533" y="0"/>
</glyph>
<glyph name="equal" format="2">
  <advance width="1160"/>
  <unicode hex="003D"/>
  <outline>
    <contour>
      <point x="159" y="505.6" type="line" name="n00"/>
      <point x="969.6" y="505.6" type="line"/>
      <point x="974.2" y="546" type="line"/>
      <point x="163.6" y="546" type="line" name="n03"/>
    </contour>
    <contour>
      <point x="196" y="806.8" type="line" name="n04"/>
      <point x="1006.6" y="806.8" type="line"/>
      <point x="1011" y="847.2" type="line"/>
      <point x="200.6" y="847.2" type="line" name="n07"/>
    </contour>
  </outline>
  <guideline angle="82.9991" x="580" y="0"/>
</glyph>
<glyph name="greater" format="2">
  <advance width="1160.0"/>
  <unicode hex="003E"/>
  <guideline x="533.0" y="0.0" angle="82.9991"/>
  <outline>
    <contour>
      <point x="983.5" y="658.8" type="line"/>
      <point x="985.5" y="677.2" type="line"/>
      <point x="943.7" y="675.4"/>
      <point x="906.8" y="664.1"/>
      <point x="873.1" y="648.4" type="curve" smooth="yes"/>
      <point x="228.3" y="340.5" type="line" smooth="yes"/>
      <point x="210.9" y="332.4"/>
      <point x="204.7" y="325.1"/>
      <point x="203.4" y="313.8" type="curve"/>
      <point x="198.8" y="281.4" type="line"/>
    </contour>
    <contour>
      <point x="986.8" y="682.2" type="line"/>
      <point x="294.5" y="1059.6" type="line"/>
      <point x="290.9" y="1027.2" type="line" smooth="yes"/>
      <point x="289.6" y="1015.9"/>
      <point x="294.2" y="1008.6"/>
      <point x="309.3" y="1000.5" type="curve" smooth="yes"/>
      <point x="878.6" y="692.6" type="line"/>
      <point x="908.2" y="676.0"/>
      <point x="943.0" y="665.6"/>
      <point x="983.9" y="663.8" type="curve"/>
    </contour>
  </outline>
</glyph>
<glyph name="question" format="2">
  <advance width="793.0"/>
  <unicode hex="003F"/>
  <guideline x="329.0" y="0.0" angle="82.9991"/>
  <outline>
    <contour>
      <point x="172.6" y="1283.5" type="curve"/>
      <point x="183.5" y="1265.5" type="line"/>
      <point x="187.6" y="1259.2"/>
      <point x="191.5" y="1258.1"/>
      <point x="195.4" y="1258.1" type="curve"/>
      <point x="217.3" y="1258.1"/>
      <point x="299.3" y="1379.4"/>
      <point x="473.0" y="1379.4" type="curve" smooth="yes"/>
      <point x="597.0" y="1379.4"/>
      <point x="701.0" y="1295.8"/>
      <point x="701.0" y="1157.6" type="curve"/>
      <point x="701.0" y="850.0"/>
      <point x="356.0" y="823.4"/>
      <point x="338.0" y="652.8" type="curve" smooth="yes"/>
      <point x="318.2" y="480.2" type="line"/>
      <point x="353.2" y="480.2" type="line"/>
      <point x="382.8" y="649.0" type="line" smooth="yes"/>
      <point x="411.2" y="806.3"/>
      <point x="750.2" y="834.2"/>
      <point x="750.2" y="1165.2" type="curve" smooth="yes"/>
      <point x="750.2" y="1321.6"/>
      <point x="629.2" y="1421.8"/>
      <point x="480.4" y="1421.8" type="curve" smooth="yes"/>
      <point x="346.8" y="1421.8"/>
      <point x="244.2" y="1353.1"/>
    </contour>
    <contour>
      <point x="236.6" y="59.4" type="curve" smooth="yes"/>
      <point x="236.6" y="17.0"/>
      <point x="269.4" y="-15.8"/>
      <point x="311.8" y="-15.8" type="curve" smooth="yes"/>
      <point x="354.0" y="-15.8"/>
      <point x="388.8" y="17.0"/>
      <point x="388.8" y="59.4" type="curve" smooth="yes"/>
      <point x="388.8" y="101.6"/>
      <point x="354.0" y="136.4"/>
      <point x="311.8" y="136.4" type="curve" smooth="yes"/>
      <point x="269.4" y="136.4"/>
      <point x="236.6" y="101.6"/>
    </contour>
  </outline>
</glyph>
<glyph name="at" format="2">
  <advance width="1524"/>
  <unicode hex="0040"/>
  <outline>
    <contour>
      <point x="1037.8" y="189.2" type="curve" smooth="yes"/>
      <point x="1240.4" y="189.2"/>
      <point x="1433.6" y="418"/>
      <point x="1433.6" y="762.6" type="curve" smooth="yes"/>
      <point x="1433.6" y="1127.2"/>
      <point x="1183.8" y="1315.4"/>
      <point x="889.8" y="1315.4" type="curve" smooth="yes" name="n06"/>
      <point x="485.2" y="1315.4"/>
      <point x="109.2" y="944.8"/>
      <point x="109.2" y="425.6" type="curve" smooth="yes"/>
      <point x="109.2" y="4.2"/>
      <point x="371.8" y="-236.6"/>
      <point x="728.8" y="-236.6" type="curve" smooth="yes" name="n12"/>
      <point x="924.4" y="-236.6"/>
      <point x="1095.2" y="-183.2"/>
      <point x="1245.4" y="-82.6" type="curve"/>
      <point x="1241.4" y="-63.4" type="line"/>
      <point x="1238.4" y="-54"/>
      <point x="1229.8" y="-47"/>
      <point x="1215.2" y="-56.4" type="curve" smooth="yes"/>
      <point x="1074.8" y="-149.4"/>
      <point x="912.4" y="-197.4"/>
      <point x="732.8" y="-197.4" type="curve" smooth="yes" name="n22"/>
      <point x="404" y="-197.4"/>
      <point x="150.6" y="26.4"/>
      <point x="150.6" y="430.2" type="curve" smooth="yes"/>
      <point x="150.6" y="935.2"/>
      <point x="514.2" y="1278.2"/>
      <point x="885.6" y="1278.2" type="curve" smooth="yes" name="n28"/>
      <point x="1165.4" y="1278.2"/>
      <point x="1392.8" y="1108.2"/>
      <point x="1392.8" y="762.6" type="curve" smooth="yes"/>
      <point x="1392.8" y="430.2"/>
      <point x="1216.8" y="225.8"/>
      <point x="1048" y="225.8" type="curve" smooth="yes"/>
      <point x="959.2" y="225.8"/>
      <point x="881.2" y="271"/>
      <point x="977.6" y="539" type="curve"/>
      <point x="1103" y="879.4" type="line"/>
      <point x="1063.8" y="900.6"/>
      <point x="1007.4" y="911.2"/>
      <point x="951.2" y="911.2" type="curve" smooth="yes" name="n41"/>
      <point x="654.4" y="911.2"/>
      <point x="450" y="631.2"/>
      <point x="450" y="394.2" type="curve" smooth="yes"/>
      <point x="450" y="282.8"/>
      <point x="501.8" y="194.6"/>
      <point x="616.8" y="194.6" type="curve" smooth="yes"/>
      <point x="740.6" y="194.6"/>
      <point x="857" y="278"/>
      <point x="945.6" y="471.2" type="curve"/>
      <point x="915.8" y="443.2" type="line"/>
      <point x="874.2" y="288.8"/>
      <point x="905.2" y="189.2"/>
    </contour>
    <contour>
      <point x="1057" y="872.8" type="line"/>
      <point x="936.4" y="539.4" type="line" smooth="yes"/>
      <point x="848.2" y="292.8"/>
      <point x="727.4" y="232"/>
      <point x="632.4" y="232" type="curve" smooth="yes" name="n58"/>
      <point x="538.4" y="232"/>
      <point x="494.8" y="307"/>
      <point x="494.8" y="401" type="curve" smooth="yes"/>
      <point x="494.8" y="616.2"/>
      <point x="682.8" y="874.6"/>
      <point x="942.2" y="874.6" type="curve" smooth="yes" name="n64"/>
      <point x="999.2" y="874.6"/>
      <point x="1031.2" y="866.2"/>
      <point x="1072.6" y="851.2" type="curve"/>
    </contour>
  </outline>
  <guideline angle="0" x="0" y="700"/>
  <guideline angle="90" x="755" y="0"/>
  <guideline angle="82.9991" x="100" y="0"/>
</glyph>
<glyph name="A" format="2">
  <advance width="1193.6"/>
  <unicode hex="0041"/>
  <guideline x="575.7" y="0.0" angle="82.9991"/>
  <anchor x="706.9" y="1498.9" name="Top"/>
  <anchor x="270.8" y="1120.0" name="onRight"/>
  <anchor x="514.3" y="-70.0" name="bottom"/>
  <anchor x="706.9" y="1498.9" name="top"/>
  <outline>
    <contour>
      <point x="-38.1" y="0.0" type="line"/>
      <point x="1.9000000000000021" y="0.0" type="line" smooth="yes"/>
      <point x="12.5" y="0.0"/>
      <point x="22.3" y="7.2"/>
      <point x="27.700000000000003" y="16.4" type="curve"/>
      <point x="662.3" y="1288.6" type="line" smooth="yes"/>
      <point x="677.9" y="1321.6"/>
      <point x="695.7" y="1358.4"/>
      <point x="708.5" y="1406.0" type="curve"/>
      <point x="670.5" y="1406.0" type="line"/>
    </contour>
    <contour>
      <point x="221.9" y="462.8" type="line"/>
      <point x="938.9" y="462.8" type="line"/>
      <point x="945.3" y="504.0" type="line"/>
      <point x="226.7" y="504.0" type="line"/>
    </contour>
    <contour>
      <point x="721.9" y="1406.0" type="line"/>
      <point x="683.3" y="1406.0" type="line"/>
      <point x="684.9" y="1358.4"/>
      <point x="694.3" y="1321.6"/>
      <point x="701.7" y="1288.8" type="curve" smooth="yes"/>
      <point x="1023.1" y="16.4" type="line"/>
      <point x="1026.1" y="6.6"/>
      <point x="1032.7" y="0.0"/>
      <point x="1043.7" y="0.0" type="curve" smooth="yes"/>
      <point x="1085.1" y="0.0" type="line"/>
    </contour>
  </outline>
</glyph>
<glyph name="C" format="2">
  <advance width="1262.8"/>
  <unicode hex="0043"/>
  <guideline x="641.4" y="0.0" angle="82.9991"/>
  <anchor x="863.4" y="1498.9" name="Top"/>
  <anchor x="689.8" y="702.8" name="Slash"/>
  <anchor x="863.4" y="1498.9" name="top"/>
  <anchor x="577.5" y="-70.0" name="bottom"/>
  <outline>
    <contour>
      <point x="661.5" y="30.0" type="curve" smooth="yes"/>
      <point x="380.1" y="30.0"/>
      <point x="183.9" y="247.6"/>
      <point x="183.9" y="595.8" type="curve" smooth="yes"/>
      <point x="183.9" y="1073.8"/>
      <point x="474.5" y="1375.8"/>
      <point x="846.5" y="1375.8" type="curve" smooth="yes"/>
      <point x="1117.5" y="1375.8"/>
      <point x="1187.7" y="1226.8"/>
      <point x="1214.3" y="1226.8" type="curve" smooth="yes"/>
      <point x="1221.3" y="1226.8"/>
      <point x="1226.9" y="1228.6"/>
      <point x="1232.1" y="1234.2" type="curve"/>
      <point x="1247.1" y="1253.4" type="line"/>
      <point x="1143.1" y="1364.6"/>
      <point x="1039.1" y="1422.0"/>
      <point x="849.9" y="1422.0" type="curve" smooth="yes"/>
      <point x="441.1" y="1422.0"/>
      <point x="128.9" y="1086.0"/>
      <point x="128.9" y="593.0" type="curve" smooth="yes"/>
      <point x="128.9" y="224.0"/>
      <point x="336.5" y="-16.0"/>
      <point x="654.1" y="-16.0" type="curve" smooth="yes"/>
      <point x="866.9" y="-16.0"/>
      <point x="1015.9" y="64.0"/>
      <point x="1138.3" y="181.8" type="curve"/>
      <point x="1118.8" y="204.2" type="line"/>
      <point x="1117.2" y="206.0"/>
      <point x="1114.0" y="207.9"/>
      <point x="1111.0" y="207.9" type="curve"/>
      <point x="1085.6" y="207.9"/>
      <point x="969.9" y="30.0"/>
    </contour>
  </outline>
</glyph>
<glyph name="D" format="2">
  <advance width="1411.7"/>
  <unicode hex="0044"/>
  <guideline x="702.7" y="0.0" angle="82.9991"/>
  <anchor x="754.0" y="1498.9" name="Top"/>
  <anchor x="559.3" y="-73.3" name="bottom"/>
  <anchor x="754.0" y="1498.9" name="top"/>
  <outline>
    <contour>
      <point x="1306.1" y="813.0" type="curve" smooth="yes"/>
      <point x="1306.1" y="1178.6"/>
      <point x="1100.7" y="1406.0"/>
      <point x="776.3" y="1406.0" type="curve" smooth="yes"/>
      <point x="309.9" y="1406.0" type="line"/>
      <point x="137.1" y="0.0" type="line"/>
      <point x="603.5" y="0.0" type="line" smooth="yes"/>
      <point x="1006.1" y="0.0"/>
      <point x="1306.1" y="308.6"/>
    </contour>
    <contour>
      <point x="1249.3" y="812.2" type="curve" smooth="yes"/>
      <point x="1249.3" y="326.6"/>
      <point x="977.1" y="44.2"/>
      <point x="608.5" y="44.2" type="curve" smooth="yes"/>
      <point x="196.5" y="44.2" type="line"/>
      <point x="359.3" y="1361.8" type="line"/>
      <point x="771.3" y="1361.8" type="line" smooth="yes"/>
      <point x="1063.5" y="1361.8"/>
      <point x="1249.3" y="1155.8"/>
    </contour>
  </outline>
</glyph>
<glyph name="E" format="2">
  <advance width="1080.0"/>
  <unicode hex="0045"/>
  <guideline x="548.6" y="0.0" angle="82.9991"/>
  <anchor x="710.0" y="1498.9" name="Top"/>
  <anchor x="541.0" y="-70.0" name="bottom"/>
  <anchor x="10.899999999999999" y="1120.0" name="onRight"/>
  <anchor x="573.6" y="702.8" name="Slash"/>
  <anchor x="710.0" y="1498.9" name="top"/>
  <outline>
    <contour>
      <point x="364.3" y="1406.0" type="line"/>
      <point x="309.9" y="1406.0" type="line"/>
      <point x="137.1" y="0.0" type="line"/>
      <point x="191.5" y="0.0" type="line"/>
    </contour>
    <contour>
      <point x="272.9" y="735.8" type="line"/>
      <point x="266.1" y="690.8" type="line"/>
      <point x="873.7" y="690.8" type="line"/>
      <point x="880.5" y="735.8" type="line"/>
    </contour>
    <contour>
      <point x="353.9" y="1406.0" type="line"/>
      <point x="348.9" y="1360.0" type="line"/>
      <point x="1068.5" y="1360.0" type="line"/>
      <point x="1075.3" y="1406.0" type="line"/>
    </contour>
    <contour>
      <point x="188.1" y="46.0" type="line"/>
      <point x="181.3" y="0.0" type="line"/>
      <point x="902.7" y="0.0" type="line"/>
      <point x="909.5" y="46.0" type="line"/>
    </contour>
  </outline>
</glyph>
<glyph name="F" format="2">
  <advance width="1056.8"/>
  <unicode hex="0046"/>
  <guideline x="529.1" y="0.0" angle="82.9991"/>
  <anchor x="700.8" y="1498.9" name="Top"/>
  <anchor x="700.8" y="1498.9" name="top"/>
  <anchor x="364.2" y="-70.0" name="bottom"/>
  <outline>
    <contour>
      <point x="364.3" y="1406.0" type="line"/>
      <point x="309.9" y="1406.0" type="line"/>
      <point x="137.1" y="0.0" type="line"/>
      <point x="191.5" y="0.0" type="line"/>
    </contour>
    <contour>
      <point x="268.9" y="714.6" type="line"/>
      <point x="263.9" y="668.6" type="line"/>
      <point x="891.3" y="668.6" type="line"/>
      <point x="898.3" y="714.6" type="line"/>
    </contour>
    <contour>
      <point x="353.9" y="1406.0" type="line"/>
      <point x="348.9" y="1360.0" type="line"/>
      <point x="1068.5" y="1360.0" type="line"/>
      <point x="1075.3" y="1406.0" type="line"/>
    </contour>
  </outline>
</glyph>
<glyph name="G" format="2">
  <advance width="1371"/>
  <unicode hex="0047"/>
  <anchor x="885.4" y="1498.9" name="Top"/>
  <anchor x="689.2" y="-70" name="bottom"/>
  <anchor x="885.4" y="1498.9" name="top"/>
  <outline>
    <contour>
      <point x="1151.2" y="170.6" type="line"/>
      <point x="1010.4" y="80.6"/>
      <point x="887.2" y="28.2"/>
      <point x="680" y="28.2" type="curve" smooth="yes" name="n03"/>
      <point x="378" y="28.2"/>
      <point x="184.8" y="246.6"/>
      <point x="184.8" y="594" type="curve" smooth="yes"/>
      <point x="184.8" y="1076.4"/>
      <point x="461.8" y="1375.8"/>
      <point x="863.2" y="1375.8" type="curve" smooth="yes" name="n09"/>
      <point x="1141.4" y="1375.8"/>
      <point x="1221.6" y="1236.6"/>
      <point x="1247.2" y="1230" type="curve"/>
      <point x="1257.6" y="1226.6"/>
      <point x="1264.6" y="1229.6"/>
      <point x="1269.8" y="1238" type="curve"/>
      <point x="1285.8" y="1257.2" type="line"/>
      <point x="1184.4" y="1366.8"/>
      <point x="1065" y="1422"/>
      <point x="867.4" y="1422" type="curve" smooth="yes" name="n19"/>
      <point x="430.8" y="1422"/>
      <point x="129.8" y="1094.8"/>
      <point x="129.8" y="592.8" type="curve" smooth="yes"/>
      <point x="129.8" y="224.6"/>
      <point x="337.8" y="-16"/>
      <point x="672.6" y="-16" type="curve" smooth="yes" name="n25"/>
      <point x="890.6" y="-16"/>
      <point x="1040.4" y="42.6"/>
      <point x="1179.6" y="138.2" type="curve"/>
      <point x="1239.4" y="617.4" type="line"/>
      <point x="901" y="617.4" type="line" name="n30"/>
      <point x="898.8" y="589.6" type="line"/>
      <point x="896.6" y="582.6"/>
      <point x="904.2" y="574.8"/>
      <point x="913.6" y="574.8" type="curve" smooth="yes" name="n34"/>
      <point x="1185.2" y="574.8" type="line"/>
      <point x="1130" y="129.6" type="line"/>
    </contour>
  </outline>
  <guideline angle="82.9991" x="700" y="0"/>
</glyph>
<glyph name="H" format="2">
  <advance width="1394.0"/>
  <unicode hex="0048"/>
  <guideline x="696.0" y="0.0" angle="82.9991"/>
  <anchor x="814.7" y="1498.9" name="Top"/>
  <anchor x="10.899999999999999" y="1120.0" name="onRight"/>
  <anchor x="624.4" y="-70.0" name="bottom"/>
  <anchor x="814.7" y="1498.9" name="top"/>
  <outline>
    <contour>
      <point x="364.3" y="1406.0" type="line"/>
      <point x="309.9" y="1406.0" type="line"/>
      <point x="137.1" y="0.0" type="line"/>
      <point x="191.5" y="0.0" type="line"/>
    </contour>
    <contour>
      <point x="272.7" y="734.6" type="line"/>
      <point x="266.3" y="691.6" type="line"/>
      <point x="1163.9" y="691.6" type="line"/>
      <point x="1170.5" y="734.6" type="line"/>
    </contour>
    <contour>
      <point x="1283.1" y="1406.0" type="line"/>
      <point x="1228.7" y="1406.0" type="line"/>
      <point x="1055.9" y="0.0" type="line"/>
      <point x="1110.3" y="0.0" type="line"/>
    </contour>
  </outline>
</glyph>
<glyph name="I" format="2">
  <advance width="475.1"/>
  <unicode hex="0049"/>
  <guideline x="270.8" y="0.0" angle="82.9991"/>
  <anchor x="349.2" y="1498.9" name="Top"/>
  <anchor x="0.8999999999999995" y="1120.0" name="onRight"/>
  <anchor x="349.2" y="1498.9" name="top"/>
  <anchor x="160.1" y="-70.0" name="bottom"/>
  <outline>
    <contour>
      <point x="364.1" y="1406.0" type="line"/>
      <point x="309.7" y="1406.0" type="line"/>
      <point x="137.1" y="0.0" type="line"/>
      <point x="191.5" y="0.0" type="line"/>
    </contour>
  </outline>
</glyph>
<glyph name="J" format="2">
  <advance width="770.9"/>
  <unicode hex="004A"/>
  <guideline x="421.9" y="0.0" angle="82.9991"/>
  <anchor x="657.2" y="1498.9" name="Top"/>
  <anchor x="531.4" y="702.8" name="Bar"/>
  <anchor x="657.2" y="1498.9" name="top"/>
  <anchor x="196.5" y="-70.0" name="bottom"/>
  <outline>
    <contour>
      <point x="673.7" y="1406.0" type="line"/>
      <point x="619.5" y="1406.0" type="line"/>
      <point x="498.3" y="422.8" type="line" smooth="yes"/>
      <point x="461.9" y="123.4"/>
      <point x="312.5" y="29.200000000000003"/>
      <point x="145.1" y="29.200000000000003" type="curve" smooth="yes"/>
      <point x="43.1" y="29.200000000000003"/>
      <point x="10.3" y="53.6"/>
      <point x="-14.5" y="53.6" type="curve" smooth="yes"/>
      <point x="-27.7" y="53.6"/>
      <point x="-31.3" y="45.6"/>
      <point x="-33.5" y="38.6" type="curve"/>
      <point x="-37.7" y="13.6" type="line"/>
      <point x="16.3" y="-6.2"/>
      <point x="71.5" y="-16.0"/>
      <point x="143.3" y="-16.0" type="curve"/>
      <point x="358.3" y="-17.8"/>
      <point x="514.3" y="114.0"/>
      <point x="552.5" y="423.6" type="curve" smooth="yes"/>
    </contour>
  </outline>
</glyph>
<glyph name="L" format="2">
  <advance width="924.1"/>
  <unicode hex="004C"/>
  <guideline x="469.0" y="0.0" angle="82.9991"/>
  <anchor x="349.1" y="1498.9" name="Top"/>
  <anchor x="455.3" y="-70.0" name="bottom"/>
  <anchor x="251.1" y="702.8" name="Bar"/>
  <anchor x="349.1" y="1498.9" name="top"/>
  <outline>
    <contour>
      <point x="364.1" y="1406.0" type="line"/>
      <point x="309.9" y="1406.0" type="line"/>
      <point x="137.1" y="0.0" type="line"/>
      <point x="191.3" y="0.0" type="line"/>
    </contour>
    <contour>
      <point x="188.3" y="47.0" type="line"/>
      <point x="181.3" y="0.0" type="line"/>
      <point x="830.7" y="0.0" type="line"/>
      <point x="837.5" y="47.0" type="line"/>
    </contour>
  </outline>
</glyph>
<glyph name="M" format="2">
  <advance width="1666"/>
  <unicode hex="004D"/>
  <anchor x="919.1" y="1498.9" name="Top"/>
  <anchor x="755.4" y="-70" name="bottom"/>
  <anchor x="919.1" y="1498.9" name="top"/>
  <outline>
    <contour>
      <point x="794.7" y="290.8" type="curve"/>
      <point x="814.1" y="290.8" type="line"/>
      <point x="810.3" y="308.4"/>
      <point x="805.6" y="330.1"/>
      <point x="798.9" y="348.2" type="curve"/>
      <point x="364.7" y="1393.6" type="line"/>
      <point x="358.1" y="1403.4"/>
      <point x="352.9" y="1406" name="n07"/>
      <point x="341.9" y="1406" type="curve" smooth="yes"/>
      <point x="309.9" y="1406" type="line"/>
      <point x="137.1" y="0" type="line" name="n10"/>
      <point x="183.9" y="0" type="line"/>
      <point x="341.5" y="1287.2" type="line" smooth="yes"/>
      <point x="344.3" y="1310.4"/>
      <point x="344.3" y="1340.2"/>
      <point x="344.3" y="1363.4" type="curve"/>
      <point x="329.5" y="1355.2" type="line"/>
      <point x="774.7" y="283" type="line"/>
      <point x="778.1" y="273"/>
      <point x="785.7" y="267"/>
      <point x="796.1" y="267" type="curve" smooth="yes"/>
      <point x="805.9" y="267" type="line" smooth="yes"/>
      <point x="816.3" y="267"/>
      <point x="824.3" y="273"/>
      <point x="830.7" y="283" type="curve" smooth="yes"/>
      <point x="1523.3" y="1355.2" type="line"/>
      <point x="1508.9" y="1363.4" type="line"/>
      <point x="1503.1" y="1340.2"/>
      <point x="1496.1" y="1310"/>
      <point x="1493.1" y="1286.6" type="curve" smooth="yes"/>
      <point x="1335.3" y="0" type="line"/>
      <point x="1381.9" y="0" type="line"/>
      <point x="1554.7" y="1406" type="line"/>
      <point x="1522.5" y="1406" type="line" smooth="yes"/>
      <point x="1511.5" y="1406"/>
      <point x="1506.1" y="1403.4"/>
      <point x="1498.5" y="1393.6" type="curve"/>
      <point x="822.1" y="348.2" type="line" smooth="yes"/>
      <point x="810.5" y="330"/>
      <point x="801.3" y="308.4"/>
    </contour>
  </outline>
  <guideline angle="82.9991" x="827" y="0"/>
</glyph>
<glyph name="N" format="2">
  <advance width="1394"/>
  <unicode hex="004E"/>
  <anchor x="831.1" y="1497.1" name="Top"/>
  <anchor x="619.6" y="-70" name="bottom"/>
  <anchor x="831.1" y="1497.1" name="top"/>
  <outline>
    <contour>
      <point x="1092.1" y="64.2" type="line"/>
      <point x="355.1" y="1393.6" type="line"/>
      <point x="348.9" y="1403.6"/>
      <point x="345.3" y="1406" name="n03"/>
      <point x="334.3" y="1406" type="curve" smooth="yes"/>
      <point x="309.9" y="1406" type="line"/>
      <point x="137.1" y="0" type="line" name="n06"/>
      <point x="183.9" y="0" type="line"/>
      <point x="341.5" y="1286.8" type="line" smooth="yes"/>
      <point x="344.3" y="1310"/>
      <point x="344.9" y="1338.8"/>
      <point x="345.1" y="1363.4" type="curve"/>
      <point x="331.7" y="1341.8" type="line"/>
      <point x="1066.5" y="14.6" type="line"/>
      <point x="1072.9" y="5.2"/>
      <point x="1079.3" y="0"/>
      <point x="1089.7" y="0" type="curve" smooth="yes"/>
      <point x="1110.3" y="0" type="line"/>
      <point x="1283.1" y="1406" type="line"/>
      <point x="1236.3" y="1406" type="line"/>
      <point x="1078.9" y="123.8" type="line" smooth="yes"/>
      <point x="1075.9" y="101.4"/>
      <point x="1076.7" y="72.6"/>
      <point x="1076.9" y="47.8" type="curve"/>
    </contour>
  </outline>
  <guideline angle="82.9991" x="695" y="0"/>
</glyph>
<glyph name="O" format="2">
  <advance width="1464"/>
  <unicode hex="004F"/>
  <anchor x="744.9" y="702.8" name="Slash"/>
  <anchor x="840" y="1498.9" name="Top"/>
  <anchor x="647.6" y="-70" name="bottom"/>
  <anchor x="17.9" y="1120" name="onRight"/>
  <anchor x="840" y="1498.9" name="top"/>
  <outline>
    <contour>
      <point x="1360.6" y="814.8" type="curve" smooth="yes"/>
      <point x="1360.6" y="1180.6"/>
      <point x="1155.4" y="1422"/>
      <point x="832.8" y="1422" type="curve" smooth="yes" name="n03"/>
      <point x="435.6" y="1422"/>
      <point x="129.8" y="1093.6"/>
      <point x="129.8" y="591" type="curve" smooth="yes"/>
      <point x="129.8" y="225.2"/>
      <point x="335" y="-14.2"/>
      <point x="656" y="-14.2" type="curve" smooth="yes" name="n09"/>
      <point x="1058.4" y="-14.2"/>
      <point x="1360.6" y="310.6"/>
    </contour>
    <contour>
      <point x="1303.8" y="814" type="curve" smooth="yes"/>
      <point x="1303.8" y="328.8"/>
      <point x="1030" y="31"/>
      <point x="661.4" y="31" type="curve" smooth="yes" name="n15"/>
      <point x="374.4" y="31"/>
      <point x="184.8" y="248"/>
      <point x="184.8" y="593.6" type="curve" smooth="yes"/>
      <point x="184.8" y="1077"/>
      <point x="465.6" y="1376.8"/>
      <point x="827" y="1376.8" type="curve" smooth="yes" name="n21"/>
      <point x="1117.4" y="1376.8"/>
      <point x="1303.8" y="1159.6"/>
    </contour>
  </outline>
  <guideline angle="82.9991" x="733" y="0"/>
</glyph>
<glyph name="P" format="2">
  <advance width="1054"/>
  <unicode hex="0050"/>
  <anchor x="253.1" y="986.1" name="Bar"/>
  <anchor x="595.4" y="1498.9" name="Top"/>
  <anchor x="159.9" y="-70" name="bottom"/>
  <anchor x="682.9" y="646.2" name="tick"/>
  <anchor x="595.4" y="1498.9" name="top"/>
  <outline>
    <contour>
      <point x="241.1" y="588.6" type="line"/>
      <point x="520.5" y="588.6" type="line" smooth="yes" name="n01"/>
      <point x="814.5" y="588.6"/>
      <point x="1022.5" y="781.6"/>
      <point x="1022.5" y="1062" type="curve" smooth="yes"/>
      <point x="1022.5" y="1285.2"/>
      <point x="885.7" y="1406"/>
      <point x="620.7" y="1406" type="curve" smooth="yes" name="n07"/>
      <point x="309.7" y="1406" type="line"/>
      <point x="137.1" y="0" type="line" name="n09"/>
      <point x="191.1" y="0" type="line"/>
      <point x="363.9" y="1406" type="line"/>
      <point x="325.5" y="1362.6" type="line"/>
      <point x="615.7" y="1362.6" type="line" smooth="yes" name="n13"/>
      <point x="850.5" y="1362.6"/>
      <point x="968.1" y="1252"/>
      <point x="968.1" y="1055.6" type="curve" smooth="yes"/>
      <point x="968.1" y="812.6"/>
      <point x="788.9" y="632.2"/>
      <point x="525.5" y="632.2" type="curve" smooth="yes" name="n19"/>
      <point x="250.5" y="632.2" type="line"/>
    </contour>
  </outline>
  <guideline angle="82.9991" x="533" y="0"/>
</glyph>
<glyph name="Q" format="2">
  <advance width="1464"/>
  <unicode hex="0051"/>
  <anchor x="744.9" y="702.8" name="Slash"/>
  <anchor x="840" y="1498.9" name="Top"/>
  <anchor x="647.6" y="-70" name="bottom"/>
  <anchor x="17.9" y="1120" name="onRight"/>
  <anchor x="840" y="1498.9" name="top"/>
  <outline>
    <component base="O"/>
    <contour>
      <point x="972.4" y="82.2" type="line" name="n00"/>
      <point x="920" y="70.4" type="line"/>
      <point x="1199" y="-306" type="line"/>
      <point x="1207" y="-315.2"/>
      <point x="1218.2" y="-320.6" name="n04"/>
      <point x="1234.8" y="-320.6" type="curve" smooth="yes"/>
      <point x="1274.2" y="-320.6" type="line"/>
    </contour>
  </outline>
  <guideline angle="82.9991" x="732" y="0"/>
</glyph>
<glyph name="R" format="2">
  <advance width="1108"/>
  <unicode hex="0052"/>
  <anchor x="597.3" y="1498.9" name="Top"/>
  <anchor x="541.1" y="-70" name="bottom"/>
  <anchor x="597.3" y="1498.9" name="top"/>
  <outline>
    <contour>
      <point x="460.7" y="662.2" type="line" smooth="yes"/>
      <point x="510.5" y="662.2"/>
      <point x="526.9" y="653.4"/>
      <point x="544.7" y="624.6" type="curve" smooth="yes"/>
      <point x="922.3" y="17.2" type="line" smooth="yes"/>
      <point x="931.1" y="2.4"/>
      <point x="940.3" y="0" name="n06"/>
      <point x="954.7" y="0" type="curve" smooth="yes"/>
      <point x="998.5" y="0" type="line"/>
      <point x="597.5" y="635.6" type="line"/>
      <point x="572.1" y="677.6"/>
      <point x="537.1" y="684.6"/>
      <point x="458.9" y="684.6" type="curve"/>
      <point x="492.7" y="664.8" type="line"/>
      <point x="520.7" y="664.8" type="line" smooth="yes" name="n14"/>
      <point x="808.5" y="664.8"/>
      <point x="1013.9" y="831.2"/>
      <point x="1013.9" y="1100" type="curve" smooth="yes"/>
      <point x="1013.9" y="1303.2"/>
      <point x="879.3" y="1406"/>
      <point x="623.9" y="1406" type="curve" smooth="yes" name="n20"/>
      <point x="309.7" y="1406" type="line"/>
      <point x="137.1" y="0" type="line"/>
      <point x="191.1" y="0" type="line"/>
      <point x="356.7" y="1341.2" type="line"/>
      <point x="331.5" y="1362.6" type="line"/>
      <point x="619.1" y="1362.6" type="line" smooth="yes" name="n26"/>
      <point x="840.1" y="1362.6"/>
      <point x="959.9" y="1274.6"/>
      <point x="959.9" y="1093" type="curve" smooth="yes"/>
      <point x="959.9" y="852.6"/>
      <point x="787.5" y="703.6"/>
      <point x="522.1" y="703.6" type="curve" smooth="yes" name="n32"/>
      <point x="259.9" y="703.6" type="line"/>
      <point x="249.1" y="662.2" type="line"/>
    </contour>
  </outline>
  <guideline angle="82.9991" x="570" y="0"/>
</glyph>
<glyph name="S" format="2">
  <advance width="987"/>
  <unicode hex="0053"/>
  <anchor x="640.6" y="1498.9" name="Top"/>
  <anchor x="378.3" y="-70" name="bottom"/>
  <anchor x="640.6" y="1498.9" name="top"/>
  <outline>
    <contour>
      <point x="915.2" y="1280.2" type="line"/>
      <point x="842.6" y="1376.4"/>
      <point x="748.4" y="1421.8"/>
      <point x="620.2" y="1421.8" type="curve" smooth="yes" name="n03"/>
      <point x="363" y="1421.8"/>
      <point x="213.2" y="1234"/>
      <point x="213.2" y="1026" type="curve" smooth="yes"/>
      <point x="213.2" y="633.6"/>
      <point x="800" y="787.4"/>
      <point x="800" y="436.2" type="curve" smooth="yes"/>
      <point x="800" y="211.4"/>
      <point x="643.6" y="29"/>
      <point x="397.6" y="29" type="curve" smooth="yes" name="n12"/>
      <point x="163.4" y="29"/>
      <point x="106" y="196"/>
      <point x="78.6" y="196" type="curve" smooth="yes"/>
      <point x="70.4" y="196"/>
      <point x="65.6" y="192.4"/>
      <point x="60.2" y="186.6" type="curve"/>
      <point x="43.2" y="167" type="line"/>
      <point x="121" y="53"/>
      <point x="220" y="-16"/>
      <point x="391.6" y="-16" type="curve" smooth="yes" name="n22"/>
      <point x="673.8" y="-16"/>
      <point x="851.4" y="195.6"/>
      <point x="851.4" y="444.6" type="curve" smooth="yes"/>
      <point x="851.4" y="826.2"/>
      <point x="264" y="685"/>
      <point x="264" y="1035" type="curve" smooth="yes"/>
      <point x="264" y="1220.8"/>
      <point x="396.2" y="1377"/>
      <point x="613.6" y="1377" type="curve" smooth="yes" name="n31"/>
      <point x="812.4" y="1377"/>
      <point x="857.6" y="1250.6"/>
      <point x="885.2" y="1250.6" type="curve" smooth="yes"/>
      <point x="892" y="1250.6"/>
      <point x="897.6" y="1254"/>
      <point x="901.8" y="1260.8" type="curve"/>
    </contour>
  </outline>
  <guideline angle="82.9991" x="475" y="0"/>
</glyph>
<glyph name="T" format="2">
  <advance width="1051"/>
  <unicode hex="0054"/>
  <anchor x="539.3" y="702.8" name="Slash"/>
  <anchor x="634.5" y="1498.9" name="Top"/>
  <anchor x="443.1" y="-70" name="bottom"/>
  <anchor x="634.5" y="1498.9" name="top"/>
  <outline>
    <contour>
      <point x="652.1" y="1406" type="line"/>
      <point x="597.9" y="1406" type="line"/>
      <point x="425.3" y="0" type="line" name="n02"/>
      <point x="479.3" y="0" type="line"/>
    </contour>
    <contour>
      <point x="121.5" y="1406" type="line" name="n04"/>
      <point x="116.5" y="1359.2" type="line" name="n05"/>
      <point x="1117.9" y="1359.2" type="line"/>
      <point x="1123.1" y="1406" type="line"/>
    </contour>
  </outline>
  <guideline angle="82.9991" x="534" y="0"/>
</glyph>
<glyph name="U" format="2">
  <advance width="1344.7"/>
  <unicode hex="0055"/>
  <guideline x="676.0" y="0.0" angle="82.9991"/>
  <anchor x="782.3" y="1498.9" name="Top"/>
  <anchor x="782.3" y="1498.9" name="top"/>
  <anchor x="595.4" y="-70.0" name="bottom"/>
  <outline>
    <contour>
      <point x="603.6" y="30.400000000000002" type="curve" smooth="yes"/>
      <point x="337.2" y="30.400000000000002"/>
      <point x="207.0" y="251.6"/>
      <point x="240.0" y="529.2" type="curve"/>
      <point x="347.8" y="1406.0" type="line"/>
      <point x="293.6" y="1406.0" type="line"/>
      <point x="186.0" y="527.4" type="line" smooth="yes"/>
      <point x="149.2" y="225.4"/>
      <point x="303.2" y="-17.8"/>
      <point x="596.6" y="-17.8" type="curve" smooth="yes"/>
      <point x="891.8" y="-17.8"/>
      <point x="1104.2" y="225.4"/>
      <point x="1142.8" y="527.4" type="curve"/>
      <point x="1250.6" y="1406.0" type="line"/>
      <point x="1196.4" y="1406.0" type="line"/>
      <point x="1088.6" y="527.4" type="line"/>
      <point x="1053.8" y="249.8"/>
      <point x="868.2" y="30.400000000000002"/>
    </contour>
  </outline>
</glyph>
<glyph name="V" format="2">
  <advance width="1187"/>
  <unicode hex="0056"/>
  <anchor x="703.3" y="1498.9" name="Top"/>
  <anchor x="516.7" y="-70" name="bottom"/>
  <anchor x="703.3" y="1498.9" name="top"/>
  <outline>
    <contour>
      <point x="1253.4" y="1406" type="line" name="n00"/>
      <point x="1212.6" y="1406" type="line" smooth="yes"/>
      <point x="1201.8" y="1406"/>
      <point x="1191.8" y="1398.6"/>
      <point x="1188.4" y="1389.6" type="curve"/>
      <point x="556.8" y="127.4" type="line" smooth="yes"/>
      <point x="537.8" y="89.6"/>
      <point x="521.4" y="47.6"/>
      <point x="509.4" y="0" type="curve" name="n08"/>
      <point x="544.6" y="0" type="line"/>
    </contour>
    <contour>
      <point x="497" y="0" type="line"/>
      <point x="532.8" y="0" type="line"/>
      <point x="534.2" y="47.6"/>
      <point x="525.6" y="89.6"/>
      <point x="516" y="127.4" type="curve" smooth="yes"/>
      <point x="193" y="1389.6" type="line"/>
      <point x="192.2" y="1399.2"/>
      <point x="185.2" y="1406"/>
      <point x="174.2" y="1406" type="curve" smooth="yes"/>
      <point x="131.8" y="1406" type="line"/>
    </contour>
  </outline>
  <guideline angle="82.9991" x="566" y="0"/>
</glyph>
<glyph name="W" format="2">
  <advance width="1859"/>
  <unicode hex="0057"/>
  <anchor x="1034.7" y="1498.9" name="Top"/>
  <anchor x="850.1" y="-70" name="bottom"/>
  <anchor x="1034.7" y="1498.9" name="top"/>
  <outline>
    <contour>
      <point x="1022.1" y="1406" type="line" smooth="yes" name="n00"/>
      <point x="1011.3" y="1406"/>
      <point x="1002.4" y="1399.5"/>
      <point x="998.1" y="1389.6" type="curve" smooth="yes"/>
      <point x="444.5" y="129.2" type="line"/>
      <point x="428.5" y="91"/>
      <point x="414.3" y="47.6"/>
      <point x="404.3" y="0" type="curve" name="n07"/>
      <point x="433.7" y="0" type="line"/>
      <point x="1003.9" y="1299.6" type="line" smooth="yes"/>
      <point x="1014.3" y="1324.4"/>
      <point x="1026.5" y="1361.2"/>
      <point x="1030.1" y="1385.8" type="curve"/>
      <point x="1017.9" y="1385.8" type="line"/>
      <point x="1016.7" y="1361.2"/>
      <point x="1019.9" y="1324.4"/>
      <point x="1023.7" y="1299.6" type="curve"/>
      <point x="1274.7" y="0" type="line"/>
      <point x="1305.1" y="0" type="line"/>
      <point x="1306.7" y="47.6"/>
      <point x="1302.1" y="91"/>
      <point x="1295.7" y="129.2" type="curve"/>
      <point x="1052.3" y="1389.6" type="line" smooth="yes"/>
      <point x="1050.2" y="1400.1"/>
      <point x="1044.3" y="1406"/>
      <point x="1033.3" y="1406" type="curve" smooth="yes"/>
    </contour>
    <contour>
      <point x="386.3" y="0" type="line"/>
      <point x="423.9" y="0" type="line"/>
      <point x="425.5" y="47.6"/>
      <point x="420.5" y="90.6"/>
      <point x="415.5" y="129.2" type="curve"/>
      <point x="210.9" y="1389.6" type="line"/>
      <point x="210.3" y="1399.4"/>
      <point x="203.1" y="1406"/>
      <point x="192.1" y="1406" type="curve" smooth="yes"/>
      <point x="150.3" y="1406" type="line"/>
    </contour>
    <contour>
      <point x="1903.7" y="1406" type="line"/>
      <point x="1863.5" y="1406" type="line" smooth="yes"/>
      <point x="1852.7" y="1406"/>
      <point x="1840.5" y="1398.8"/>
      <point x="1837.5" y="1389.6" type="curve"/>
      <point x="1324.5" y="129.2" type="line"/>
      <point x="1309.9" y="90.6"/>
      <point x="1295.3" y="47.6"/>
      <point x="1285.3" y="0" type="curve"/>
      <point x="1322.3" y="0" type="line"/>
    </contour>
  </outline>
  <guideline angle="0" x="0" y="83"/>
  <guideline angle="82.9991" x="883" y="0"/>
</glyph>
<glyph name="Z" format="2">
  <advance width="1090.6"/>
  <unicode hex="005A"/>
  <guideline x="587.0" y="0.0" angle="82.9991"/>
  <anchor x="666.2" y="1498.9" name="Top"/>
  <anchor x="480.6" y="-70.0" name="bottom"/>
  <anchor x="666.2" y="1498.9" name="top"/>
  <outline>
    <contour>
      <point x="1100.0" y="1364.8" type="line" smooth="yes"/>
      <point x="1107.0" y="1374.4"/>
      <point x="1110.2" y="1378.6"/>
      <point x="1112.4" y="1386.8" type="curve"/>
      <point x="1115.6" y="1406.0" type="line"/>
      <point x="1071.6" y="1406.0" type="line"/>
      <point x="8.0" y="39.2" type="line"/>
      <point x="2.8" y="31.4"/>
      <point x="-0.40000000000000036" y="27.200000000000003"/>
      <point x="-2.6" y="19.0" type="curve"/>
      <point x="-5.6000000000000005" y="0.0" type="line"/>
      <point x="38.400000000000006" y="0.0" type="line"/>
    </contour>
    <contour>
      <point x="186.8" y="1406.0" type="line"/>
      <point x="180.0" y="1360.0" type="line"/>
      <point x="1079.0" y="1360.0" type="line"/>
      <point x="1115.6" y="1406.0" type="line"/>
    </contour>
    <contour>
      <point x="30.8" y="46.0" type="line"/>
      <point x="-5.6000000000000005" y="0.0" type="line"/>
      <point x="937.2" y="0.0" type="line"/>
      <point x="944.0" y="46.0" type="line"/>
    </contour>
  </outline>
</glyph>
<glyph name="bracketleft" format="2">
  <advance width="549"/>
  <unicode hex="005B"/>
  <outline>
    <contour>
      <point x="586.6" y="1507.6" type="line"/>
      <point x="317.8" y="1507.6" type="line" name="n01"/>
      <point x="323.6" y="1472" type="line" name="n02"/>
      <point x="564" y="1472" type="line" smooth="yes"/>
      <point x="575.6" y="1472"/>
      <point x="583" y="1479"/>
      <point x="585.2" y="1490.2" type="curve"/>
    </contour>
    <contour>
      <point x="371" y="-250.2" type="line"/>
      <point x="374.2" y="-233" type="line"/>
      <point x="374.8" y="-221.6"/>
      <point x="368.4" y="-214.6"/>
      <point x="356.8" y="-214.6" type="curve" smooth="yes"/>
      <point x="117.4" y="-214.6" type="line" name="n12"/>
      <point x="102.2" y="-250.2" type="line"/>
    </contour>
    <contour>
      <point x="362.6" y="1507.6" type="line"/>
      <point x="317.8" y="1507.6" type="line"/>
      <point x="102.2" y="-250.2" type="line"/>
      <point x="145" y="-250.2" type="line" name="n17"/>
    </contour>
  </outline>
  <guideline angle="82.9991" x="276" y="0"/>
</glyph>
<glyph name="backslash" format="2">
  <advance width="786"/>
  <unicode hex="005C"/>
  <outline>
    <contour>
      <point x="575.3" y="-58.4" type="line"/>
      <point x="578.9" y="-74.6"/>
      <point x="594.1" y="-80.4" name="n02"/>
      <point x="607.5" y="-80.4" type="curve" smooth="yes"/>
      <point x="627.3" y="-80.4" type="line"/>
      <point x="231.3" y="1420.6" type="line" smooth="yes"/>
      <point x="227.7" y="1434.4"/>
      <point x="217.3" y="1442" name="n07"/>
      <point x="201.3" y="1442" type="curve" smooth="yes"/>
      <point x="179.7" y="1442" type="line"/>
    </contour>
  </outline>
  <guideline angle="82.9991" x="315" y="0"/>
</glyph>
<glyph name="bracketright" format="2">
  <advance width="552"/>
  <unicode hex="005D"/>
  <outline>
    <contour>
      <point x="185.3" y="1490.2" type="line"/>
      <point x="183.1" y="1479"/>
      <point x="189.5" y="1472"/>
      <point x="202.9" y="1472" type="curve" smooth="yes"/>
      <point x="443.3" y="1472" type="line" name="n04"/>
      <point x="457.5" y="1507.6" type="line"/>
      <point x="186.9" y="1507.6" type="line"/>
    </contour>
    <contour>
      <point x="241.7" y="-250.2" type="line" name="n07"/>
      <point x="235.9" y="-214.6" type="line" name="n08"/>
      <point x="-4.5" y="-214.6" type="line" smooth="yes"/>
      <point x="-17.9" y="-214.6"/>
      <point x="-25.1" y="-221.6"/>
      <point x="-27.3" y="-233" type="curve"/>
      <point x="-28.9" y="-250.2" type="line"/>
    </contour>
    <contour>
      <point x="197.1" y="-250.2" type="line"/>
      <point x="241.7" y="-250.2" type="line"/>
      <point x="457.5" y="1507.6" type="line"/>
      <point x="412.9" y="1507.6" type="line" name="n17"/>
    </contour>
  </outline>
  <guideline angle="82.9991" x="276" y="0"/>
</glyph>
<glyph name="asciicircum" format="2">
  <advance width="1160.0"/>
  <unicode hex="005E"/>
  <guideline x="580.0" y="0.0" angle="82.9991"/>
  <outline>
    <contour>
      <point x="287.6" y="807.4" type="line"/>
      <point x="324.2" y="807.4" type="line" smooth="yes"/>
      <point x="337.2" y="807.4"/>
      <point x="345.0" y="816.8"/>
      <point x="350.0" y="825.0" type="curve"/>
      <point x="614.0" y="1302.8" type="line" smooth="yes"/>
      <point x="632.4" y="1336.6"/>
      <point x="642.6" y="1367.2"/>
      <point x="644.6" y="1406.0" type="curve"/>
      <point x="619.6" y="1406.0" type="line"/>
    </contour>
    <contour>
      <point x="650.6" y="1406.0" type="line"/>
      <point x="626.4" y="1406.0" type="line"/>
      <point x="628.2" y="1367.2"/>
      <point x="638.6" y="1336.8"/>
      <point x="657.4" y="1302.8" type="curve" smooth="yes"/>
      <point x="921.8" y="825.0" type="line"/>
      <point x="927.0" y="815.0"/>
      <point x="936.4" y="807.4"/>
      <point x="947.2" y="807.4" type="curve" smooth="yes"/>
      <point x="982.6" y="807.4" type="line"/>
    </contour>
  </outline>
</glyph>
<glyph name="underscore" format="2">
  <advance width="886"/>
  <unicode hex="005F"/>
  <outline>
    <contour>
      <point x="-21.2" y="-226.8" type="line" name="n00"/>
      <point x="-25.4" y="-266" type="line" name="n01"/>
      <point x="698.8" y="-266" type="line"/>
      <point x="704.8" y="-226.8" type="line"/>
    </contour>
  </outline>
  <guideline angle="82.9991" x="363" y="0"/>
</glyph>
<glyph name="b" format="2">
  <advance width="1018"/>
  <unicode hex="0062"/>
  <anchor x="293.5" y="1498.9" name="Top"/>
  <anchor x="262.2" y="1238" name="bar"/>
  <anchor x="410" y="-70" name="bottom"/>
  <anchor x="537.9" y="40.2" name="hook"/>
  <anchor x="585" y="1120" name="top"/>
  <outline>
    <contour>
      <point x="115.6" y="0" type="line" smooth="yes" name="n00"/>
      <point x="131.2" y="0"/>
      <point x="131.8" y="8"/>
      <point x="135.4" y="21" type="curve"/>
      <point x="160.1" y="172.5" type="line"/>
      <point x="164.1" y="183.3" type="line"/>
      <point x="318.2" y="1446" type="line" name="n06"/>
      <point x="268" y="1446" type="line"/>
      <point x="93.2" y="0" type="line"/>
    </contour>
    <contour>
      <point x="147.2" y="174.8" type="line"/>
      <point x="199.4" y="49.6"/>
      <point x="310.8" y="-12.4"/>
      <point x="431" y="-12.4" type="curve" smooth="yes" name="n12"/>
      <point x="725.8" y="-12.4"/>
      <point x="911.8" y="364.2"/>
      <point x="911.8" y="658.2" type="curve" smooth="yes"/>
      <point x="911.8" y="859"/>
      <point x="827.8" y="1000.2"/>
      <point x="654.2" y="1000.2" type="curve" smooth="yes" name="n18"/>
      <point x="460" y="1000.2"/>
      <point x="272.6" y="786.4"/>
      <point x="173" y="491.4" type="curve"/>
      <point x="188.8" y="455.8" type="line"/>
      <point x="293.6" y="760.8"/>
      <point x="469.8" y="957.6"/>
      <point x="641.8" y="957.6" type="curve" smooth="yes" name="n25"/>
      <point x="785" y="957.6"/>
      <point x="861.2" y="842.4"/>
      <point x="861.2" y="655" type="curve" smooth="yes"/>
      <point x="861.2" y="386"/>
      <point x="701.4" y="29.4"/>
      <point x="427.8" y="29.4" type="curve" smooth="yes" name="n31"/>
      <point x="319.4" y="29.4"/>
      <point x="215" y="80"/>
      <point x="155.4" y="220.8" type="curve"/>
    </contour>
  </outline>
  <guideline angle="82.9991" x="496" y="0"/>
</glyph>
<glyph name="e" format="2">
  <advance width="926.9"/>
  <unicode hex="0065"/>
  <guideline x="439.9" y="0.0" angle="82.9991"/>
  <anchor x="574.1" y="1120.0" name="top"/>
  <anchor x="433.2" y="-70.0" name="bottom"/>
  <anchor x="770.5" y="40.2" name="hook"/>
  <outline>
    <contour>
      <point x="124.4" y="469.8" type="line"/>
      <point x="714.6" y="531.8"/>
      <point x="823.8" y="650.8"/>
      <point x="823.8" y="810.6" type="curve" smooth="yes"/>
      <point x="823.8" y="881.4"/>
      <point x="764.6" y="1000.0"/>
      <point x="575.0" y="1000.0" type="curve" smooth="yes"/>
      <point x="262.4" y="1000.0"/>
      <point x="84.8" y="662.8"/>
      <point x="84.8" y="368.4" type="curve" smooth="yes"/>
      <point x="84.8" y="133.0"/>
      <point x="199.2" y="-12.4"/>
      <point x="416.4" y="-12.4" type="curve" smooth="yes"/>
      <point x="562.2" y="-12.4"/>
      <point x="670.2" y="46.2"/>
      <point x="798.2" y="183.0" type="curve"/>
      <point x="788.4" y="194.6" type="line" smooth="yes"/>
      <point x="783.4" y="199.8"/>
      <point x="779.6" y="201.0"/>
      <point x="774.0" y="201.0" type="curve" smooth="yes"/>
      <point x="736.0" y="201.0"/>
      <point x="646.0" y="29.8"/>
      <point x="424.4" y="29.8" type="curve" smooth="yes"/>
      <point x="230.8" y="29.8"/>
      <point x="134.8" y="158.6"/>
      <point x="134.8" y="369.2" type="curve" smooth="yes"/>
      <point x="135.0" y="640.2"/>
      <point x="289.2" y="960.2"/>
      <point x="573.2" y="960.2" type="curve" smooth="yes"/>
      <point x="726.6" y="960.2"/>
      <point x="779.6" y="870.4"/>
      <point x="779.6" y="809.4" type="curve" smooth="yes"/>
      <point x="779.6" y="683.8"/>
      <point x="704.4" y="569.4"/>
      <point x="131.6" y="507.8" type="curve"/>
    </contour>
  </outline>
</glyph>
<glyph name="f" format="2">
  <advance width="602.7"/>
  <unicode hex="0066"/>
  <guideline x="274.4" y="0.0" angle="82.9991"/>
  <anchor x="211.3" y="40.2" name="hook"/>
  <anchor x="570.4" y="1480.2" name="top"/>
  <anchor x="245.9" y="526.1" name="bar"/>
  <anchor x="483.0" y="1498.9" name="Top"/>
  <anchor x="115.9" y="-421.0" name="bottom"/>
  <outline>
    <contour>
      <point x="319.9" y="1087.6" type="line"/>
      <point x="346.7" y="1300.6"/>
      <point x="450.1" y="1380.8"/>
      <point x="575.5" y="1380.8" type="curve" smooth="yes"/>
      <point x="636.1" y="1380.8"/>
      <point x="666.9" y="1356.6"/>
      <point x="671.1" y="1376.2" type="curve"/>
      <point x="677.5" y="1399.8" type="line"/>
      <point x="650.1" y="1413.6"/>
      <point x="610.3" y="1421.4"/>
      <point x="575.1" y="1421.4" type="curve" smooth="yes"/>
      <point x="421.5" y="1421.4"/>
      <point x="299.1" y="1314.0"/>
      <point x="270.9" y="1088.6" type="curve" smooth="yes"/>
      <point x="107.1" y="-251.4" type="line"/>
      <point x="123.3" y="-251.4" type="line" smooth="yes"/>
      <point x="135.9" y="-251.4"/>
      <point x="145.7" y="-244.8"/>
      <point x="150.1" y="-227.8" type="curve"/>
      <point x="189.7" y="14.2" type="line"/>
      <point x="301.3" y="927.6" type="line"/>
      <point x="300.7" y="938.0" type="line"/>
    </contour>
    <contour>
      <point x="591.3" y="909.8" type="line"/>
      <point x="597.7" y="948.2" type="line"/>
      <point x="96.9" y="948.2" type="line"/>
      <point x="95.3" y="930.0" type="line" smooth="yes"/>
      <point x="94.7" y="920.0"/>
      <point x="99.3" y="916.0"/>
      <point x="110.3" y="915.0" type="curve"/>
      <point x="258.1" y="908.8" type="line"/>
      <point x="274.7" y="909.8" type="line"/>
    </contour>
  </outline>
</glyph>
<glyph name="g" format="2">
  <advance width="901.2"/>
  <unicode hex="0067"/>
  <guideline x="427.5"/>
  <guideline x="100.0" y="0.0" angle="82.9991"/>
  <anchor x="573.1" y="1120.0" name="top"/>
  <anchor x="348.2" y="-421.0" name="bottom"/>
  <outline>
    <contour>
      <point x="406.5" y="408.8" type="curve" smooth="yes"/>
      <point x="273.3" y="408.8"/>
      <point x="186.9" y="487.8"/>
      <point x="186.9" y="640.2" type="curve" smooth="yes"/>
      <point x="186.9" y="803.8"/>
      <point x="294.3" y="961.2"/>
      <point x="480.5" y="961.2" type="curve" smooth="yes"/>
      <point x="613.9" y="961.2"/>
      <point x="702.1" y="887.8"/>
      <point x="702.1" y="737.4" type="curve" smooth="yes"/>
      <point x="701.9" y="576.2"/>
      <point x="592.7" y="408.8"/>
    </contour>
    <contour>
      <point x="748.5" y="738.6" type="curve"/>
      <point x="748.5" y="907.0"/>
      <point x="639.9" y="1000.2"/>
      <point x="484.1" y="1000.2" type="curve" smooth="yes"/>
      <point x="266.3" y="1000.2"/>
      <point x="138.9" y="821.2"/>
      <point x="138.9" y="640.4" type="curve" smooth="yes"/>
      <point x="138.9" y="468.8"/>
      <point x="245.1" y="372.0"/>
      <point x="397.5" y="372.0" type="curve" smooth="yes"/>
      <point x="483.7" y="372.0"/>
      <point x="566.1" y="410.0"/>
      <point x="631.1" y="473.6" type="curve"/>
      <point x="633.1" y="493.8" type="line"/>
      <point x="534.9" y="379.4"/>
      <point x="513.5" y="324.2"/>
      <point x="513.5" y="265.0" type="curve"/>
      <point x="511.7" y="134.2"/>
      <point x="681.7" y="100.8"/>
      <point x="679.9" y="-66.6" type="curve" smooth="yes"/>
      <point x="678.1" y="-200.4"/>
      <point x="530.9" y="-334.4"/>
      <point x="304.3" y="-334.4" type="curve" smooth="yes"/>
      <point x="128.7" y="-334.4"/>
      <point x="7.100000000000001" y="-264.4"/>
      <point x="7.100000000000001" y="-139.2" type="curve"/>
      <point x="8.900000000000002" y="24.4"/>
      <point x="207.3" y="163.4"/>
      <point x="605.7" y="106.8" type="curve"/>
      <point x="594.1" y="140.8" type="line"/>
      <point x="236.1" y="198.0"/>
      <point x="-40.3" y="70.8"/>
      <point x="-42.1" y="-143.2" type="curve"/>
      <point x="-42.1" y="-291.6"/>
      <point x="100.3" y="-373.8"/>
      <point x="299.9" y="-373.8" type="curve" smooth="yes"/>
      <point x="554.1" y="-373.8"/>
      <point x="725.9" y="-222.6"/>
      <point x="727.9" y="-64.0" type="curve" smooth="yes"/>
      <point x="729.7" y="104.4"/>
      <point x="551.9" y="163.4"/>
      <point x="553.7" y="275.0" type="curve"/>
      <point x="553.7" y="418.2"/>
      <point x="744.9" y="504.2"/>
    </contour>
    <contour>
      <point x="668.7" y="909.6" type="line"/>
      <point x="880.9" y="917.2" type="line"/>
      <point x="896.7" y="918.6"/>
      <point x="902.3" y="926.6"/>
      <point x="902.9" y="934.2" type="curve" smooth="yes"/>
      <point x="904.3" y="951.6" type="line"/>
      <point x="631.7" y="951.6" type="line"/>
    </contour>
  </outline>
</glyph>
<glyph name="h" format="2">
  <advance width="1017"/>
  <unicode hex="0068"/>
  <anchor x="540.6" y="702.8" name="Slash"/>
  <anchor x="293.6" y="1498.9" name="Top"/>
  <anchor x="437.2" y="-70" name="bottom"/>
  <anchor x="293.6" y="1498.9" name="top"/>
  <outline>
    <contour>
      <point x="144" y="0" type="line" name="n00"/>
      <point x="318.8" y="1446" type="line" name="n01"/>
      <point x="268" y="1446" type="line"/>
      <point x="93.2" y="0" type="line"/>
    </contour>
    <contour>
      <point x="789.6" y="0" type="line"/>
      <point x="864" y="631.2" type="line"/>
      <point x="813.2" y="631.2" type="line"/>
      <point x="738.8" y="0" type="line"/>
    </contour>
    <contour>
      <point x="864" y="631.2" type="line"/>
      <point x="892.4" y="865.4"/>
      <point x="828.2" y="1000.2"/>
      <point x="656" y="1000.2" type="curve" smooth="yes" name="n11"/>
      <point x="473.6" y="1000.2"/>
      <point x="282.8" y="822.8"/>
      <point x="179.8" y="542.2" type="curve"/>
      <point x="193.8" y="505.8" type="line"/>
      <point x="301.6" y="781.2"/>
      <point x="479.6" y="956.8"/>
      <point x="642.2" y="956.8" type="curve" smooth="yes" name="n18"/>
      <point x="788.8" y="956.8"/>
      <point x="838" y="838.2"/>
      <point x="813.2" y="631.2" type="curve"/>
    </contour>
  </outline>
  <guideline angle="82.9991" x="502" y="0"/>
</glyph>
<glyph name="i" format="2">
  <advance width="404.6"/>
  <unicode hex="0069"/>
  <guideline x="218.7"/>
  <guideline x="100.0" y="0.0" angle="82.9991"/>
  <anchor x="156.9" y="40.2" name="hook"/>
  <anchor x="273.4" y="1498.9" name="Top"/>
  <anchor x="273.4" y="1498.9" name="top"/>
  <anchor x="125.0" y="-70.0" name="bottom"/>
  <outline>
    <contour>
      <point x="224.4" y="986.0" type="line"/>
      <point x="104.0" y="0.0" type="line"/>
      <point x="154.4" y="0.0" type="line"/>
      <point x="274.8" y="986.0" type="line"/>
    </contour>
    <contour>
      <point x="350.8" y="1341.6" type="curve"/>
      <point x="350.8" y="1379.0"/>
      <point x="318.6" y="1410.8"/>
      <point x="285.6" y="1410.8" type="curve" smooth="yes"/>
      <point x="251.2" y="1410.8"/>
      <point x="220.8" y="1378.8"/>
      <point x="220.8" y="1341.6" type="curve" smooth="yes"/>
      <point x="220.8" y="1306.2"/>
      <point x="251.0" y="1274.4"/>
      <point x="285.4" y="1274.4" type="curve" smooth="yes"/>
      <point x="318.2" y="1274.4"/>
      <point x="350.8" y="1306.2"/>
    </contour>
  </outline>
</glyph>
<glyph name="k" format="2">
  <advance width="851.9"/>
  <unicode hex="006B"/>
  <guideline x="425.4" y="0.0" angle="82.9991"/>
  <anchor x="720.0" y="40.2" name="hook"/>
  <anchor x="296.2" y="1498.9" name="Top"/>
  <anchor x="296.2" y="1498.9" name="top"/>
  <anchor x="389.7" y="-70.0" name="bottom"/>
  <outline>
    <contour>
      <point x="268.9" y="1446.0" type="line"/>
      <point x="92.1" y="0.0" type="line"/>
      <point x="142.5" y="0.0" type="line"/>
      <point x="319.3" y="1446.0" type="line"/>
    </contour>
    <contour>
      <point x="190.3" y="548.8" type="line"/>
      <point x="191.7" y="511.8" type="line"/>
      <point x="241.3" y="511.8" type="line" smooth="yes"/>
      <point x="277.5" y="511.8"/>
      <point x="291.3" y="505.8"/>
      <point x="308.9" y="482.6" type="curve" smooth="yes"/>
      <point x="676.1" y="16.2" type="line" smooth="yes"/>
      <point x="684.9" y="3.2"/>
      <point x="694.9" y="0.0"/>
      <point x="708.3" y="0.0" type="curve" smooth="yes"/>
      <point x="749.7" y="0.0" type="line"/>
      <point x="354.5" y="503.2" type="line"/>
      <point x="338.1" y="526.4"/>
      <point x="318.5" y="544.4"/>
      <point x="272.7" y="544.4" type="curve"/>
      <point x="268.3" y="526.0" type="line"/>
      <point x="304.5" y="526.0"/>
      <point x="323.7" y="536.0"/>
      <point x="348.5" y="558.8" type="curve"/>
      <point x="836.5" y="986.0" type="line"/>
      <point x="794.3" y="986.0" type="line" smooth="yes"/>
      <point x="775.5" y="986.0"/>
      <point x="763.7" y="978.8"/>
      <point x="752.1" y="966.4" type="curve"/>
      <point x="300.5" y="568.8" type="line" smooth="yes"/>
      <point x="282.1" y="551.6"/>
      <point x="271.3" y="548.8"/>
      <point x="249.9" y="548.8" type="curve" smooth="yes"/>
    </contour>
  </outline>
</glyph>
<glyph name="l" format="2">
  <advance width="401"/>
  <unicode hex="006C"/>
  <anchor x="311.2" y="1498.9" name="Top"/>
  <anchor x="216.9" y="705.6" name="bar"/>
  <anchor x="121.5" y="-70" name="bottom"/>
  <anchor x="158.1" y="40.2" name="hook"/>
  <anchor x="311.2" y="1498.9" name="top"/>
  <outline>
    <contour>
      <point x="152.6" y="0" type="line" name="n00"/>
      <point x="329.2" y="1446" type="line" name="n01"/>
      <point x="278.8" y="1446" type="line"/>
      <point x="104" y="0" type="line"/>
    </contour>
  </outline>
  <guideline angle="82.9991" x="212" y="0"/>
</glyph>
<glyph name="n" format="2">
  <advance width="1018.4"/>
  <unicode hex="006E"/>
  <guideline x="508.1"/>
  <guideline x="100.0" y="0.0" angle="82.9991"/>
  <anchor x="564.2" y="1120.0" name="top"/>
  <anchor x="783.1" y="40.2" name="hook"/>
  <anchor x="438.2" y="-70.0" name="bottom"/>
  <outline>
    <contour>
      <point x="144.1" y="0.0" type="line"/>
      <point x="213.7" y="591.4" type="line"/>
      <point x="212.9" y="596.8" type="line"/>
      <point x="252.5" y="967.0" type="line"/>
      <point x="252.5" y="979.4"/>
      <point x="246.9" y="989.6"/>
      <point x="231.5" y="989.6" type="curve" smooth="yes"/>
      <point x="211.9" y="989.6" type="line"/>
      <point x="93.3" y="0.0" type="line"/>
    </contour>
    <contour>
      <point x="791.5" y="0.0" type="line"/>
      <point x="865.9" y="631.2" type="line"/>
      <point x="815.1" y="631.2" type="line"/>
      <point x="740.7" y="0.0" type="line"/>
    </contour>
    <contour>
      <point x="865.9" y="631.2" type="line"/>
      <point x="894.3" y="865.4"/>
      <point x="828.3" y="1000.2"/>
      <point x="658.1" y="1000.2" type="curve" smooth="yes"/>
      <point x="475.5" y="1000.2"/>
      <point x="284.9" y="822.8"/>
      <point x="181.9" y="542.2" type="curve"/>
      <point x="195.7" y="505.8" type="line"/>
      <point x="301.7" y="781.2"/>
      <point x="479.7" y="956.6"/>
      <point x="644.3" y="956.6" type="curve" smooth="yes"/>
      <point x="790.7" y="956.6"/>
      <point x="839.9" y="838.2"/>
      <point x="815.1" y="631.2" type="curve"/>
    </contour>
  </outline>
</glyph>
<glyph name="o" format="2">
  <advance width="1021"/>
  <unicode hex="006F"/>
  <anchor x="429.1" y="-70" name="bottom"/>
  <anchor x="578.1" y="1120" name="top"/>
  <outline>
    <contour>
      <point x="435.8" y="29.6" type="curve" smooth="yes" name="n00"/>
      <point x="252" y="29.6"/>
      <point x="140.2" y="165"/>
      <point x="140.2" y="390" type="curve" smooth="yes"/>
      <point x="140.2" y="681.6"/>
      <point x="308.8" y="958.2"/>
      <point x="560.2" y="958.2" type="curve" smooth="yes" name="n06"/>
      <point x="742.2" y="958.2"/>
      <point x="855.8" y="824.8"/>
      <point x="855.8" y="599.6" type="curve" smooth="yes"/>
      <point x="855.8" y="311.8"/>
      <point x="687.2" y="29.6"/>
    </contour>
    <contour>
      <point x="431.2" y="-12.4" type="curve" smooth="yes" name="n12"/>
      <point x="716.6" y="-12.4"/>
      <point x="908.4" y="287.8"/>
      <point x="908.4" y="599.8" type="curve" smooth="yes"/>
      <point x="908.4" y="846"/>
      <point x="775.2" y="1000.2"/>
      <point x="564.8" y="1000.2" type="curve" smooth="yes" name="n18"/>
      <point x="279.4" y="1000.2"/>
      <point x="87.6" y="704"/>
      <point x="87.6" y="389.8" type="curve" smooth="yes"/>
      <point x="87.6" y="141.8"/>
      <point x="220.8" y="-12.4"/>
    </contour>
  </outline>
  <guideline angle="90" x="486" y="0"/>
  <guideline angle="82.9991" x="100" y="0"/>
</glyph>
<glyph name="p" format="2">
  <advance width="1019"/>
  <unicode hex="0070"/>
  <anchor x="92.7" y="-155.1" name="bar"/>
  <anchor x="464.1" y="-70" name="bottom"/>
  <anchor x="548.6" y="40.2" name="hook"/>
  <anchor x="604.7" y="53.5" name="tick"/>
  <anchor x="522.3" y="1120" name="top"/>
  <outline>
    <contour>
      <point x="98.7" y="-356.8" type="line" name="n00"/>
      <point x="211.1" y="560.8" type="line"/>
      <point x="210.3" y="566.2" type="line"/>
      <point x="253.5" y="967" type="line"/>
      <point x="253.5" y="979.4"/>
      <point x="247.9" y="989.6" name="n05"/>
      <point x="232.5" y="989.6" type="curve" smooth="yes"/>
      <point x="212.9" y="989.6" type="line"/>
      <point x="48.7" y="-356.8" type="line"/>
    </contour>
    <contour>
      <point x="148.1" y="174.8" type="line"/>
      <point x="200.3" y="49.6"/>
      <point x="311.7" y="-12.4"/>
      <point x="431.9" y="-12.4" type="curve" smooth="yes" name="n12"/>
      <point x="726.7" y="-12.4"/>
      <point x="912.7" y="364.2"/>
      <point x="912.7" y="658.2" type="curve" smooth="yes"/>
      <point x="912.7" y="859"/>
      <point x="828.7" y="1000.2"/>
      <point x="655.1" y="1000.2" type="curve" smooth="yes" name="n18"/>
      <point x="460.9" y="1000.2"/>
      <point x="273.5" y="786.4"/>
      <point x="173.9" y="491.4" type="curve"/>
      <point x="189.7" y="455.8" type="line"/>
      <point x="294.5" y="760.8"/>
      <point x="470.7" y="957.6"/>
      <point x="642.7" y="957.6" type="curve" smooth="yes" name="n25"/>
      <point x="785.9" y="957.6"/>
      <point x="862.1" y="842.4"/>
      <point x="862.1" y="655" type="curve" smooth="yes"/>
      <point x="862.1" y="386"/>
      <point x="702.3" y="29.4"/>
      <point x="428.7" y="29.4" type="curve" smooth="yes" name="n31"/>
      <point x="320.3" y="29.4"/>
      <point x="215.9" y="80"/>
      <point x="156.3" y="220.8" type="curve"/>
    </contour>
  </outline>
  <guideline angle="82.9991" x="492" y="0"/>
</glyph>
<glyph name="q" format="2">
  <advance width="986"/>
  <unicode hex="0071"/>
  <anchor x="415" y="-421" name="bottom"/>
  <anchor x="651.8" y="1120" name="top"/>
  <outline>
    <contour>
      <point x="706.7" y="-356.8" type="line" name="n00"/>
      <point x="865.7" y="950.6" type="line"/>
      <point x="815.3" y="949" type="line"/>
      <point x="657.5" y="-315.2" type="line" smooth="yes"/>
      <point x="653.3" y="-345"/>
      <point x="660.7" y="-356.8"/>
      <point x="682.7" y="-356.8" type="curve" smooth="yes"/>
    </contour>
    <contour>
      <point x="865.7" y="950.6" type="line"/>
      <point x="805.5" y="986.4"/>
      <point x="742.9" y="998.4"/>
      <point x="668.3" y="998.4" type="curve" smooth="yes" name="n10"/>
      <point x="354.3" y="998.4"/>
      <point x="76.9" y="669.4"/>
      <point x="76.9" y="329.2" type="curve" smooth="yes"/>
      <point x="76.9" y="127"/>
      <point x="151.9" y="-12.4"/>
      <point x="321.7" y="-12.4" type="curve" smooth="yes" name="n16"/>
      <point x="517.7" y="-12.4"/>
      <point x="689.9" y="203.2"/>
      <point x="789.3" y="498.2" type="curve"/>
      <point x="773.5" y="534.8" type="line"/>
      <point x="668.9" y="229.8"/>
      <point x="506.3" y="31.2"/>
      <point x="334.1" y="31.2" type="curve" smooth="yes" name="n23"/>
      <point x="191.5" y="31.2"/>
      <point x="129.5" y="147.4"/>
      <point x="129.5" y="335" type="curve" smooth="yes"/>
      <point x="129.5" y="655"/>
      <point x="384.5" y="958.2"/>
      <point x="663.9" y="958.2" type="curve" smooth="yes" name="n29"/>
      <point x="730.1" y="958.2"/>
      <point x="788.7" y="945"/>
      <point x="843.1" y="912.4" type="curve"/>
    </contour>
  </outline>
  <guideline angle="82.9991" x="477" y="0"/>
</glyph>
<glyph name="r" format="2">
  <advance width="643"/>
  <unicode hex="0072"/>
  <anchor x="175.2" y="526.1" name="bar"/>
  <anchor x="101.8" y="-70" name="bottom"/>
  <anchor x="139.1" y="40.2" name="hook"/>
  <anchor x="445.9" y="1120" name="top"/>
  <outline>
    <contour>
      <point x="143.4" y="0" type="line" name="n00"/>
      <point x="213.8" y="591.4" type="line"/>
      <point x="213" y="596.8" type="line"/>
      <point x="252.6" y="967" type="line"/>
      <point x="252.6" y="979.4"/>
      <point x="247" y="989.6" name="n05"/>
      <point x="231.6" y="989.6" type="curve" smooth="yes"/>
      <point x="212" y="989.6" type="line"/>
      <point x="93.2" y="0" type="line"/>
    </contour>
    <contour>
      <point x="193" y="489.4" type="line"/>
      <point x="297.6" y="831"/>
      <point x="455.8" y="1007.2"/>
      <point x="648.2" y="934.8" type="curve"/>
      <point x="657.4" y="981" type="line"/>
      <point x="463.8" y="1055.4"/>
      <point x="286.4" y="876.6"/>
      <point x="177.6" y="517.6" type="curve"/>
    </contour>
  </outline>
  <guideline angle="82.9991" x="323" y="0"/>
</glyph>
<glyph name="s" format="2">
  <advance width="779.6"/>
  <unicode hex="0073"/>
  <guideline x="384.2" y="0.0" angle="82.9991"/>
  <anchor x="473.5" y="1120.0" name="top"/>
  <anchor x="312.6" y="-70.0" name="bottom"/>
  <anchor x="486.5" y="40.2" name="hook"/>
  <outline>
    <contour>
      <point x="701.6" y="901.2" type="line"/>
      <point x="638.8" y="969.4"/>
      <point x="564.6" y="1000.2"/>
      <point x="459.0" y="1000.2" type="curve" smooth="yes"/>
      <point x="276.6" y="1000.2"/>
      <point x="136.4" y="868.0"/>
      <point x="136.4" y="720.8" type="curve" smooth="yes"/>
      <point x="136.4" y="448.4"/>
      <point x="592.2" y="552.6"/>
      <point x="592.2" y="299.2" type="curve" smooth="yes"/>
      <point x="592.2" y="148.6"/>
      <point x="474.6" y="22.0"/>
      <point x="302.0" y="22.0" type="curve" smooth="yes"/>
      <point x="127.6" y="22.0"/>
      <point x="79.0" y="130.2"/>
      <point x="59.8" y="130.2" type="curve" smooth="yes"/>
      <point x="52.6" y="130.2"/>
      <point x="48.4" y="126.8"/>
      <point x="43.0" y="120.4" type="curve" smooth="yes"/>
      <point x="30.0" y="103.0" type="line"/>
      <point x="93.6" y="31.0"/>
      <point x="166.2" y="-16.0"/>
      <point x="294.4" y="-16.0" type="curve" smooth="yes"/>
      <point x="501.8" y="-16.0"/>
      <point x="637.8" y="143.6"/>
      <point x="637.8" y="306.8" type="curve" smooth="yes"/>
      <point x="637.8" y="588.4"/>
      <point x="181.8" y="493.0"/>
      <point x="181.8" y="728.4" type="curve" smooth="yes"/>
      <point x="181.8" y="852.4"/>
      <point x="307.8" y="960.4"/>
      <point x="453.8" y="960.4" type="curve" smooth="yes"/>
      <point x="609.6" y="960.4"/>
      <point x="653.6" y="875.4"/>
      <point x="675.2" y="875.4" type="curve" smooth="yes"/>
      <point x="681.4" y="875.4"/>
      <point x="686.4" y="878.2"/>
      <point x="690.0" y="884.4" type="curve"/>
    </contour>
  </outline>
</glyph>
<glyph name="t" format="2">
  <advance width="668.3"/>
  <unicode hex="0074"/>
  <guideline x="321.8" y="0.0" angle="82.9991"/>
  <anchor x="302.7" y="-70.0" name="bottom"/>
  <anchor x="335.9" y="702.8" name="Slash"/>
  <anchor x="221.1" y="526.1" name="bar"/>
  <anchor x="298.0" y="1120.0" name="top"/>
  <outline>
    <contour>
      <point x="251.5" y="931.4" type="line"/>
      <point x="176.1" y="312.2" type="line" smooth="yes"/>
      <point x="161.9" y="198.0"/>
      <point x="160.1" y="168.8"/>
      <point x="160.1" y="154.2" type="curve" smooth="yes"/>
      <point x="160.7" y="36.6"/>
      <point x="219.3" y="-16.0"/>
      <point x="318.1" y="-16.0" type="curve" smooth="yes"/>
      <point x="390.7" y="-16.0"/>
      <point x="468.9" y="23.0"/>
      <point x="516.7" y="77.6" type="curve"/>
      <point x="508.1" y="96.6" type="line" smooth="yes"/>
      <point x="506.3" y="100.4"/>
      <point x="502.9" y="103.0"/>
      <point x="497.5" y="103.0" type="curve" smooth="yes"/>
      <point x="482.5" y="103.0"/>
      <point x="427.5" y="27.200000000000003"/>
      <point x="329.7" y="27.200000000000003" type="curve" smooth="yes"/>
      <point x="261.1" y="27.200000000000003"/>
      <point x="210.7" y="66.0"/>
      <point x="210.7" y="161.4" type="curve" smooth="yes"/>
      <point x="210.7" y="172.6"/>
      <point x="212.5" y="204.2"/>
      <point x="226.5" y="312.2" type="curve"/>
      <point x="353.1" y="1345.2" type="line"/>
      <point x="330.9" y="1345.2" type="line" smooth="yes"/>
      <point x="322.1" y="1345.2"/>
      <point x="315.3" y="1336.2"/>
      <point x="313.3" y="1327.6" type="curve"/>
    </contour>
    <contour>
      <point x="281.1" y="948.2" type="line"/>
      <point x="263.1" y="949.2" type="line"/>
      <point x="94.5" y="941.4" type="line"/>
      <point x="91.3" y="923.4" type="line"/>
      <point x="90.7" y="913.8"/>
      <point x="96.5" y="908.0"/>
      <point x="106.5" y="908.0" type="curve" smooth="yes"/>
      <point x="598.5" y="908.0" type="line"/>
      <point x="602.9" y="948.2" type="line"/>
    </contour>
  </outline>
</glyph>
<glyph name="u" format="2">
  <advance width="1018"/>
  <unicode hex="0075"/>
  <anchor x="483.4" y="-70" name="bottom"/>
  <anchor x="782.2" y="40.2" name="hook"/>
  <anchor x="574.8" y="1120" name="top"/>
  <outline>
    <contour>
      <point x="848.5" y="986" type="line" name="n00"/>
      <point x="778.1" y="398.2" type="line"/>
      <point x="778.9" y="380.2" type="line"/>
      <point x="737.5" y="23.2" type="line"/>
      <point x="737.5" y="10.6"/>
      <point x="743.1" y="0" name="n05"/>
      <point x="759.3" y="0" type="curve" smooth="yes"/>
      <point x="780.5" y="0" type="line"/>
      <point x="899.3" y="986" type="line"/>
    </contour>
    <contour>
      <point x="201.1" y="986" type="line"/>
      <point x="126.7" y="358.4" type="line"/>
      <point x="177.5" y="358.4" type="line"/>
      <point x="251.9" y="986" type="line"/>
    </contour>
    <contour>
      <point x="126.7" y="358.4" type="line"/>
      <point x="98.3" y="124.2"/>
      <point x="164.3" y="-12.4"/>
      <point x="334.5" y="-12.4" type="curve" smooth="yes" name="n16"/>
      <point x="517.1" y="-12.4"/>
      <point x="707.7" y="166.8"/>
      <point x="810.7" y="447.4" type="curve"/>
      <point x="796.9" y="483.8" type="line"/>
      <point x="690.9" y="208.4"/>
      <point x="512.9" y="31.2"/>
      <point x="348.3" y="31.2" type="curve" smooth="yes" name="n23"/>
      <point x="201.9" y="31.2"/>
      <point x="152.7" y="151.4"/>
      <point x="177.5" y="358.4" type="curve"/>
    </contour>
  </outline>
  <guideline angle="82.9991" x="498" y="0"/>
</glyph>
<glyph name="v" format="2">
  <advance width="911"/>
  <unicode hex="0076"/>
  <anchor x="379" y="-70" name="bottom"/>
  <anchor x="429.3" y="40.2" name="hook"/>
  <anchor x="514.2" y="1120" name="top"/>
  <outline>
    <contour>
      <point x="362.9" y="0" type="line" name="n00"/>
      <point x="391.5" y="0" type="line"/>
      <point x="391.5" y="40.4"/>
      <point x="389.3" y="77"/>
      <point x="381.1" y="115.2" type="curve"/>
      <point x="151.1" y="967.8" type="line" smooth="yes"/>
      <point x="148.7" y="976.4"/>
      <point x="142.5" y="986" name="n07"/>
      <point x="129.3" y="986" type="curve" smooth="yes"/>
      <point x="92.9" y="986" type="line"/>
    </contour>
    <contour>
      <point x="914.7" y="986" type="line"/>
      <point x="879.3" y="986" type="line" smooth="yes"/>
      <point x="867.6" y="986"/>
      <point x="858.1" y="978.2"/>
      <point x="853.1" y="967.8" type="curve"/>
      <point x="413.7" y="115.2" type="line"/>
      <point x="395.3" y="74.8"/>
      <point x="383.5" y="40.4"/>
      <point x="375.7" y="0" type="curve"/>
      <point x="403.5" y="0" type="line"/>
    </contour>
  </outline>
  <guideline angle="82.9991" x="430" y="0"/>
</glyph>
<glyph name="w" format="2">
  <advance width="1391.4"/>
  <unicode hex="0077"/>
  <guideline x="666.8" y="0.0" angle="82.9991"/>
  <anchor x="749.5" y="1120.0" name="top"/>
  <anchor x="618.4" y="-70.0" name="bottom"/>
  <outline>
    <contour>
      <point x="290.3" y="0.0" type="line"/>
      <point x="322.5" y="0.0" type="line" smooth="yes"/>
      <point x="329.1" y="0.0"/>
      <point x="334.9" y="5.4"/>
      <point x="338.1" y="14.4" type="curve"/>
      <point x="721.5" y="884.8" type="line"/>
      <point x="733.7" y="911.8"/>
      <point x="740.5" y="937.0"/>
      <point x="746.5" y="964.0" type="curve"/>
      <point x="735.3" y="964.0" type="line"/>
      <point x="734.9" y="937.0"/>
      <point x="734.9" y="912.0"/>
      <point x="740.3" y="885.0" type="curve"/>
      <point x="908.1" y="14.4" type="line"/>
      <point x="908.7" y="5.2"/>
      <point x="913.9" y="0.0"/>
      <point x="921.7" y="0.0" type="curve" smooth="yes"/>
      <point x="954.9" y="0.0" type="line"/>
      <point x="1382.3" y="986.0" type="line"/>
      <point x="1348.7" y="986.0" type="line" smooth="yes"/>
      <point x="1337.9" y="986.0"/>
      <point x="1329.1" y="978.2"/>
      <point x="1324.5" y="967.8" type="curve"/>
      <point x="962.5" y="115.2" type="line" smooth="yes"/>
      <point x="947.1" y="74.4"/>
      <point x="932.3" y="44.0"/>
      <point x="925.3" y="3.6" type="curve"/>
      <point x="940.7" y="1.8" type="line"/>
      <point x="941.9" y="42.2"/>
      <point x="938.3" y="76.8"/>
      <point x="932.1" y="115.2" type="curve" smooth="yes"/>
      <point x="767.7" y="976.8" type="line"/>
      <point x="767.3" y="985.4"/>
      <point x="762.7" y="991.4"/>
      <point x="753.1" y="991.4" type="curve" smooth="yes"/>
      <point x="736.1" y="991.4" type="line" smooth="yes"/>
      <point x="727.1" y="991.4"/>
      <point x="720.1" y="985.4"/>
      <point x="717.1" y="976.8" type="curve"/>
      <point x="341.5" y="115.2" type="line" smooth="yes"/>
      <point x="325.1" y="76.6"/>
      <point x="311.7" y="44.0"/>
      <point x="303.9" y="3.6" type="curve"/>
      <point x="318.7" y="3.6" type="line"/>
      <point x="319.7" y="44.0"/>
      <point x="317.7" y="76.6"/>
      <point x="312.9" y="115.2" type="curve" smooth="yes"/>
      <point x="158.7" y="967.8" type="line" smooth="yes"/>
      <point x="156.3" y="980.0"/>
      <point x="149.9" y="986.0"/>
      <point x="136.9" y="986.0" type="curve" smooth="yes"/>
      <point x="104.1" y="986.0" type="line"/>
    </contour>
  </outline>
</glyph>
<glyph name="x" format="2">
  <advance width="843.3"/>
  <unicode hex="0078"/>
  <guideline x="405.4" y="0.0" angle="82.9991"/>
  <anchor x="694.5" y="40.2" name="hook"/>
  <anchor x="480.8" y="1120.0" name="top"/>
  <anchor x="345.0" y="-70.0" name="bottom"/>
  <outline>
    <contour>
      <point x="389.5" y="514.6" type="line"/>
      <point x="441.5" y="514.6" type="line"/>
      <point x="190.3" y="975.0" type="line"/>
      <point x="185.5" y="983.2"/>
      <point x="180.5" y="986.0"/>
      <point x="167.5" y="986.0" type="curve" smooth="yes"/>
      <point x="128.3" y="986.0" type="line"/>
    </contour>
    <contour>
      <point x="813.1" y="986.0" type="line"/>
      <point x="768.7" y="986.0" type="line" smooth="yes"/>
      <point x="760.5" y="986.0"/>
      <point x="754.9" y="982.8"/>
      <point x="749.5" y="974.4" type="curve"/>
      <point x="431.7" y="571.0" type="line" smooth="yes"/>
      <point x="416.7" y="551.4"/>
      <point x="411.9" y="536.2"/>
      <point x="408.5" y="514.6" type="curve"/>
      <point x="439.1" y="514.6" type="line"/>
    </contour>
    <contour>
      <point x="440.3" y="534.6" type="line"/>
      <point x="388.1" y="534.6" type="line"/>
      <point x="666.3" y="14.600000000000001" type="line"/>
      <point x="671.1" y="4.4"/>
      <point x="678.7" y="0.0"/>
      <point x="691.7" y="0.0" type="curve" smooth="yes"/>
      <point x="730.9" y="0.0" type="line"/>
    </contour>
    <contour>
      <point x="-32.9" y="0.0" type="line"/>
      <point x="8.900000000000002" y="0.0" type="line" smooth="yes"/>
      <point x="19.900000000000002" y="0.0"/>
      <point x="25.900000000000002" y="4.6"/>
      <point x="33.3" y="12.8" type="curve"/>
      <point x="397.3" y="477.0" type="line" smooth="yes"/>
      <point x="410.9" y="494.6"/>
      <point x="415.1" y="511.2"/>
      <point x="420.3" y="534.6" type="curve"/>
      <point x="390.7" y="534.6" type="line"/>
    </contour>
  </outline>
</glyph>
<glyph name="y" format="2">
  <advance width="913"/>
  <unicode hex="0079"/>
  <anchor x="298.6" y="-421" name="bottom"/>
  <anchor x="544.9" y="1120" name="top"/>
  <outline>
    <contour>
      <point x="370.5" y="7.2" type="line"/>
      <point x="397.3" y="7.2" type="line"/>
      <point x="398.3" y="47.8"/>
      <point x="397.5" y="86.6"/>
      <point x="388.3" y="124.2" type="curve"/>
      <point x="154.3" y="967.8" type="line"/>
      <point x="151.7" y="979.8"/>
      <point x="146.1" y="986" name="n07"/>
      <point x="132.7" y="986" type="curve" smooth="yes"/>
      <point x="95.7" y="986" type="line"/>
    </contour>
    <contour>
      <point x="919.5" y="986" type="line"/>
      <point x="881.9" y="986" type="line" smooth="yes"/>
      <point x="873.3" y="986"/>
      <point x="864.5" y="981.8"/>
      <point x="859.3" y="971.4" type="curve" smooth="yes"/>
      <point x="417.1" y="124.4" type="line"/>
      <point x="403.5" y="96.2"/>
      <point x="389.9" y="66"/>
      <point x="383.9" y="37.6" type="curve"/>
      <point x="373.1" y="39" type="line"/>
      <point x="160.7" y="-356.8" type="line" name="n20"/>
      <point x="194.7" y="-356.8" type="line" smooth="yes"/>
      <point x="208.1" y="-356.8"/>
      <point x="216.5" y="-351.2"/>
      <point x="224.1" y="-336.2" type="curve" smooth="yes"/>
    </contour>
  </outline>
  <guideline angle="82.9991" x="430" y="0"/>
</glyph>
<glyph name="z" format="2">
  <advance width="816"/>
  <unicode hex="007A"/>
  <anchor x="327.6" y="-70" name="bottom"/>
  <anchor x="632" y="40.2" name="hook"/>
  <anchor x="487.8" y="1120" name="top"/>
  <outline>
    <contour>
      <point x="794.4" y="986" type="line"/>
      <point x="146.2" y="986" type="line" name="n01"/>
      <point x="139.8" y="944" type="line" name="n02"/>
      <point x="744.4" y="944" type="line"/>
      <point x="732" y="952" type="line"/>
      <point x="8" y="41.8" type="line"/>
      <point x="1.6" y="34.8"/>
      <point x="-4" y="26.6"/>
      <point x="-4.2" y="18.6" type="curve"/>
      <point x="-5.8" y="0" type="line"/>
      <point x="647.8" y="0" type="line" name="n10"/>
      <point x="652.4" y="42" type="line" name="n11"/>
      <point x="42" y="42" type="line"/>
      <point x="54.8" y="31.6" type="line"/>
      <point x="778.8" y="941.6" type="line"/>
      <point x="786.5" y="949.9"/>
      <point x="790.6" y="956"/>
      <point x="791" y="964" type="curve"/>
    </contour>
  </outline>
  <guideline angle="82.9991" x="410" y="0"/>
</glyph>
<glyph name="braceleft" format="2">
  <advance width="546.9"/>
  <unicode hex="007B"/>
  <guideline y="630.1"/>
  <guideline x="276.0" y="0.0" angle="82.9991"/>
  <outline>
    <contour>
      <point x="270.9" y="877.2" type="curve" smooth="yes"/>
      <point x="270.9" y="721.4"/>
      <point x="193.3" y="646.4"/>
      <point x="95.3" y="646.4" type="curve"/>
      <point x="91.3" y="611.0" type="line"/>
      <point x="125.9" y="625.6" type="line"/>
      <point x="200.3" y="625.6"/>
      <point x="313.7" y="692.6"/>
      <point x="315.3" y="863.4" type="curve" smooth="yes"/>
      <point x="316.7" y="958.2"/>
      <point x="299.5" y="1077.2"/>
      <point x="301.3" y="1178.4" type="curve" smooth="yes"/>
      <point x="302.5" y="1369.2"/>
      <point x="403.5" y="1472.0"/>
      <point x="524.5" y="1472.0" type="curve" smooth="yes"/>
      <point x="560.3" y="1472.0" type="line"/>
      <point x="569.5" y="1472.0"/>
      <point x="577.5" y="1477.2"/>
      <point x="579.7" y="1486.8" type="curve"/>
      <point x="581.3" y="1507.6" type="line"/>
      <point x="529.9" y="1507.6" type="line" smooth="yes"/>
      <point x="370.1" y="1507.6"/>
      <point x="254.5" y="1373.6"/>
      <point x="254.5" y="1164.6" type="curve" smooth="yes"/>
      <point x="254.5" y="1075.4"/>
      <point x="270.9" y="966.2"/>
    </contour>
    <contour>
      <point x="225.5" y="475.0" type="curve"/>
      <point x="225.5" y="305.6"/>
      <point x="107.3" y="166.0"/>
      <point x="107.3" y="-18.4" type="curve" smooth="yes"/>
      <point x="107.3" y="-148.0"/>
      <point x="184.1" y="-250.2"/>
      <point x="314.1" y="-250.2" type="curve" smooth="yes"/>
      <point x="365.7" y="-250.2" type="line"/>
      <point x="369.1" y="-229.6" type="line"/>
      <point x="369.7" y="-220.0"/>
      <point x="362.3" y="-214.6"/>
      <point x="354.7" y="-214.6" type="curve" smooth="yes"/>
      <point x="317.1" y="-214.6" type="line" smooth="yes"/>
      <point x="218.9" y="-214.6"/>
      <point x="153.1" y="-136.2"/>
      <point x="153.1" y="-19.6" type="curve" smooth="yes"/>
      <point x="153.1" y="158.0"/>
      <point x="268.5" y="311.6"/>
      <point x="268.5" y="476.2" type="curve" smooth="yes"/>
      <point x="268.5" y="576.8"/>
      <point x="191.9" y="631.6"/>
      <point x="126.3" y="631.6" type="curve"/>
      <point x="95.3" y="646.4" type="line"/>
      <point x="91.3" y="611.0" type="line"/>
      <point x="171.1" y="611.0"/>
      <point x="225.5" y="554.6"/>
    </contour>
  </outline>
</glyph>
<glyph name="bar" format="2">
  <advance width="476.2"/>
  <unicode hex="007C"/>
  <guideline x="300.0" y="0.0" angle="82.9991"/>
  <outline>
    <contour>
      <point x="214.8" y="-356.8" type="line"/>
      <point x="256.8" y="-356.8" type="line"/>
      <point x="256.8" y="1507.8" type="line"/>
      <point x="214.8" y="1507.8" type="line"/>
    </contour>
  </outline>
</glyph>
<glyph name="braceright" format="2">
  <advance width="549"/>
  <unicode hex="007D"/>
  <outline>
    <contour>
      <point x="332.2" y="782.4" type="curve" smooth="yes"/>
      <point x="332.2" y="951.6"/>
      <point x="448.4" y="1091.4"/>
      <point x="448.4" y="1275.6" type="curve" smooth="yes"/>
      <point x="448.4" y="1405.4"/>
      <point x="371.6" y="1507.6"/>
      <point x="241.8" y="1507.6" type="curve" smooth="yes" name="n06"/>
      <point x="190.2" y="1507.6" type="line"/>
      <point x="188.6" y="1486.8" type="line"/>
      <point x="186.2" y="1477.2"/>
      <point x="193.6" y="1472"/>
      <point x="203" y="1472" type="curve" smooth="yes"/>
      <point x="238.8" y="1472" type="line" smooth="yes" name="n12"/>
      <point x="337" y="1472"/>
      <point x="402.8" y="1393.6"/>
      <point x="402.8" y="1277" type="curve" smooth="yes"/>
      <point x="402.8" y="1099.4"/>
      <point x="287.2" y="945.6"/>
      <point x="287.2" y="781.2" type="curve" smooth="yes"/>
      <point x="287.2" y="680.4"/>
      <point x="363.8" y="625.6"/>
      <point x="431.4" y="625.6" type="curve"/>
      <point x="460.6" y="611" type="line"/>
      <point x="466.2" y="646.4" type="line"/>
      <point x="384.6" y="646.4"/>
      <point x="332.2" y="702.8"/>
    </contour>
    <contour>
      <point x="285" y="380" type="curve" smooth="yes"/>
      <point x="285" y="536"/>
      <point x="364.4" y="611"/>
      <point x="460.6" y="611" type="curve"/>
      <point x="466.2" y="646.4" type="line"/>
      <point x="431.6" y="631.6" type="line"/>
      <point x="355.6" y="631.6"/>
      <point x="243.8" y="564.6"/>
      <point x="242.4" y="393.8" type="curve" smooth="yes"/>
      <point x="241" y="299.2"/>
      <point x="256.4" y="180"/>
      <point x="254.6" y="79" type="curve"/>
      <point x="253.4" y="-111.8"/>
      <point x="152.4" y="-214.6"/>
      <point x="31.4" y="-214.6" type="curve" smooth="yes" name="n40"/>
      <point x="-4.4" y="-214.6" type="line" smooth="yes"/>
      <point x="-13.8" y="-214.6"/>
      <point x="-21.6" y="-220"/>
      <point x="-22" y="-229.6" type="curve"/>
      <point x="-25.6" y="-250.2" type="line"/>
      <point x="26" y="-250.2" type="line" smooth="yes" name="n46"/>
      <point x="185.6" y="-250.2"/>
      <point x="301.2" y="-116.2"/>
      <point x="301.2" y="92.8" type="curve" smooth="yes"/>
      <point x="301.2" y="182"/>
      <point x="285" y="291.2"/>
    </contour>
  </outline>
  <guideline angle="0" x="0" y="630"/>
  <guideline angle="82.9991" x="276" y="0"/>
</glyph>
<glyph name="asciitilde" format="2">
  <advance width="1160"/>
  <unicode hex="007E"/>
  <outline>
    <contour>
      <point x="790.1" y="543.6" type="curve" smooth="yes" name="n00"/>
      <point x="667.7" y="543.6"/>
      <point x="505.9" y="680.4"/>
      <point x="369.3" y="680.4" type="curve" smooth="yes" name="n03"/>
      <point x="231.5" y="680.4"/>
      <point x="152.7" y="572.6"/>
      <point x="152.7" y="445" type="curve" name="n06"/>
      <point x="195.7" y="445" type="line"/>
      <point x="197.5" y="553.6"/>
      <point x="264.1" y="636.8"/>
      <point x="371.3" y="636.8" type="curve" smooth="yes" name="n10"/>
      <point x="493.7" y="636.8"/>
      <point x="655.5" y="500"/>
      <point x="792.1" y="500" type="curve" smooth="yes" name="n13"/>
      <point x="929.9" y="500"/>
      <point x="1008.7" y="607.8"/>
      <point x="1008.7" y="735.4" type="curve" name="n16"/>
      <point x="965.7" y="735.4" type="line"/>
      <point x="963.9" y="626.8"/>
      <point x="897.3" y="543.6"/>
    </contour>
  </outline>
  <guideline angle="82.9991" x="580" y="0"/>
</glyph>
<glyph name="exclamdown" format="2">
  <advance width="411"/>
  <unicode hex="00A1"/>
  <outline>
    <contour>
      <point x="85.6" y="-357" type="line" name="n00"/>
      <point x="153.4" y="198" type="line" smooth="yes"/>
      <point x="167.4" y="316.4"/>
      <point x="177.8" y="397"/>
      <point x="196" y="551.6" type="curve"/>
      <point x="203.8" y="551.6" type="line"/>
      <point x="184.8" y="397"/>
      <point x="174" y="316.4"/>
      <point x="159.8" y="198" type="curve" smooth="yes"/>
      <point x="92.2" y="-357" type="line"/>
    </contour>
    <contour>
      <point x="165.2" y="925" type="curve" smooth="yes"/>
      <point x="165.2" y="882.6"/>
      <point x="198" y="849.8"/>
      <point x="240.4" y="849.8" type="curve" smooth="yes" name="n13"/>
      <point x="282.6" y="849.8"/>
      <point x="317.4" y="882.6"/>
      <point x="317.4" y="925" type="curve" smooth="yes"/>
      <point x="317.4" y="967.2"/>
      <point x="282.6" y="1002"/>
      <point x="240.4" y="1002" type="curve" smooth="yes" name="n19"/>
      <point x="198" y="1002"/>
      <point x="165.2" y="967.2"/>
    </contour>
  </outline>
  <guideline angle="90" x="281" y="0"/>
  <guideline angle="82.9991" x="100" y="0"/>
</glyph>
<glyph name="cent" format="2">
  <advance width="1160.0"/>
  <unicode hex="00A2"/>
  <guideline x="580.0" y="0.0" angle="82.9991"/>
  <outline>
    <contour>
      <point x="1007.9" y="894.6" type="line"/>
      <point x="941.3" y="958.4"/>
      <point x="840.9" y="1001.6"/>
      <point x="706.9" y="1001.6" type="curve" smooth="yes"/>
      <point x="370.7" y="1001.6"/>
      <point x="160.5" y="762.6"/>
      <point x="160.5" y="413.8" type="curve" smooth="yes"/>
      <point x="160.5" y="149.0"/>
      <point x="313.3" y="-12.4"/>
      <point x="561.9" y="-12.4" type="curve" smooth="yes"/>
      <point x="728.9" y="-12.4"/>
      <point x="872.3" y="54.0"/>
      <point x="929.7" y="120.4" type="curve"/>
      <point x="919.1" y="134.8" type="line" smooth="yes"/>
      <point x="916.3" y="138.2"/>
      <point x="914.5" y="140.8"/>
      <point x="908.5" y="140.8" type="curve" smooth="yes"/>
      <point x="887.3" y="140.8"/>
      <point x="794.9" y="28.200000000000003"/>
      <point x="570.9" y="28.200000000000003" type="curve" smooth="yes"/>
      <point x="349.3" y="28.200000000000003"/>
      <point x="211.5" y="172.4"/>
      <point x="211.5" y="417.0" type="curve" smooth="yes"/>
      <point x="211.5" y="748.8"/>
      <point x="400.7" y="961.0"/>
      <point x="703.3" y="961.0" type="curve" smooth="yes"/>
      <point x="896.1" y="961.0"/>
      <point x="958.1" y="871.6"/>
      <point x="978.1" y="871.6" type="curve" smooth="yes"/>
      <point x="984.7" y="871.6"/>
      <point x="988.1" y="874.4"/>
      <point x="993.5" y="878.6" type="curve"/>
    </contour>
    <contour>
      <point x="498.9" y="-262.2" type="line"/>
      <point x="518.9" y="-262.2" type="line" smooth="yes"/>
      <point x="530.5" y="-262.2"/>
      <point x="537.7" y="-253.2"/>
      <point x="540.3" y="-240.4" type="curve"/>
      <point x="780.1" y="1244.2" type="line"/>
      <point x="760.1" y="1244.2" type="line" smooth="yes"/>
      <point x="748.5" y="1244.2"/>
      <point x="741.3" y="1235.0"/>
      <point x="738.7" y="1222.4" type="curve"/>
    </contour>
  </outline>
</glyph>
<glyph name="sterling" format="2">
  <advance width="1160.0"/>
  <unicode hex="00A3"/>
  <guideline x="580.0" y="0.0" angle="82.9991"/>
  <outline>
    <contour>
      <point x="1030.2" y="45.400000000000006" type="line"/>
      <point x="184.6" y="45.400000000000006" type="line" smooth="yes"/>
      <point x="142.0" y="45.400000000000006"/>
      <point x="104.6" y="41.0"/>
      <point x="58.6" y="30.200000000000003" type="curve"/>
      <point x="30.2" y="38.6" type="line"/>
      <point x="26.0" y="0.0" type="line"/>
      <point x="1000.0" y="0.0" type="line" smooth="yes"/>
      <point x="1014.8" y="0.0"/>
      <point x="1027.8" y="12.4"/>
      <point x="1028.6" y="23.8" type="curve" smooth="yes"/>
    </contour>
    <contour>
      <point x="838.3" y="660.2" type="curve"/>
      <point x="839.7" y="679.6" type="line"/>
      <point x="105.1" y="679.6" type="line"/>
      <point x="91.3" y="679.6"/>
      <point x="84.0" y="672.2"/>
      <point x="82.6" y="661.4" type="curve" smooth="yes"/>
      <point x="80.2" y="642.0" type="line"/>
      <point x="814.9" y="642.0" type="line"/>
      <point x="828.7" y="642.0"/>
      <point x="836.1" y="649.4"/>
    </contour>
    <contour>
      <point x="69.8" y="21.200000000000003" type="line"/>
      <point x="191.2" y="75.0"/>
      <point x="253.3" y="141.2"/>
      <point x="271.2" y="286.4" type="curve" smooth="yes"/>
      <point x="357.2" y="993.0" type="line" smooth="yes"/>
      <point x="385.0" y="1219.4"/>
      <point x="534.8" y="1378.4"/>
      <point x="762.2" y="1378.4" type="curve" smooth="yes"/>
      <point x="954.2" y="1378.4"/>
      <point x="1009.2" y="1288.2"/>
      <point x="1050.0" y="1196.0" type="curve" smooth="yes"/>
      <point x="1057.4" y="1182.4"/>
      <point x="1066.2" y="1180.6"/>
      <point x="1079.0" y="1185.2" type="curve"/>
      <point x="1101.0" y="1195.0" type="line"/>
      <point x="1062.8" y="1318.8"/>
      <point x="977.6" y="1421.8"/>
      <point x="767.0" y="1421.8" type="curve" smooth="yes"/>
      <point x="504.6" y="1421.8"/>
      <point x="335.2" y="1239.6"/>
      <point x="305.0" y="992.8" type="curve" smooth="yes"/>
      <point x="217.8" y="278.0" type="line"/>
      <point x="198.6" y="129.6"/>
      <point x="129.2" y="78.0"/>
      <point x="30.2" y="38.6" type="curve"/>
    </contour>
  </outline>
</glyph>
<glyph name="currency" format="2">
  <advance width="1160.0"/>
  <unicode hex="00A4"/>
  <guideline x="580.0" y="0.0" angle="82.9991"/>
  <outline>
    <contour>
      <point x="245.6" y="670.4" type="curve" smooth="yes"/>
      <point x="245.6" y="485.4"/>
      <point x="395.6" y="335.4"/>
      <point x="580.6" y="335.4" type="curve" smooth="yes"/>
      <point x="767.2" y="335.4"/>
      <point x="917.4" y="485.4"/>
      <point x="917.4" y="670.4" type="curve" smooth="yes"/>
      <point x="917.4" y="857.2"/>
      <point x="767.2" y="1007.2"/>
      <point x="580.6" y="1007.2" type="curve" smooth="yes"/>
      <point x="395.6" y="1007.2"/>
      <point x="245.6" y="857.2"/>
    </contour>
    <contour>
      <point x="286.4" y="670.4" type="curve"/>
      <point x="286.4" y="833.8"/>
      <point x="419.2" y="966.6"/>
      <point x="580.6" y="966.6" type="curve" smooth="yes"/>
      <point x="744.0" y="966.6"/>
      <point x="876.8" y="833.8"/>
      <point x="876.8" y="670.4" type="curve" smooth="yes"/>
      <point x="876.8" y="509.2"/>
      <point x="744.0" y="376.2"/>
      <point x="580.6" y="376.2" type="curve" smooth="yes"/>
      <point x="419.2" y="376.2"/>
      <point x="286.4" y="509.2"/>
    </contour>
    <contour>
      <point x="343.6" y="878.8" type="line"/>
      <point x="371.8" y="906.8" type="line"/>
      <point x="201.6" y="1077.0" type="line"/>
      <point x="173.4" y="1049.0" type="line"/>
    </contour>
    <contour>
      <point x="789.0" y="907.4" type="line"/>
      <point x="817.0" y="879.2" type="line"/>
      <point x="987.2" y="1049.4" type="line"/>
      <point x="959.2" y="1077.6" type="line"/>
    </contour>
    <contour>
      <point x="372.4" y="433.4" type="line"/>
      <point x="344.2" y="461.6" type="line"/>
      <point x="174.0" y="291.4" type="line"/>
      <point x="202.0" y="263.2" type="line"/>
    </contour>
    <contour>
      <point x="817.6" y="462.2" type="line"/>
      <point x="789.4" y="434.0" type="line"/>
      <point x="959.6" y="263.8" type="line"/>
      <point x="987.8" y="292.0" type="line"/>
    </contour>
  </outline>
</glyph>
<glyph name="yen" format="2">
  <advance width="1160.0"/>
  <unicode hex="00A5"/>
  <guideline x="580.0" y="0.0" angle="82.9991"/>
  <outline>
    <contour>
      <point x="1143.2" y="1405.8" type="line"/>
      <point x="1100.0" y="1405.8" type="line" smooth="yes"/>
      <point x="1089.2" y="1405.8"/>
      <point x="1081.6" y="1400.4"/>
      <point x="1074.2" y="1391.2" type="curve"/>
      <point x="603.4" y="673.8" type="line"/>
      <point x="586.0" y="643.4"/>
      <point x="576.2" y="623.8"/>
      <point x="564.6" y="585.4" type="curve"/>
      <point x="597.6" y="585.4" type="line"/>
    </contour>
    <contour>
      <point x="550.2" y="585.4" type="line"/>
      <point x="584.2" y="585.4" type="line"/>
      <point x="584.0" y="624.0"/>
      <point x="576.2" y="643.2"/>
      <point x="566.2" y="673.8" type="curve"/>
      <point x="271.2" y="1391.2" type="line"/>
      <point x="268.2" y="1401.0"/>
      <point x="261.4" y="1405.8"/>
      <point x="250.6" y="1405.8" type="curve" smooth="yes"/>
      <point x="207.6" y="1405.8" type="line"/>
    </contour>
    <contour>
      <point x="602.6" y="608.2" type="line"/>
      <point x="551.0" y="608.2" type="line"/>
      <point x="477.0" y="0.0" type="line"/>
      <point x="528.4" y="0.0" type="line"/>
    </contour>
    <contour>
      <point x="148.6" y="418.0" type="line"/>
      <point x="959.2" y="418.0" type="line"/>
      <point x="963.0" y="452.6" type="line"/>
      <point x="152.6" y="452.6" type="line"/>
    </contour>
    <contour>
      <point x="168.0" y="576.4" type="line"/>
      <point x="978.6" y="576.4" type="line"/>
      <point x="982.4" y="611.0" type="line"/>
      <point x="171.8" y="611.0" type="line"/>
    </contour>
  </outline>
</glyph>
<glyph name="brokenbar" format="2">
  <advance width="477"/>
  <unicode hex="00A6"/>
  <outline>
    <contour>
      <point x="214.7" y="739.8" type="line"/>
      <point x="256.7" y="739.8" type="line"/>
      <point x="256.7" y="1507.8" type="line" name="n02"/>
      <point x="214.7" y="1507.8" type="line"/>
    </contour>
    <contour>
      <point x="214.7" y="-356.8" type="line" name="n04"/>
      <point x="256.7" y="-356.8" type="line"/>
      <point x="256.7" y="411.2" type="line"/>
      <point x="214.7" y="411.2" type="line"/>
    </contour>
  </outline>
  <guideline angle="82.9991" x="300" y="0"/>
</glyph>
<glyph name="section" format="2">
  <advance width="893"/>
  <unicode hex="00A7"/>
  <outline>
    <contour>
      <point x="395" y="975" type="line"/>
      <point x="201.6" y="919"/>
      <point x="131.2" y="815.4"/>
      <point x="131.2" y="697.4" type="curve" smooth="yes"/>
      <point x="131.2" y="417.6"/>
      <point x="634.2" y="436.8"/>
      <point x="634.2" y="178.2" type="curve" smooth="yes"/>
      <point x="634.2" y="31"/>
      <point x="526.6" y="-95"/>
      <point x="343.8" y="-95" type="curve" smooth="yes" name="n09"/>
      <point x="172" y="-95"/>
      <point x="129" y="11.4" name="n11"/>
      <point x="102.4" y="11.4" type="curve" smooth="yes"/>
      <point x="93.2" y="11.4"/>
      <point x="89" y="8.2"/>
      <point x="83.6" y="1.8" type="curve" smooth="yes"/>
      <point x="69.8" y="-15.2" type="line"/>
      <point x="133.8" y="-87.2"/>
      <point x="208.6" y="-134"/>
      <point x="336.8" y="-134" type="curve" smooth="yes" name="n19"/>
      <point x="549.4" y="-134"/>
      <point x="680.8" y="15.8"/>
      <point x="680.8" y="189" type="curve" smooth="yes"/>
      <point x="680.8" y="472.2"/>
      <point x="178.2" y="465.4"/>
      <point x="178.2" y="708.6" type="curve" smooth="yes"/>
      <point x="178.2" y="808.2"/>
      <point x="233.8" y="885.8"/>
      <point x="398" y="950.4" type="curve"/>
    </contour>
    <contour>
      <point x="817.8" y="1321.8" type="line"/>
      <point x="754.2" y="1390.6"/>
      <point x="679.6" y="1421.6"/>
      <point x="575.6" y="1421.6" type="curve" smooth="yes" name="n32"/>
      <point x="389.2" y="1421.6"/>
      <point x="252.2" y="1287.4"/>
      <point x="252.2" y="1138" type="curve" smooth="yes"/>
      <point x="252.2" y="862.2"/>
      <point x="728" y="894"/>
      <point x="728" y="623.4" type="curve" smooth="yes"/>
      <point x="728" y="516.4"/>
      <point x="677.2" y="433.8"/>
      <point x="546" y="378" type="curve"/>
      <point x="553" y="353" type="line"/>
      <point x="693.8" y="401.8"/>
      <point x="774.8" y="497"/>
      <point x="774.8" y="635.8" type="curve" smooth="yes"/>
      <point x="774.8" y="928.6"/>
      <point x="298.8" y="910.4"/>
      <point x="298.8" y="1146.4" type="curve" smooth="yes"/>
      <point x="298.8" y="1270.8"/>
      <point x="414.8" y="1381.6"/>
      <point x="569.8" y="1381.6" type="curve" smooth="yes" name="n51"/>
      <point x="725.4" y="1381.6"/>
      <point x="767.4" y="1296.4"/>
      <point x="791" y="1296.4" type="curve" smooth="yes"/>
      <point x="797.2" y="1296.4"/>
      <point x="802.6" y="1299.2"/>
      <point x="806.2" y="1305.4" type="curve"/>
    </contour>
  </outline>
  <guideline angle="82.9991" x="459" y="0"/>
</glyph>
<glyph name="dieresis" format="2">
  <advance width="736"/>
  <unicode hex="00A8"/>
  <anchor x="408" y="1120" name="_top"/>
  <anchor x="413" y="1405.7" name="top"/>
  <outline>
    <contour>
      <point x="426.6" y="1281.6" type="curve" smooth="yes"/>
      <point x="426.6" y="1317.6"/>
      <point x="394" y="1348.4"/>
      <point x="359.8" y="1348.4" type="curve" smooth="yes" name="n03"/>
      <point x="324.4" y="1348.4"/>
      <point x="293.6" y="1317.6"/>
      <point x="293.6" y="1281.6" type="curve" smooth="yes"/>
      <point x="293.6" y="1247.6"/>
      <point x="324.4" y="1217.2"/>
      <point x="359.8" y="1217.2" type="curve" smooth="yes" name="n09"/>
      <point x="394" y="1217.2"/>
      <point x="426.6" y="1247.6"/>
    </contour>
    <contour>
      <point x="744.4" y="1281.6" type="curve" smooth="yes"/>
      <point x="744.4" y="1317.6"/>
      <point x="712" y="1348.4"/>
      <point x="677.8" y="1348.4" type="curve" smooth="yes"/>
      <point x="642" y="1348.4"/>
      <point x="611.4" y="1317.6"/>
      <point x="611.4" y="1281.6" type="curve" smooth="yes"/>
      <point x="611.4" y="1247.6"/>
      <point x="642" y="1217.2"/>
      <point x="677.8" y="1217.2" type="curve" smooth="yes"/>
      <point x="712" y="1217.2"/>
      <point x="744.4" y="1247.6"/>
    </contour>
  </outline>
  <guideline angle="82.9991" x="368" y="0"/>
</glyph>
<glyph name="copyright" format="2">
  <advance width="1684.8"/>
  <unicode hex="00A9"/>
  <guideline x="790.1" y="0.0" angle="82.9991"/>
  <outline>
    <contour>
      <point x="1165.2" y="400.6" type="curve"/>
      <point x="1086.2" y="337.6"/>
      <point x="1015.4" y="298.0"/>
      <point x="866.0" y="298.0" type="curve" smooth="yes"/>
      <point x="643.0" y="298.0"/>
      <point x="478.8" y="448.4"/>
      <point x="478.8" y="703.4" type="curve" smooth="yes"/>
      <point x="478.8" y="953.8"/>
      <point x="642.4" y="1110.6"/>
      <point x="880.8" y="1110.6" type="curve" smooth="yes"/>
      <point x="1074.4" y="1110.6"/>
      <point x="1136.6" y="1022.2"/>
      <point x="1156.4" y="1022.2" type="curve" smooth="yes"/>
      <point x="1162.6" y="1022.2"/>
      <point x="1167.8" y="1024.0"/>
      <point x="1170.6" y="1028.8" type="curve"/>
      <point x="1182.4" y="1045.6" type="line"/>
      <point x="1098.2" y="1114.8"/>
      <point x="1016.8" y="1151.6"/>
      <point x="879.2" y="1151.6" type="curve" smooth="yes"/>
      <point x="614.0" y="1151.6"/>
      <point x="429.8" y="970.0"/>
      <point x="429.8" y="703.4" type="curve" smooth="yes"/>
      <point x="429.8" y="430.8"/>
      <point x="610.6" y="256.8"/>
      <point x="864.4" y="256.8" type="curve" smooth="yes"/>
      <point x="1020.0" y="256.8"/>
      <point x="1118.4" y="307.0"/>
      <point x="1197.6" y="380.2" type="curve"/>
      <point x="1176.6" y="400.2" type="line"/>
      <point x="1173.8" y="401.4"/>
      <point x="1170.4" y="402.4"/>
    </contour>
    <contour>
      <point x="138.4" y="703.0" type="curve" smooth="yes"/>
      <point x="138.4" y="307.4"/>
      <point x="459.8" y="-14.0"/>
      <point x="855.4" y="-14.0" type="curve" smooth="yes"/>
      <point x="1251.2" y="-14.0"/>
      <point x="1572.6" y="307.4"/>
      <point x="1572.6" y="703.0" type="curve" smooth="yes"/>
      <point x="1572.6" y="1098.8"/>
      <point x="1251.2" y="1420.2"/>
      <point x="855.4" y="1420.2" type="curve" smooth="yes"/>
      <point x="459.8" y="1420.2"/>
      <point x="138.4" y="1098.8"/>
    </contour>
    <contour>
      <point x="176.6" y="703.0" type="curve" smooth="yes"/>
      <point x="176.6" y="1080.6"/>
      <point x="479.0" y="1386.2"/>
      <point x="855.4" y="1386.2" type="curve" smooth="yes"/>
      <point x="1232.0" y="1386.2"/>
      <point x="1536.6" y="1080.6"/>
      <point x="1536.6" y="703.0" type="curve" smooth="yes"/>
      <point x="1536.6" y="325.6"/>
      <point x="1232.0" y="22.200000000000003"/>
      <point x="855.4" y="22.200000000000003" type="curve" smooth="yes"/>
      <point x="479.0" y="22.200000000000003"/>
      <point x="176.6" y="325.6"/>
    </contour>
  </outline>
</glyph>
<glyph name="ordfeminine" format="2">
  <advance width="681.7"/>
  <unicode hex="00AA"/>
  <guideline x="306.2" y="0.0" angle="82.9991"/>
  <anchor x="329.2" y="-70.0" name="bottom"/>
  <outline>
    <contour>
      <point x="448.4" y="1418.8" type="curve" smooth="yes"/>
      <point x="369.8" y="1418.8"/>
      <point x="306.2" y="1388.8"/>
      <point x="244.0" y="1327.8" type="curve"/>
      <point x="248.8" y="1315.4" type="line"/>
      <point x="251.6" y="1311.6"/>
      <point x="255.0" y="1307.8"/>
      <point x="261.6" y="1307.8" type="curve" smooth="yes"/>
      <point x="282.2" y="1307.8"/>
      <point x="330.2" y="1383.6"/>
      <point x="440.0" y="1383.6" type="curve" smooth="yes"/>
      <point x="533.2" y="1383.6"/>
      <point x="574.8" y="1327.2"/>
      <point x="560.4" y="1212.0" type="curve"/>
      <point x="601.0" y="1212.0" type="line"/>
      <point x="616.8" y="1319.2"/>
      <point x="573.6" y="1418.8"/>
    </contour>
    <contour>
      <point x="554.8" y="838.4" type="line"/>
      <point x="601.0" y="1212.0" type="line"/>
      <point x="560.4" y="1212.0" type="line"/>
      <point x="528.6" y="945.0" type="line"/>
      <point x="523.8" y="851.6" type="line"/>
      <point x="527.0" y="841.0"/>
      <point x="528.4" y="838.4"/>
      <point x="537.6" y="838.4" type="curve" smooth="yes"/>
    </contour>
    <contour>
      <point x="540.2" y="942.8" type="curve"/>
      <point x="535.8" y="970.8" type="line"/>
      <point x="473.4" y="911.6"/>
      <point x="409.4" y="861.2"/>
      <point x="313.6" y="861.2" type="curve" smooth="yes"/>
      <point x="258.4" y="861.2"/>
      <point x="208.6" y="890.8"/>
      <point x="208.6" y="959.6" type="curve" smooth="yes"/>
      <point x="208.6" y="1059.2"/>
      <point x="317.6" y="1114.6"/>
      <point x="554.6" y="1121.8" type="curve"/>
      <point x="555.0" y="1152.8" type="line"/>
      <point x="282.6" y="1148.4"/>
      <point x="168.2" y="1067.4"/>
      <point x="168.2" y="953.4" type="curve" smooth="yes"/>
      <point x="168.2" y="866.6"/>
      <point x="231.6" y="828.6"/>
      <point x="301.2" y="828.6" type="curve" smooth="yes"/>
      <point x="398.2" y="828.6"/>
      <point x="464.0" y="871.4"/>
    </contour>
  </outline>
</glyph>
<glyph name="logicalnot" format="2">
  <advance width="1160.0"/>
  <unicode hex="00AC"/>
  <guideline x="580.0" y="0.0" angle="82.9991"/>
  <outline>
    <contour>
      <point x="182.6" y="650.0" type="line"/>
      <point x="994.8" y="650.0" type="line"/>
      <point x="999.4" y="690.4" type="line"/>
      <point x="187.0" y="690.4" type="line"/>
    </contour>
    <contour>
      <point x="912.2" y="352.2" type="line"/>
      <point x="957.2" y="352.2" type="line"/>
      <point x="999.4" y="690.4" type="line"/>
      <point x="954.4" y="690.4" type="line"/>
    </contour>
  </outline>
</glyph>
<glyph name="registered" format="2">
  <advance width="1684.8"/>
  <unicode hex="00AE"/>
  <guideline x="790.1" y="0.0" angle="82.9991"/>
  <outline>
    <contour>
      <point x="778.4" y="673.4" type="line" smooth="yes"/>
      <point x="815.8" y="673.4"/>
      <point x="828.4" y="663.6"/>
      <point x="838.4" y="650.4" type="curve" smooth="yes"/>
      <point x="1144.6" y="273.4" type="line"/>
      <point x="1151.4" y="263.6"/>
      <point x="1157.6" y="262.2"/>
      <point x="1166.6" y="262.2" type="curve" smooth="yes"/>
      <point x="1210.4" y="262.2" type="line"/>
      <point x="896.0" y="648.4" type="line" smooth="yes"/>
      <point x="872.4" y="679.6"/>
      <point x="851.6" y="691.2"/>
      <point x="801.8" y="691.2" type="curve"/>
      <point x="803.0" y="678.4" type="line"/>
      <point x="821.6" y="678.4" type="line" smooth="yes"/>
      <point x="1005.8" y="678.4"/>
      <point x="1126.0" y="771.8"/>
      <point x="1126.0" y="919.4" type="curve" smooth="yes"/>
      <point x="1126.0" y="1071.6"/>
      <point x="1021.0" y="1144.4"/>
      <point x="830.4" y="1144.4" type="curve" smooth="yes"/>
      <point x="604.4" y="1144.4" type="line"/>
      <point x="604.4" y="262.2" type="line"/>
      <point x="652.8" y="262.2" type="line"/>
      <point x="652.8" y="1106.0" type="line"/>
      <point x="830.4" y="1106.0" type="line" smooth="yes"/>
      <point x="997.8" y="1106.0"/>
      <point x="1078.0" y="1048.4"/>
      <point x="1078.0" y="915.8" type="curve" smooth="yes"/>
      <point x="1078.0" y="784.6"/>
      <point x="985.2" y="710.6"/>
      <point x="817.6" y="710.6" type="curve" smooth="yes"/>
      <point x="631.4" y="710.6" type="line"/>
      <point x="630.6" y="673.4" type="line"/>
    </contour>
    <contour>
      <point x="138.4" y="703.0" type="curve" smooth="yes"/>
      <point x="138.4" y="307.4"/>
      <point x="459.8" y="-14.0"/>
      <point x="855.4" y="-14.0" type="curve" smooth="yes"/>
      <point x="1251.2" y="-14.0"/>
      <point x="1572.6" y="307.4"/>
      <point x="1572.6" y="703.0" type="curve" smooth="yes"/>
      <point x="1572.6" y="1098.8"/>
      <point x="1251.2" y="1420.2"/>
      <point x="855.4" y="1420.2" type="curve" smooth="yes"/>
      <point x="459.8" y="1420.2"/>
      <point x="138.4" y="1098.8"/>
    </contour>
    <contour>
      <point x="176.6" y="703.0" type="curve" smooth="yes"/>
      <point x="176.6" y="1080.6"/>
      <point x="479.0" y="1386.2"/>
      <point x="855.4" y="1386.2" type="curve" smooth="yes"/>
      <point x="1232.0" y="1386.2"/>
      <point x="1536.6" y="1080.6"/>
      <point x="1536.6" y="703.0" type="curve" smooth="yes"/>
      <point x="1536.6" y="325.6"/>
      <point x="1232.0" y="22.200000000000003"/>
      <point x="855.4" y="22.200000000000003" type="curve" smooth="yes"/>
      <point x="479.0" y="22.200000000000003"/>
      <point x="176.6" y="325.6"/>
    </contour>
  </outline>
</glyph>
<glyph name="macron" format="2">
  <advance width="736"/>
  <unicode hex="00AF"/>
  <unicode hex="02C9"/>
  <anchor x="400" y="1120" name="_top"/>
  <outline>
    <contour>
      <point x="265.7" y="1262.8" type="line" name="n00"/>
      <point x="753.8" y="1262.8" type="line"/>
      <point x="758.8" y="1300.6" type="line"/>
      <point x="270.6" y="1300.6" type="line" name="n03"/>
    </contour>
  </outline>
  <guideline angle="82.9991" x="368" y="0"/>
</glyph>
<glyph name="degree" format="2">
  <advance width="811"/>
  <unicode hex="00B0"/>
  <outline>
    <contour>
      <point x="181" y="1137.8" type="curve" smooth="yes"/>
      <point x="181" y="979.8"/>
      <point x="312" y="851.8"/>
      <point x="467.6" y="851.8" type="curve" smooth="yes" name="n03"/>
      <point x="628.6" y="851.8"/>
      <point x="756.2" y="979.8"/>
      <point x="756.2" y="1137.8" type="curve" smooth="yes"/>
      <point x="756.2" y="1296.4"/>
      <point x="628.6" y="1422.2"/>
      <point x="467.6" y="1422.2" type="curve" smooth="yes" name="n09"/>
      <point x="312" y="1422.2"/>
      <point x="181" y="1296.4"/>
    </contour>
    <contour>
      <point x="220.4" y="1137.6" type="curve" smooth="yes"/>
      <point x="220.4" y="1274.2"/>
      <point x="331" y="1383.6"/>
      <point x="467.6" y="1383.6" type="curve" smooth="yes" name="n15"/>
      <point x="604.2" y="1383.6"/>
      <point x="713" y="1274.2"/>
      <point x="713" y="1137.6" type="curve" smooth="yes"/>
      <point x="713" y="1001.2"/>
      <point x="604.2" y="892"/>
      <point x="467.6" y="892" type="curve" smooth="yes" name="n21"/>
      <point x="331" y="892"/>
      <point x="220.4" y="1001.2"/>
    </contour>
  </outline>
  <guideline angle="82.9991" x="374" y="0"/>
</glyph>
<glyph name="plusminus" format="2">
  <advance width="1160"/>
  <unicode hex="00B1"/>
  <outline>
    <contour>
      <point x="129.8" y="665.4" type="line" name="n00"/>
      <point x="1058.2" y="665.4" type="line"/>
      <point x="1062.8" y="705.8" type="line"/>
      <point x="134.2" y="705.8" type="line" name="n03"/>
    </contour>
    <contour>
      <point x="627.4" y="1126.4" type="line" name="n04"/>
      <point x="519.4" y="244.8" type="line"/>
      <point x="561.6" y="244.8" type="line"/>
      <point x="669.6" y="1126.4" type="line"/>
    </contour>
    <contour>
      <point x="57.2" y="80" type="line" name="n08"/>
      <point x="985.6" y="80" type="line"/>
      <point x="990.2" y="120.4" type="line"/>
      <point x="61.6" y="120.4" type="line" name="n11"/>
    </contour>
  </outline>
  <guideline angle="82.9991" x="580" y="0"/>
</glyph>
<glyph name="acute" format="2">
  <advance width="736"/>
  <unicode hex="00B4"/>
  <anchor x="400" y="1120" name="_top"/>
  <outline>
    <contour>
      <point x="654.5" y="1422" type="line" smooth="yes" name="n00"/>
      <point x="630.8" y="1422"/>
      <point x="620.9" y="1416.2"/>
      <point x="606.7" y="1396" type="curve" smooth="yes"/>
      <point x="432.2" y="1159" type="line" name="n04"/>
      <point x="461" y="1159" type="line" smooth="yes"/>
      <point x="469.7" y="1159"/>
      <point x="477.4" y="1162"/>
      <point x="484.1" y="1170.6" type="curve"/>
      <point x="703.7" y="1422" type="line"/>
    </contour>
  </outline>
  <guideline angle="82.9991" x="368" y="0"/>
</glyph>
<glyph name="micro" format="2">
  <advance width="1173.1"/>
  <unicode hex="00B5"/>
  <guideline x="540.1" y="0.0" angle="82.9991"/>
  <anchor x="615.4" y="1120.0" name="top"/>
  <anchor x="519.6" y="-421.0" name="bottom"/>
  <outline>
    <contour>
      <point x="257.5" y="986.0" type="line"/>
      <point x="94.7" y="-333.0" type="line"/>
      <point x="93.7" y="-346.8"/>
      <point x="100.8" y="-356.8"/>
      <point x="116.6" y="-356.8" type="curve" smooth="yes"/>
      <point x="142.8" y="-356.8" type="line"/>
      <point x="185.8" y="-3.6000000000000014" type="line" smooth="yes"/>
      <point x="194.9" y="67.8"/>
      <point x="205.0" y="171.0"/>
      <point x="206.6" y="240.4" type="curve"/>
      <point x="221.3" y="264.8" type="line"/>
      <point x="310.1" y="986.0" type="line"/>
    </contour>
    <contour>
      <point x="201.0" y="360.8" type="line"/>
      <point x="171.7" y="126.0"/>
      <point x="244.7" y="-12.0"/>
      <point x="443.7" y="-12.0" type="curve" smooth="yes"/>
      <point x="589.1" y="-12.0"/>
      <point x="726.6" y="80.5"/>
      <point x="827.4" y="227.8" type="curve"/>
      <point x="818.2" y="266.2" type="line"/>
      <point x="717.5" y="119.0"/>
      <point x="589.8" y="31.400000000000002"/>
      <point x="451.5" y="31.400000000000002" type="curve" smooth="yes"/>
      <point x="275.9" y="31.400000000000002"/>
      <point x="207.9" y="155.0"/>
      <point x="232.5" y="360.8" type="curve"/>
    </contour>
    <contour>
      <point x="805.8" y="231.4" type="line"/>
      <point x="809.6" y="219.5" type="line"/>
      <point x="789.8" y="58.4"/>
      <point x="875.0" y="-8.3"/>
      <point x="980.8" y="-8.3" type="curve" smooth="yes"/>
      <point x="1018.2" y="-8.3"/>
      <point x="1037.5" y="1.4000000000000004"/>
      <point x="1039.1" y="11.200000000000001" type="curve"/>
      <point x="1041.5" y="32.6" type="line"/>
      <point x="1009.8" y="32.6" type="line" smooth="yes"/>
      <point x="906.6" y="32.6"/>
      <point x="841.2" y="89.4"/>
      <point x="857.4" y="219.4" type="curve" smooth="yes"/>
      <point x="951.6" y="986.0" type="line"/>
      <point x="899.0" y="986.0" type="line"/>
    </contour>
  </outline>
</glyph>
<glyph name="paragraph" format="2">
  <advance width="1254"/>
  <unicode hex="00B6"/>
  <outline>
    <contour>
      <point x="654.5" y="1406" type="line"/>
      <point x="605.9" y="1406" type="line"/>
      <point x="410.7" y="-183.8" type="line" name="n02"/>
      <point x="459.3" y="-183.8" type="line"/>
    </contour>
    <contour>
      <point x="605.9" y="1406" type="line" smooth="yes"/>
      <point x="314.1" y="1406"/>
      <point x="125.5" y="1253.8"/>
      <point x="125.5" y="1030" type="curve" smooth="yes"/>
      <point x="125.5" y="834"/>
      <point x="280.3" y="718.8"/>
      <point x="521.7" y="718.8" type="curve"/>
      <point x="621.1" y="1360" type="line"/>
      <point x="1280.5" y="1360" type="line" name="n12"/>
      <point x="1285.5" y="1406" type="line" name="n13"/>
    </contour>
    <contour>
      <point x="1057.5" y="1406" type="line"/>
      <point x="1008.9" y="1406" type="line"/>
      <point x="813.7" y="-183.8" type="line"/>
      <point x="862.3" y="-183.8" type="line"/>
    </contour>
  </outline>
  <guideline angle="82.9991" x="600" y="0"/>
</glyph>
<glyph name="periodcentered" format="2">
  <advance width="450"/>
  <unicode hex="00B7"/>
  <unicode hex="2219"/>
  <outline>
    <contour>
      <point x="146.5" y="590.6" type="curve" smooth="yes"/>
      <point x="146.5" y="551.2"/>
      <point x="181.7" y="516"/>
      <point x="221.1" y="516" type="curve" smooth="yes" name="n03"/>
      <point x="264.3" y="516"/>
      <point x="299.5" y="551.2"/>
      <point x="299.5" y="590.6" type="curve" smooth="yes"/>
      <point x="299.5" y="633.8"/>
      <point x="264.3" y="669"/>
      <point x="221.1" y="669" type="curve" smooth="yes" name="n09"/>
      <point x="181.7" y="669"/>
      <point x="146.5" y="633.8"/>
    </contour>
  </outline>
  <guideline angle="82.9991" x="260" y="0"/>
</glyph>
<glyph name="cedilla" format="2">
  <advance width="736.0"/>
  <unicode hex="00B8"/>
  <guideline x="368.0" y="0.0" angle="82.9991"/>
  <anchor x="400.0" y="-70.0" name="_bottom"/>
  <outline>
    <contour>
      <point x="227.3" y="-288.0" type="curve" smooth="yes"/>
      <point x="221.7" y="-288.0"/>
      <point x="218.8" y="-290.8"/>
      <point x="214.6" y="-296.2" type="curve"/>
      <point x="206.1" y="-309.6" type="line"/>
      <point x="232.3" y="-337.6"/>
      <point x="283.9" y="-357.8"/>
      <point x="333.0" y="-357.8" type="curve" smooth="yes"/>
      <point x="430.2" y="-357.8"/>
      <point x="504.6" y="-307.2"/>
      <point x="504.6" y="-220.0" type="curve" smooth="yes"/>
      <point x="504.6" y="-146.6"/>
      <point x="437.9" y="-118.1"/>
      <point x="329.9" y="-100.4" type="curve"/>
      <point x="344.0" y="-111.8" type="line"/>
      <point x="391.4" y="4.6000000000000005" type="line"/>
      <point x="358.9" y="4.6000000000000005" type="line"/>
      <point x="302.7" y="-128.0" type="line"/>
      <point x="392.0" y="-139.2"/>
      <point x="460.6" y="-157.3"/>
      <point x="460.6" y="-224.5" type="curve" smooth="yes"/>
      <point x="460.6" y="-287.9"/>
      <point x="414.5" y="-328.2"/>
      <point x="339.5" y="-328.2" type="curve" smooth="yes"/>
      <point x="261.9" y="-328.2"/>
      <point x="239.1" y="-288.0"/>
    </contour>
  </outline>
</glyph>
<glyph name="ordmasculine" format="2">
  <advance width="753.4"/>
  <unicode hex="00BA"/>
  <guideline x="340.6" y="0.0" angle="82.9991"/>
  <anchor x="365.5" y="-70.0" name="bottom"/>
  <outline>
    <contour>
      <point x="477.2" y="1418.6" type="curve" smooth="yes"/>
      <point x="294.8" y="1418.6"/>
      <point x="183.4" y="1280.4"/>
      <point x="183.4" y="1072.4" type="curve" smooth="yes"/>
      <point x="183.4" y="923.6"/>
      <point x="261.4" y="826.4"/>
      <point x="404.6" y="826.4" type="curve" smooth="yes"/>
      <point x="585.2" y="826.4"/>
      <point x="696.2" y="963.0"/>
      <point x="696.2" y="1171.2" type="curve" smooth="yes"/>
      <point x="696.2" y="1319.6"/>
      <point x="618.4" y="1418.6"/>
    </contour>
    <contour>
      <point x="408.6" y="858.4" type="curve" smooth="yes"/>
      <point x="284.6" y="858.4"/>
      <point x="224.6" y="944.4"/>
      <point x="224.6" y="1072.0" type="curve" smooth="yes"/>
      <point x="224.6" y="1256.4"/>
      <point x="308.8" y="1386.6"/>
      <point x="473.4" y="1386.6" type="curve" smooth="yes"/>
      <point x="595.0" y="1386.6"/>
      <point x="656.8" y="1298.8"/>
      <point x="656.8" y="1171.2" type="curve" smooth="yes"/>
      <point x="656.8" y="985.8"/>
      <point x="569.4" y="858.4"/>
    </contour>
  </outline>
</glyph>
<glyph name="questiondown" format="2">
  <advance width="768.8"/>
  <unicode hex="00BF"/>
  <guideline x="329.0" y="0.0" angle="82.9991"/>
  <outline>
    <contour>
      <point x="571.9" y="-210.2" type="line"/>
      <point x="569.1" y="-206.0"/>
      <point x="567.1" y="-203.0"/>
      <point x="560.9" y="-203.0" type="curve"/>
      <point x="547.1" y="-203.0"/>
      <point x="454.3" y="-325.2"/>
      <point x="285.1" y="-325.2" type="curve" smooth="yes"/>
      <point x="164.5" y="-325.2"/>
      <point x="59.3" y="-242.4"/>
      <point x="59.3" y="-103.2" type="curve" smooth="yes"/>
      <point x="59.3" y="204.8"/>
      <point x="399.5" y="210.4"/>
      <point x="417.5" y="378.8" type="curve" smooth="yes"/>
      <point x="435.5" y="551.6" type="line"/>
      <point x="402.5" y="551.6" type="line"/>
      <point x="372.9" y="382.8" type="line"/>
      <point x="348.7" y="230.8"/>
      <point x="7.9" y="220.0"/>
      <point x="7.9" y="-110.6" type="curve" smooth="yes"/>
      <point x="7.9" y="-269.6"/>
      <point x="130.3" y="-367.6"/>
      <point x="277.7" y="-367.6" type="curve" smooth="yes"/>
      <point x="411.3" y="-367.6"/>
      <point x="512.1" y="-299.6"/>
      <point x="583.7" y="-230.2" type="curve"/>
    </contour>
    <component base="period" xOffset="311.2" yOffset="865.6"/>
  </outline>
</glyph>
<glyph name="AE" format="2">
  <advance width="1719.5"/>
  <unicode hex="00C6"/>
  <guideline x="847.2" y="0.0" angle="82.9991"/>
  <anchor x="1289.6" y="1498.9" name="Top"/>
  <anchor x="1289.6" y="1498.9" name="top"/>
  <anchor x="701.9" y="-70.0" name="bottom"/>
  <outline>
    <contour>
      <point x="-44.0" y="0.0" type="line"/>
      <point x="-2.3999999999999986" y="0.0" type="line" smooth="yes"/>
      <point x="8.400000000000002" y="0.0"/>
      <point x="18.400000000000002" y="7.2"/>
      <point x="24.200000000000003" y="16.4" type="curve" smooth="yes"/>
      <point x="840.2" y="1293.8" type="line" smooth="yes"/>
      <point x="862.8" y="1330.2"/>
      <point x="877.4" y="1360.2"/>
      <point x="892.0" y="1406.0" type="curve"/>
      <point x="856.8" y="1406.0" type="line"/>
    </contour>
    <contour>
      <point x="286.4" y="462.8" type="line"/>
      <point x="904.6" y="462.8" type="line"/>
      <point x="909.2" y="504.0" type="line"/>
      <point x="291.2" y="504.0" type="line"/>
    </contour>
    <contour>
      <point x="926.4" y="1406.0" type="line"/>
      <point x="875.8" y="1406.0" type="line"/>
      <point x="875.8" y="0.0" type="line"/>
      <point x="926.4" y="0.0" type="line"/>
    </contour>
    <contour>
      <point x="914.0" y="735.6" type="line"/>
      <point x="909.2" y="690.6" type="line"/>
      <point x="1513.2" y="690.6" type="line"/>
      <point x="1519.8" y="735.6" type="line"/>
    </contour>
    <contour>
      <point x="913.0" y="1406.0" type="line"/>
      <point x="908.0" y="1360.0" type="line"/>
      <point x="1708.0" y="1360.0" type="line"/>
      <point x="1713.0" y="1406.0" type="line"/>
    </contour>
    <contour>
      <point x="911.6" y="46.0" type="line"/>
      <point x="906.6" y="0.0" type="line"/>
      <point x="1540.2" y="0.0" type="line"/>
      <point x="1548.8" y="46.0" type="line"/>
    </contour>
  </outline>
</glyph>
<glyph name="multiply" format="2">
  <advance width="1160.0"/>
  <unicode hex="00D7"/>
  <guideline x="580.0" y="0.0" angle="82.9991"/>
  <outline>
    <contour>
      <point x="226.2" y="1050.6" type="line"/>
      <point x="922.6" y="259.8" type="line"/>
      <point x="952.8" y="288.2" type="line"/>
      <point x="260.0" y="1080.8" type="line"/>
    </contour>
    <contour>
      <point x="1018.8" y="1078.8" type="line"/>
      <point x="130.0" y="286.2" type="line"/>
      <point x="154.6" y="257.8" type="line"/>
      <point x="1045.2" y="1048.6" type="line"/>
    </contour>
  </outline>
</glyph>
<glyph name="Oslash" format="2">
  <advance width="1464.2"/>
  <unicode hex="00D8"/>
  <guideline x="732.0" y="0.0" angle="82.9991"/>
  <anchor x="846.0" y="1498.9" name="Top"/>
  <anchor x="846.0" y="1498.9" name="top"/>
  <anchor x="544.1" y="-70.0" name="bottom"/>
  <outline>
    <contour>
      <point x="1399.0" y="1470.0" type="line"/>
      <point x="1369.8" y="1470.0" type="line" smooth="yes"/>
      <point x="1353.8" y="1470.0"/>
      <point x="1348.0" y="1464.2"/>
      <point x="1335.8" y="1451.2" type="curve"/>
      <point x="77.8" y="-103.2" type="line"/>
      <point x="101.4" y="-103.2" type="line" smooth="yes"/>
      <point x="114.6" y="-103.2"/>
      <point x="129.0" y="-97.2"/>
      <point x="141.6" y="-83.6" type="curve"/>
    </contour>
    <contour>
      <point x="1360.6" y="814.8" type="curve" smooth="yes"/>
      <point x="1360.6" y="1180.6"/>
      <point x="1155.4" y="1422.0"/>
      <point x="832.8" y="1422.0" type="curve" smooth="yes"/>
      <point x="435.6" y="1422.0"/>
      <point x="129.8" y="1093.6"/>
      <point x="129.8" y="591.0" type="curve" smooth="yes"/>
      <point x="129.8" y="225.2"/>
      <point x="335.0" y="-14.2"/>
      <point x="656.0" y="-14.2" type="curve" smooth="yes"/>
      <point x="1058.4" y="-14.2"/>
      <point x="1360.6" y="310.6"/>
    </contour>
    <contour>
      <point x="1303.8" y="814.0" type="curve" smooth="yes"/>
      <point x="1303.8" y="328.8"/>
      <point x="1030.0" y="31.0"/>
      <point x="661.4" y="31.0" type="curve" smooth="yes"/>
      <point x="374.4" y="31.0"/>
      <point x="184.8" y="248.0"/>
      <point x="184.8" y="593.6" type="curve"/>
      <point x="184.8" y="1077.0"/>
      <point x="465.6" y="1376.8"/>
      <point x="827.0" y="1376.8" type="curve" smooth="yes"/>
      <point x="1117.4" y="1376.8"/>
      <point x="1303.8" y="1159.6"/>
    </contour>
  </outline>
</glyph>
<glyph name="Thorn" format="2">
  <advance width="1054.1"/>
  <unicode hex="00DE"/>
  <guideline x="538.7" y="0.0" angle="82.9991"/>
  <anchor x="423.2" y="1498.9" name="Top"/>
  <anchor x="423.2" y="1498.9" name="top"/>
  <anchor x="159.9" y="-70.0" name="bottom"/>
  <outline>
    <contour>
      <point x="363.9" y="1406.0" type="line"/>
      <point x="309.7" y="1406.0" type="line"/>
      <point x="137.1" y="0.0" type="line"/>
      <point x="191.1" y="0.0" type="line"/>
    </contour>
    <contour>
      <point x="307.1" y="1067.0" type="line"/>
      <point x="578.7" y="1067.0" type="line" smooth="yes"/>
      <point x="815.3" y="1067.0"/>
      <point x="932.9" y="956.8"/>
      <point x="932.9" y="760.4" type="curve" smooth="yes"/>
      <point x="932.9" y="517.4"/>
      <point x="753.7" y="337.0"/>
      <point x="490.3" y="337.0" type="curve" smooth="yes"/>
      <point x="215.3" y="337.0" type="line"/>
      <point x="205.7" y="293.4" type="line"/>
      <point x="485.3" y="293.4" type="line" smooth="yes"/>
      <point x="777.3" y="293.4"/>
      <point x="987.3" y="486.2"/>
      <point x="987.3" y="766.8" type="curve" smooth="yes"/>
      <point x="987.3" y="989.8"/>
      <point x="848.5" y="1110.4"/>
      <point x="585.5" y="1110.4" type="curve" smooth="yes"/>
      <point x="309.3" y="1110.4" type="line"/>
    </contour>
  </outline>
</glyph>
<glyph name="germandbls" format="2">
  <advance width="1053.7"/>
  <unicode hex="00DF"/>
  <guideline x="492.7" y="0.0" angle="82.9991"/>
  <anchor x="683.4" y="1498.9" name="Top"/>
  <anchor x="683.4" y="1498.9" name="top"/>
  <anchor x="412.9" y="-421.0" name="bottom"/>
  <outline>
    <contour>
      <point x="705.4" y="1421.2" type="curve" smooth="yes"/>
      <point x="483.4" y="1421.2"/>
      <point x="289.4" y="1199.2"/>
      <point x="255.2" y="933.0" type="curve"/>
      <point x="110.0" y="-251.4" type="line"/>
      <point x="126.2" y="-251.4" type="line" smooth="yes"/>
      <point x="138.8" y="-251.4"/>
      <point x="148.6" y="-244.8"/>
      <point x="153.0" y="-227.8" type="curve"/>
      <point x="192.6" y="14.2" type="line"/>
      <point x="307.0" y="932.0" type="line" smooth="yes"/>
      <point x="339.8" y="1197.4"/>
      <point x="520.4" y="1381.4"/>
      <point x="697.8" y="1381.4" type="curve" smooth="yes"/>
      <point x="875.2" y="1381.4"/>
      <point x="932.0" y="1254.2"/>
      <point x="932.0" y="1174.8" type="curve" smooth="yes"/>
      <point x="932.0" y="910.0"/>
      <point x="562.4" y="891.4"/>
      <point x="562.4" y="677.4" type="curve" smooth="yes"/>
      <point x="562.4" y="470.0"/>
      <point x="888.4" y="550.6"/>
      <point x="888.4" y="306.2" type="curve" smooth="yes"/>
      <point x="888.4" y="150.2"/>
      <point x="779.2" y="23.0"/>
      <point x="601.8" y="23.0" type="curve" smooth="yes"/>
      <point x="434.8" y="23.0"/>
      <point x="389.2" y="129.6"/>
      <point x="364.4" y="129.6" type="curve" smooth="yes"/>
      <point x="355.4" y="129.6"/>
      <point x="351.0" y="126.2"/>
      <point x="345.6" y="120.0" type="curve" smooth="yes"/>
      <point x="331.8" y="103.0" type="line"/>
      <point x="396.0" y="31.0"/>
      <point x="467.0" y="-16.0"/>
      <point x="594.8" y="-16.0" type="curve" smooth="yes"/>
      <point x="798.2" y="-16.0"/>
      <point x="936.8" y="130.4"/>
      <point x="936.8" y="318.0" type="curve" smooth="yes"/>
      <point x="936.8" y="583.0"/>
      <point x="614.4" y="510.8"/>
      <point x="614.4" y="688.2" type="curve" smooth="yes"/>
      <point x="614.4" y="872.6"/>
      <point x="979.0" y="896.0"/>
      <point x="979.0" y="1181.0" type="curve" smooth="yes"/>
      <point x="979.0" y="1302.0"/>
      <point x="879.6" y="1421.2"/>
    </contour>
    <contour>
      <point x="290.8" y="908.4" type="line"/>
      <point x="295.4" y="947.8" type="line"/>
      <point x="95.8" y="947.8" type="line"/>
      <point x="94.4" y="928.2" type="line"/>
      <point x="92.0" y="920.2"/>
      <point x="98.4" y="914.6"/>
      <point x="110.0" y="913.6" type="curve"/>
      <point x="261.2" y="907.4" type="line"/>
      <point x="276.0" y="908.4" type="line"/>
    </contour>
  </outline>
</glyph>
<glyph name="eth" format="2">
  <advance width="1035"/>
  <unicode hex="00F0"/>
  <anchor x="829.1" y="1498.9" name="Top"/>
  <anchor x="430.6" y="-70" name="bottom"/>
  <anchor x="829.1" y="1498.9" name="top"/>
  <outline>
    <contour>
      <point x="394.4" y="1379.4" type="curve"/>
      <point x="388" y="1363.5" type="line"/>
      <point x="383.4" y="1349.7"/>
      <point x="388.6" y="1342.6"/>
      <point x="402.4" y="1339.5" type="curve"/>
      <point x="701.6" y="1283.5"/>
      <point x="913.2" y="1056.5"/>
      <point x="867.6" y="600.2" type="curve"/>
      <point x="861.6" y="594.4" type="line"/>
      <point x="821.8" y="225.8"/>
      <point x="675.8" y="30.4"/>
      <point x="431" y="30.4" type="curve" smooth="yes" name="n11"/>
      <point x="267" y="30.4"/>
      <point x="138.2" y="165.8"/>
      <point x="138.2" y="386.4" type="curve" smooth="yes"/>
      <point x="138.2" y="654.4"/>
      <point x="283.8" y="877"/>
      <point x="544.4" y="877" type="curve" smooth="yes" name="n17"/>
      <point x="750.6" y="877"/>
      <point x="843.8" y="703.2"/>
      <point x="860.4" y="554.2" type="curve"/>
      <point x="886.8" y="564.8" type="line"/>
      <point x="864" y="818.4"/>
      <point x="693" y="918"/>
      <point x="542.8" y="918" type="curve" smooth="yes" name="n24"/>
      <point x="261.4" y="918"/>
      <point x="87" y="674.4"/>
      <point x="87" y="383.2" type="curve" smooth="yes"/>
      <point x="87" y="144.2"/>
      <point x="231.8" y="-10.6"/>
      <point x="425.6" y="-10.6" type="curve" smooth="yes" name="n30"/>
      <point x="755.4" y="-10.6"/>
      <point x="917.6" y="307"/>
      <point x="917.6" y="720.8" type="curve" smooth="yes"/>
      <point x="917.6" y="1155.8"/>
      <point x="658.6" y="1333.6"/>
    </contour>
    <contour>
      <point x="525" y="1058.5" type="line"/>
      <point x="694.2" y="1218.2" type="line"/>
      <point x="700.2" y="1220.4" type="line"/>
      <point x="848.3" y="1362.2" type="line"/>
      <point x="856.5" y="1368.8"/>
      <point x="855.6" y="1379.4"/>
      <point x="851.5" y="1384.8" type="curve"/>
      <point x="842.9" y="1399.3" type="line" name="n43"/>
      <point x="681.6" y="1246.6" type="line"/>
      <point x="676" y="1244.4" type="line"/>
      <point x="516.7" y="1093.2" type="line"/>
      <point x="509.9" y="1087.3"/>
      <point x="511.4" y="1077.9"/>
      <point x="514.9" y="1073.1" type="curve" smooth="yes"/>
    </contour>
  </outline>
  <guideline angle="0" x="0" y="1406"/>
  <guideline angle="82.9991" x="482" y="0"/>
</glyph>
<glyph name="divide" format="2">
  <advance width="1160"/>
  <unicode hex="00F7"/>
  <outline>
    <contour>
      <point x="121.2" y="650" type="line" name="n00"/>
      <point x="1049.8" y="650" type="line"/>
      <point x="1054.4" y="690.4" type="line"/>
      <point x="125.8" y="690.4" type="line" name="n03"/>
    </contour>
    <contour>
      <point x="555" y="1015.2" type="curve" smooth="yes"/>
      <point x="555" y="979.6"/>
      <point x="581" y="949.6"/>
      <point x="620.6" y="949.6" type="curve" smooth="yes" name="n07"/>
      <point x="665" y="949.6"/>
      <point x="706.6" y="984.8"/>
      <point x="706.6" y="1031.6" type="curve" smooth="yes"/>
      <point x="706.6" y="1069"/>
      <point x="678.6" y="1101"/>
      <point x="639.2" y="1101" type="curve" smooth="yes" name="n13"/>
      <point x="594.4" y="1101"/>
      <point x="555" y="1061.8"/>
    </contour>
    <contour>
      <point x="467" y="303.2" type="curve" smooth="yes"/>
      <point x="467" y="267.6"/>
      <point x="494.8" y="237.6"/>
      <point x="532.6" y="237.6" type="curve" smooth="yes" name="n19"/>
      <point x="578.8" y="237.6"/>
      <point x="618.6" y="272.8"/>
      <point x="618.6" y="319.6" type="curve" smooth="yes"/>
      <point x="618.6" y="357"/>
      <point x="590.6" y="389"/>
      <point x="551.2" y="389" type="curve" smooth="yes" name="n25"/>
      <point x="506.4" y="389"/>
      <point x="467" y="349.8"/>
    </contour>
  </outline>
  <guideline angle="82.9991" x="580" y="0"/>
</glyph>
<glyph name="oslash" format="2">
  <advance width="1021"/>
  <unicode hex="00F8"/>
  <anchor x="361.7" y="-70" name="bottom"/>
  <anchor x="577.1" y="1120" name="top"/>
  <outline>
    <contour>
      <point x="812.5" y="879.2" type="line"/>
      <point x="815.5" y="879.2" type="line"/>
      <point x="933.1" y="1037.4" type="line" name="n02"/>
      <point x="903.5" y="1037.4" type="line" smooth="yes"/>
      <point x="887.3" y="1037.4"/>
      <point x="881.5" y="1031.6"/>
      <point x="871.7" y="1018.4" type="curve" smooth="yes"/>
      <point x="773.3" y="885.4" type="line"/>
      <point x="770.1" y="885.4" type="line"/>
      <point x="186.7" y="103" type="line"/>
      <point x="183.7" y="103" type="line"/>
      <point x="53.9" y="-70.8" type="line" name="n11"/>
      <point x="77.7" y="-70.8" type="line" smooth="yes"/>
      <point x="91.3" y="-70.8"/>
      <point x="105.7" y="-64.8"/>
      <point x="115.9" y="-51" type="curve" smooth="yes"/>
      <point x="228.1" y="101" type="line"/>
      <point x="231.1" y="101" type="line"/>
    </contour>
    <contour>
      <point x="435.7" y="27.6" type="curve" smooth="yes" name="n18"/>
      <point x="251.9" y="27.6"/>
      <point x="138.1" y="165"/>
      <point x="138.1" y="390" type="curve" smooth="yes"/>
      <point x="138.1" y="685.6"/>
      <point x="308.7" y="962"/>
      <point x="560.1" y="962" type="curve" smooth="yes" name="n24"/>
      <point x="742.1" y="962"/>
      <point x="857.7" y="824.8"/>
      <point x="857.7" y="599.6" type="curve" smooth="yes"/>
      <point x="857.7" y="307.8"/>
      <point x="687.1" y="27.6"/>
    </contour>
    <contour>
      <point x="431.1" y="-12.4" type="curve" smooth="yes" name="n30"/>
      <point x="716.5" y="-12.4"/>
      <point x="908.3" y="287.8"/>
      <point x="908.3" y="599.8" type="curve" smooth="yes"/>
      <point x="908.3" y="846"/>
      <point x="775.1" y="1002"/>
      <point x="564.7" y="1002" type="curve" smooth="yes" name="n36"/>
      <point x="279.3" y="1002"/>
      <point x="87.5" y="704"/>
      <point x="87.5" y="389.8" type="curve" smooth="yes"/>
      <point x="87.5" y="141.8"/>
      <point x="220.7" y="-12.4"/>
    </contour>
  </outline>
  <guideline angle="82.9991" x="486" y="0"/>
</glyph>
<glyph name="thorn" format="2">
  <advance width="1017.8"/>
  <unicode hex="00FE"/>
  <guideline x="500.9" y="0.0" angle="82.9991"/>
  <anchor x="293.5" y="1498.9" name="Top"/>
  <anchor x="293.5" y="1498.9" name="top"/>
  <anchor x="303.1" y="-421.0" name="bottom"/>
  <outline>
    <contour>
      <point x="75.3" y="-356.8" type="line" smooth="yes"/>
      <point x="89.3" y="-356.8"/>
      <point x="99.3" y="-346.4"/>
      <point x="101.7" y="-330.4" type="curve"/>
      <point x="319.3" y="1446.0" type="line"/>
      <point x="268.9" y="1446.0" type="line"/>
      <point x="48.7" y="-356.8" type="line"/>
    </contour>
    <contour>
      <point x="148.1" y="174.8" type="line"/>
      <point x="200.3" y="49.6"/>
      <point x="311.7" y="-12.4"/>
      <point x="431.9" y="-12.4" type="curve" smooth="yes"/>
      <point x="726.7" y="-12.4"/>
      <point x="912.7" y="364.2"/>
      <point x="912.7" y="658.2" type="curve" smooth="yes"/>
      <point x="912.7" y="859.0"/>
      <point x="828.7" y="1000.2"/>
      <point x="655.1" y="1000.2" type="curve" smooth="yes"/>
      <point x="460.9" y="1000.2"/>
      <point x="273.5" y="786.4"/>
      <point x="173.9" y="491.4" type="curve"/>
      <point x="189.7" y="455.8" type="line"/>
      <point x="294.5" y="760.8"/>
      <point x="470.7" y="957.6"/>
      <point x="642.7" y="957.6" type="curve" smooth="yes"/>
      <point x="785.9" y="957.6"/>
      <point x="862.1" y="842.4"/>
      <point x="862.1" y="655.0" type="curve" smooth="yes"/>
      <point x="862.1" y="386.0"/>
      <point x="702.3" y="29.400000000000002"/>
      <point x="428.7" y="29.400000000000002" type="curve" smooth="yes"/>
      <point x="320.3" y="29.400000000000002"/>
      <point x="215.9" y="80.0"/>
      <point x="156.3" y="220.8" type="curve"/>
    </contour>
  </outline>
</glyph>
<glyph name="dcroat" format="2">
  <advance width="1019"/>
  <unicode hex="0111"/>
  <anchor x="919.8" y="1498.9" name="Top"/>
  <anchor x="479.9" y="-70" name="bottom"/>
  <anchor x="919.8" y="1498.9" name="top"/>
  <outline>
    <contour>
      <point x="641.1" y="1188.4" type="line"/>
      <point x="638.1" y="1177.2"/>
      <point x="640.9" y="1165.2"/>
      <point x="659.7" y="1165.2" type="curve" smooth="yes"/>
      <point x="1067.9" y="1165.2" type="line" name="n04"/>
      <point x="1071.9" y="1201.8" type="line" name="n05"/>
      <point x="644.1" y="1201.8" type="line"/>
    </contour>
    <contour>
      <point x="780.9" y="0" type="line" name="n07"/>
      <point x="957.9" y="1446" type="line" name="n08"/>
      <point x="907.7" y="1446" type="line"/>
      <point x="782.1" y="435" type="line"/>
      <point x="783.1" y="418.8" type="line"/>
      <point x="738.1" y="22.8" type="line"/>
      <point x="738.1" y="11.6"/>
      <point x="742.1" y="0"/>
      <point x="758.9" y="0" type="curve" smooth="yes"/>
    </contour>
    <contour>
      <point x="845.7" y="811" type="line"/>
      <point x="793.5" y="936.2"/>
      <point x="682.1" y="996.4"/>
      <point x="561.9" y="996.4" type="curve" smooth="yes" name="n19"/>
      <point x="267.1" y="996.4"/>
      <point x="81.1" y="625.4"/>
      <point x="81.1" y="331.4" type="curve" smooth="yes"/>
      <point x="81.1" y="130.6"/>
      <point x="165.1" y="-12.4"/>
      <point x="338.7" y="-12.4" type="curve" smooth="yes" name="n25"/>
      <point x="532.9" y="-12.4"/>
      <point x="720.3" y="203.2"/>
      <point x="819.9" y="498.2" type="curve"/>
      <point x="804.1" y="533.8" type="line"/>
      <point x="699.3" y="228.8"/>
      <point x="523.1" y="30.2"/>
      <point x="351.1" y="30.2" type="curve" smooth="yes" name="n32"/>
      <point x="207.9" y="30.2"/>
      <point x="131.7" y="147.2"/>
      <point x="131.7" y="334.6" type="curve" smooth="yes"/>
      <point x="131.7" y="603.6"/>
      <point x="291.5" y="954.6"/>
      <point x="565.1" y="954.6" type="curve" smooth="yes" name="n38"/>
      <point x="673.5" y="954.6"/>
      <point x="777.9" y="905.8"/>
      <point x="837.5" y="765" type="curve"/>
    </contour>
  </outline>
  <guideline angle="82.9991" x="492" y="0"/>
</glyph>
<glyph name="hcircumflex" format="2">
  <advance width="1016.6"/>
  <unicode hex="0125"/>
  <guideline x="507.2" y="0.0" angle="82.9991"/>
  <anchor x="293.6" y="1498.9" name="Top"/>
  <anchor x="293.6" y="1498.9" name="top"/>
  <anchor x="437.2" y="-70.0" name="bottom"/>
  <anchor x="540.6" y="702.8" name="Slash"/>
  <outline>
    <contour>
      <point x="63.2" y="1539.4" type="line"/>
      <point x="103.6" y="1539.4" type="line" smooth="yes"/>
      <point x="111.4" y="1539.4"/>
      <point x="121.6" y="1542.0"/>
      <point x="128.8" y="1548.4" type="curve"/>
      <point x="315.6" y="1696.8" type="line"/>
      <point x="329.4" y="1708.2"/>
      <point x="336.6" y="1719.2"/>
      <point x="337.2" y="1733.0" type="curve"/>
      <point x="302.6" y="1733.0" type="line"/>
    </contour>
    <contour>
      <point x="347.0" y="1733.0" type="line"/>
      <point x="312.4" y="1733.0" type="line"/>
      <point x="310.0" y="1719.2"/>
      <point x="313.6" y="1708.4"/>
      <point x="326.4" y="1696.8" type="curve" smooth="yes"/>
      <point x="476.0" y="1548.4" type="line"/>
      <point x="481.4" y="1542.2"/>
      <point x="491.4" y="1539.4"/>
      <point x="497.2" y="1539.4" type="curve" smooth="yes"/>
      <point x="537.8" y="1539.4" type="line"/>
    </contour>
    <component base="h"/>
  </outline>
</glyph>
<glyph name="Hbar" format="2">
  <advance width="1412.3"/>
  <unicode hex="0126"/>
  <guideline x="715.9" y="0.0" angle="82.9991"/>
  <anchor x="831.1" y="1498.9" name="Top"/>
  <anchor x="831.1" y="1498.9" name="top"/>
  <anchor x="640.8" y="-70.0" name="bottom"/>
  <anchor x="27.3" y="1120.0" name="onRight"/>
  <outline>
    <contour>
      <point x="117.8" y="1041.2" type="line"/>
      <point x="1431.2" y="1041.2" type="line"/>
      <point x="1435.2" y="1076.6" type="line"/>
      <point x="121.8" y="1076.6" type="line"/>
    </contour>
    <component base="H" xOffset="16.4"/>
  </outline>
</glyph>
<glyph name="hbar" format="2">
  <advance width="1017"/>
  <unicode hex="0127"/>
  <anchor x="291.9" y="1498.9" name="Top"/>
  <anchor x="437.2" y="-70" name="bottom"/>
  <anchor x="291.9" y="1498.9" name="top"/>
  <outline>
    <contour>
      <point x="61" y="1165" type="line" name="n00"/>
      <point x="499.8" y="1165" type="line" smooth="yes"/>
      <point x="516" y="1165"/>
      <point x="524.8" y="1171.6"/>
      <point x="527.4" y="1183.8" type="curve"/>
      <point x="530.8" y="1202.2" type="line"/>
      <point x="65.4" y="1202.2" type="line" name="n06"/>
    </contour>
    <contour>
      <point x="144" y="0" type="line" name="n07"/>
      <point x="318.8" y="1446" type="line" name="n08"/>
      <point x="268" y="1446" type="line"/>
      <point x="93.2" y="0" type="line"/>
    </contour>
    <contour>
      <point x="789.6" y="0" type="line"/>
      <point x="863.6" y="627.2" type="line"/>
      <point x="812.8" y="627.2" type="line"/>
      <point x="738.8" y="0" type="line"/>
    </contour>
    <contour>
      <point x="863.6" y="627.2" type="line"/>
      <point x="892" y="861.4"/>
      <point x="827.8" y="996.2"/>
      <point x="655.6" y="996.2" type="curve" smooth="yes" name="n18"/>
      <point x="473.2" y="996.2"/>
      <point x="282.4" y="818.8"/>
      <point x="179.4" y="538.2" type="curve"/>
      <point x="193.4" y="501.8" type="line"/>
      <point x="301.2" y="777.2"/>
      <point x="479.2" y="952.8"/>
      <point x="641.8" y="952.8" type="curve" smooth="yes" name="n25"/>
      <point x="788.4" y="952.8"/>
      <point x="837.6" y="834.2"/>
      <point x="812.8" y="627.2" type="curve"/>
    </contour>
  </outline>
  <guideline angle="82.9991" x="502" y="0"/>
</glyph>
<glyph name="idotless" format="2">
  <advance width="403.7"/>
  <unicode hex="0131"/>
  <guideline x="218.7" y="0.0" angle="82.9991"/>
  <anchor x="265.0" y="1120.0" name="top"/>
  <anchor x="125.0" y="-70.0" name="bottom"/>
  <outline>
    <contour>
      <point x="224.4" y="986.0" type="line"/>
      <point x="104.0" y="0.0" type="line"/>
      <point x="154.4" y="0.0" type="line"/>
      <point x="274.8" y="986.0" type="line"/>
    </contour>
  </outline>
</glyph>
<glyph name="kgreenlandic" format="2">
  <advance width="850"/>
  <unicode hex="0138"/>
  <anchor x="388.9" y="-70" name="bottom"/>
  <anchor x="502.1" y="1120" name="top"/>
  <outline>
    <contour>
      <point x="213.9" y="986" type="line" name="n00"/>
      <point x="91.3" y="0" type="line" name="n01"/>
      <point x="141.7" y="0" type="line"/>
      <point x="264.3" y="986" type="line"/>
    </contour>
    <contour>
      <point x="189.5" y="548.8" type="line"/>
      <point x="190.9" y="511.8" type="line"/>
      <point x="240.5" y="511.8" type="line" smooth="yes"/>
      <point x="276.7" y="511.8"/>
      <point x="290.5" y="505.8"/>
      <point x="308.1" y="482.6" type="curve" smooth="yes"/>
      <point x="675.5" y="16.2" type="line" smooth="yes"/>
      <point x="685.9" y="3.2"/>
      <point x="694.3" y="0"/>
      <point x="707.7" y="0" type="curve" smooth="yes"/>
      <point x="748.9" y="0" type="line"/>
      <point x="353.7" y="503.2" type="line"/>
      <point x="337.3" y="526.4"/>
      <point x="318.3" y="544.4"/>
      <point x="272.5" y="544.4" type="curve"/>
      <point x="267.9" y="526" type="line"/>
      <point x="304.1" y="526"/>
      <point x="323.5" y="535.8"/>
      <point x="348.1" y="558.8" type="curve"/>
      <point x="835.5" y="986" type="line"/>
      <point x="793.5" y="986" type="line" smooth="yes"/>
      <point x="774.7" y="986"/>
      <point x="762.9" y="978.8"/>
      <point x="751.3" y="966.4" type="curve"/>
      <point x="299.7" y="568.8" type="line"/>
      <point x="277.7" y="548"/>
      <point x="261.5" y="548.8"/>
      <point x="249.1" y="548.8" type="curve" smooth="yes"/>
    </contour>
  </outline>
  <guideline angle="82.9991" x="413" y="0"/>
</glyph>
<glyph name="Lcaron" format="2">
  <advance width="924.2"/>
  <unicode hex="013D"/>
  <guideline x="469.0" y="0.0" angle="82.9991"/>
  <anchor x="349.1" y="1498.9" name="Top"/>
  <anchor x="349.1" y="1498.9" name="top"/>
  <anchor x="455.3" y="-70.0" name="bottom"/>
  <anchor x="251.1" y="702.8" name="Bar"/>
  <outline>
    <contour>
      <point x="640.6" y="1447.8" type="line"/>
      <point x="559.8" y="1159.6" type="line"/>
      <point x="575.8" y="1159.6" type="line" smooth="yes"/>
      <point x="589.8" y="1159.6"/>
      <point x="594.8" y="1165.6"/>
      <point x="601.0" y="1177.4" type="curve"/>
      <point x="662.6" y="1342.4"/>
      <point x="684.8" y="1402.4"/>
      <point x="684.8" y="1430.0" type="curve" smooth="yes"/>
      <point x="684.8" y="1442.2"/>
      <point x="680.6" y="1447.8"/>
      <point x="669.8" y="1447.8" type="curve" smooth="yes"/>
    </contour>
    <component base="L"/>
  </outline>
</glyph>
<glyph name="Lslash" format="2">
  <advance width="945.5"/>
  <unicode hex="0141"/>
  <guideline x="486.2" y="0.0" angle="82.9991"/>
  <anchor x="370.4" y="1498.9" name="Top"/>
  <anchor x="370.4" y="1498.9" name="top"/>
  <anchor x="476.6" y="-70.0" name="bottom"/>
  <anchor x="272.4" y="702.8" name="Bar"/>
  <outline>
    <contour>
      <point x="35.7" y="501.0" type="line"/>
      <point x="265.1" y="622.4" type="line"/>
      <point x="269.3" y="620.8" type="line"/>
      <point x="700.3" y="854.4" type="line"/>
      <point x="713.5" y="860.8"/>
      <point x="715.1" y="868.4"/>
      <point x="717.3" y="878.6" type="curve"/>
      <point x="720.1" y="906.4" type="line"/>
      <point x="276.1" y="668.0" type="line"/>
      <point x="272.3" y="669.8" type="line"/>
      <point x="56.9" y="554.6" type="line"/>
      <point x="45.5" y="548.2"/>
      <point x="40.5" y="542.6"/>
      <point x="40.3" y="531.0" type="curve"/>
    </contour>
    <component base="L" xOffset="21.3"/>
  </outline>
</glyph>
<glyph name="lslash" format="2">
  <advance width="518.4"/>
  <unicode hex="0142"/>
  <guideline x="270.8" y="0.0" angle="82.9991"/>
  <anchor x="380.7" y="1498.9" name="Top"/>
  <anchor x="380.7" y="1498.9" name="top"/>
  <anchor x="191.0" y="-70.0" name="bottom"/>
  <anchor x="227.6" y="40.2" name="hook"/>
  <anchor x="286.4" y="705.6" name="bar"/>
  <outline>
    <contour>
      <point x="61.4" y="680.6" type="line"/>
      <point x="289.6" y="789.6" type="line"/>
      <point x="294.0" y="787.8" type="line"/>
      <point x="507.2" y="890.4" type="line" smooth="yes"/>
      <point x="520.6" y="896.8"/>
      <point x="522.0" y="904.4"/>
      <point x="522.0" y="914.8" type="curve" smooth="yes"/>
      <point x="522.0" y="938.4" type="line"/>
      <point x="294.0" y="831.2" type="line"/>
      <point x="289.8" y="833.0" type="line"/>
      <point x="75.8" y="728.4" type="line"/>
      <point x="64.4" y="722.0"/>
      <point x="61.4" y="716.4"/>
      <point x="61.4" y="704.8" type="curve" smooth="yes"/>
    </contour>
    <component base="l" xOffset="69.5"/>
  </outline>
</glyph>
<glyph name="Eng" format="2">
  <advance width="1395"/>
  <unicode hex="014A"/>
  <anchor x="815" y="1497.1" name="Top"/>
  <anchor x="577.5" y="-421" name="bottom"/>
  <anchor x="815" y="1497.1" name="top"/>
  <outline>
    <contour>
      <point x="1092.2" y="66.1" type="line"/>
      <point x="356" y="1393.4" type="line" smooth="yes"/>
      <point x="350.4" y="1403.3"/>
      <point x="345.1" y="1405.9" name="n03"/>
      <point x="334.1" y="1405.9" type="curve" smooth="yes"/>
      <point x="309.8" y="1405.9" type="line"/>
      <point x="137.1" y="0" type="line" name="n06"/>
      <point x="183.8" y="0" type="line"/>
      <point x="341.8" y="1282" type="line" smooth="yes"/>
      <point x="344.7" y="1305.3"/>
      <point x="345.3" y="1334.3"/>
      <point x="344.3" y="1357.6" type="curve"/>
      <point x="332.3" y="1339.8" type="line"/>
      <point x="1068.2" y="11.9" type="line"/>
      <point x="1073.6" y="4.2"/>
      <point x="1078.3" y="0"/>
      <point x="1087.8" y="0" type="curve"/>
      <point x="1112.2" y="8.4" type="line"/>
      <point x="1283.8" y="1405.9" type="line"/>
      <point x="1237.1" y="1405.9" type="line"/>
      <point x="1080.1" y="126.7" type="line" smooth="yes"/>
      <point x="1077.1" y="104.2"/>
      <point x="1076.7" y="76"/>
      <point x="1077.6" y="53.6" type="curve"/>
    </contour>
    <contour>
      <point x="1120" y="68.6" type="line"/>
      <point x="1072.2" y="68.6" type="line"/>
      <point x="1056.6" y="-59.9" type="line" smooth="yes"/>
      <point x="1035.4" y="-232.3"/>
      <point x="954.6" y="-319.4"/>
      <point x="831.5" y="-319.4" type="curve" smooth="yes"/>
      <point x="773.4" y="-319.4"/>
      <point x="740.9" y="-299.5"/>
      <point x="730.6" y="-299.5" type="curve" smooth="yes" name="n32"/>
      <point x="726" y="-299.5"/>
      <point x="719" y="-300.6"/>
      <point x="714.5" y="-312.4" type="curve" smooth="yes"/>
      <point x="706.9" y="-331.9" type="line"/>
      <point x="747.4" y="-350.2"/>
      <point x="784.7" y="-359.6"/>
      <point x="830.7" y="-359.6" type="curve" smooth="yes" name="n39"/>
      <point x="987.8" y="-359.6"/>
      <point x="1081.1" y="-248"/>
      <point x="1103.8" y="-56.4" type="curve"/>
    </contour>
  </outline>
  <guideline angle="82.9991" x="665" y="0"/>
</glyph>
<glyph name="eng" format="2">
  <advance width="1018.5"/>
  <unicode hex="014B"/>
  <guideline x="508.1" y="0.0" angle="82.9991"/>
  <anchor x="565.3" y="1120.0" name="top"/>
  <anchor x="395.3" y="-421.0" name="bottom"/>
  <outline>
    <contour>
      <point x="742.0" y="10.600000000000001" type="line"/>
      <point x="732.1" y="-74.4" type="line" smooth="yes"/>
      <point x="711.9" y="-246.8"/>
      <point x="628.4" y="-333.0"/>
      <point x="506.5" y="-333.0" type="curve" smooth="yes"/>
      <point x="447.4" y="-333.0"/>
      <point x="415.0" y="-313.8"/>
      <point x="405.6" y="-313.8" type="curve" smooth="yes"/>
      <point x="397.7" y="-313.8"/>
      <point x="392.2" y="-315.7"/>
      <point x="388.7" y="-327.6" type="curve"/>
      <point x="383.4" y="-348.8" type="line"/>
      <point x="423.8" y="-365.7"/>
      <point x="460.0" y="-374.1"/>
      <point x="505.1" y="-374.1" type="curve" smooth="yes"/>
      <point x="663.6" y="-374.1"/>
      <point x="759.6" y="-262.9"/>
      <point x="783.4" y="-70.8" type="curve" smooth="yes"/>
      <point x="793.3" y="13.8" type="line"/>
    </contour>
    <contour>
      <point x="144.1" y="0.0" type="line"/>
      <point x="213.7" y="591.4" type="line"/>
      <point x="212.9" y="596.8" type="line"/>
      <point x="252.5" y="967.0" type="line"/>
      <point x="253.4" y="979.4"/>
      <point x="246.9" y="989.6"/>
      <point x="231.5" y="989.6" type="curve" smooth="yes"/>
      <point x="211.9" y="989.6" type="line"/>
      <point x="93.3" y="0.0" type="line"/>
    </contour>
    <contour>
      <point x="793.3" y="13.8" type="line"/>
      <point x="865.9" y="631.2" type="line"/>
      <point x="815.1" y="631.2" type="line"/>
      <point x="742.0" y="10.600000000000001" type="line"/>
    </contour>
    <contour>
      <point x="865.9" y="631.2" type="line"/>
      <point x="894.3" y="865.4"/>
      <point x="828.3" y="1000.2"/>
      <point x="658.1" y="1000.2" type="curve" smooth="yes"/>
      <point x="475.5" y="1000.2"/>
      <point x="284.9" y="822.8"/>
      <point x="181.9" y="542.2" type="curve"/>
      <point x="195.7" y="505.8" type="line"/>
      <point x="301.7" y="781.2"/>
      <point x="479.7" y="956.6"/>
      <point x="644.3" y="956.6" type="curve" smooth="yes"/>
      <point x="790.7" y="956.6"/>
      <point x="839.9" y="838.2"/>
      <point x="815.1" y="631.2" type="curve"/>
    </contour>
  </outline>
</glyph>
<glyph name="OE" format="2">
  <advance width="2046"/>
  <unicode hex="0152"/>
  <anchor x="1141.2" y="1498.9" name="Top"/>
  <anchor x="1056.4" y="-70" name="bottom"/>
  <anchor x="1141.2" y="1498.9" name="top"/>
  <outline>
    <contour>
      <point x="1241.6" y="828.6" type="curve" smooth="yes"/>
      <point x="1241.6" y="1184.8"/>
      <point x="1066.6" y="1422" name="n02"/>
      <point x="773.6" y="1422" type="curve" smooth="yes"/>
      <point x="413" y="1422"/>
      <point x="131.8" y="1089.4"/>
      <point x="131.8" y="581" type="curve" smooth="yes"/>
      <point x="131.8" y="221"/>
      <point x="312.6" y="-12.4" name="n08"/>
      <point x="598.8" y="-12.4" type="curve" smooth="yes"/>
      <point x="973.4" y="-12.4"/>
      <point x="1241.6" y="316.6"/>
    </contour>
    <contour>
      <point x="1337.2" y="1406" type="line"/>
      <point x="1286.8" y="1406" type="line" name="n13"/>
      <point x="1114" y="0" type="line" name="n14"/>
      <point x="1164.6" y="0" type="line"/>
    </contour>
    <contour>
      <point x="1238.6" y="735.6" type="line" name="n16"/>
      <point x="1233.8" y="690.6" type="line" name="n17"/>
      <point x="1841.4" y="690.6" type="line"/>
      <point x="1846.2" y="735.6" type="line"/>
    </contour>
    <contour>
      <point x="1321.6" y="1406" type="line"/>
      <point x="1314.8" y="1360" type="line"/>
      <point x="2036.2" y="1360" type="line"/>
      <point x="2041.2" y="1406" type="line"/>
    </contour>
    <contour>
      <point x="1154" y="46" type="line"/>
      <point x="1148.8" y="0" type="line"/>
      <point x="1868.4" y="0" type="line"/>
      <point x="1875.2" y="46" type="line"/>
    </contour>
    <contour>
      <point x="1199" y="824" type="curve" smooth="yes"/>
      <point x="1199" y="334.8"/>
      <point x="946.4" y="31.8"/>
      <point x="610.6" y="31.8" type="curve" smooth="yes" name="n31"/>
      <point x="352.8" y="31.8"/>
      <point x="186.8" y="244"/>
      <point x="186.8" y="583.6" type="curve" smooth="yes"/>
      <point x="186.8" y="1071"/>
      <point x="444.8" y="1377.8"/>
      <point x="775.6" y="1377.8" type="curve" smooth="yes" name="n37"/>
      <point x="1036.6" y="1377.8"/>
      <point x="1199" y="1161.8"/>
    </contour>
  </outline>
  <guideline angle="82.9991" x="1040" y="0"/>
</glyph>
<glyph name="oe" format="2">
  <advance width="1617.1"/>
  <unicode hex="0153"/>
  <guideline x="760.6" y="0.0" angle="82.9991"/>
  <anchor x="905.1" y="1120.0" name="top"/>
  <anchor x="700.8" y="-70.0" name="bottom"/>
  <outline>
    <contour>
      <point x="570.5" y="1002.0" type="curve" smooth="yes"/>
      <point x="294.7" y="1002.0"/>
      <point x="86.4" y="756.2"/>
      <point x="86.4" y="332.0" type="curve" smooth="yes"/>
      <point x="86.4" y="152.9"/>
      <point x="174.9" y="-12.4"/>
      <point x="382.9" y="-12.4" type="curve" smooth="yes"/>
      <point x="660.1" y="-12.4"/>
      <point x="836.2" y="233.4"/>
      <point x="857.8" y="591.8" type="curve" smooth="yes"/>
      <point x="872.4" y="834.8"/>
      <point x="777.3" y="1002.0"/>
    </contour>
    <contour>
      <point x="395.7" y="28.8" type="curve" smooth="yes"/>
      <point x="207.9" y="28.8"/>
      <point x="138.2" y="180.6"/>
      <point x="138.2" y="335.5" type="curve" smooth="yes"/>
      <point x="138.2" y="718.7"/>
      <point x="307.3" y="960.8"/>
      <point x="564.1" y="960.8" type="curve" smooth="yes"/>
      <point x="749.9" y="960.8"/>
      <point x="830.3" y="807.2"/>
      <point x="817.5" y="590.0" type="curve" smooth="yes"/>
      <point x="797.8" y="263.8"/>
      <point x="650.7" y="28.8"/>
    </contour>
    <contour>
      <point x="1252.9" y="1002.0" type="curve" smooth="yes"/>
      <point x="987.1" y="1002.0"/>
      <point x="808.3" y="756.4"/>
      <point x="808.3" y="405.6" type="curve" smooth="yes"/>
      <point x="808.3" y="145.4"/>
      <point x="922.5" y="-12.4"/>
      <point x="1116.1" y="-12.4" type="curve" smooth="yes"/>
      <point x="1261.9" y="-12.4"/>
      <point x="1374.4" y="48.0"/>
      <point x="1497.9" y="183.0" type="curve"/>
      <point x="1488.1" y="194.6" type="line" smooth="yes"/>
      <point x="1483.1" y="199.8"/>
      <point x="1479.3" y="201.0"/>
      <point x="1473.7" y="201.0" type="curve" smooth="yes"/>
      <point x="1438.4" y="201.0"/>
      <point x="1345.7" y="29.8"/>
      <point x="1124.1" y="29.8" type="curve" smooth="yes"/>
      <point x="954.1" y="29.8"/>
      <point x="848.5" y="169.8"/>
      <point x="848.5" y="411.6" type="curve" smooth="yes"/>
      <point x="848.5" y="740.5"/>
      <point x="1011.5" y="962.4"/>
      <point x="1246.2" y="962.4" type="curve" smooth="yes"/>
      <point x="1395.6" y="962.4"/>
      <point x="1460.2" y="884.3"/>
      <point x="1460.2" y="797.6" type="curve" smooth="yes"/>
      <point x="1460.2" y="681.7"/>
      <point x="1357.2" y="567.4"/>
      <point x="842.6" y="512.1" type="curve"/>
      <point x="835.4" y="475.1" type="line"/>
      <point x="1384.2" y="532.6"/>
      <point x="1502.4" y="656.1"/>
      <point x="1502.4" y="798.8" type="curve" smooth="yes"/>
      <point x="1502.4" y="918.7"/>
      <point x="1411.3" y="1002.0"/>
    </contour>
  </outline>
</glyph>
<glyph name="Tbar" format="2">
  <advance width="1097"/>
  <unicode hex="0166"/>
  <anchor x="562.1" y="702.8" name="Slash"/>
  <anchor x="657.3" y="1498.9" name="Top"/>
  <anchor x="465.9" y="-70" name="bottom"/>
  <anchor x="657.3" y="1498.9" name="top"/>
  <outline>
    <component base="T" xOffset="22.8"/>
    <contour>
      <point x="221.9" y="812" type="line" name="n00"/>
      <point x="922.9" y="812" type="line"/>
      <point x="926.9" y="848.6" type="line"/>
      <point x="225.9" y="848.6" type="line" name="n03"/>
    </contour>
  </outline>
  <guideline angle="82.9991" x="534" y="0"/>
</glyph>
<glyph name="tbar" format="2">
  <advance width="680.7"/>
  <unicode hex="0167"/>
  <guideline x="321.8" y="0.0" angle="82.9991"/>
  <anchor x="355.8" y="1401.0" name="top"/>
  <anchor x="314.1" y="-70.0" name="bottom"/>
  <anchor x="347.3" y="702.8" name="Slash"/>
  <anchor x="232.5" y="526.1" name="bar"/>
  <outline>
    <contour>
      <point x="57.6" y="669.0" type="line"/>
      <point x="55.4" y="656.0"/>
      <point x="63.4" y="651.6"/>
      <point x="75.4" y="651.6" type="curve" smooth="yes"/>
      <point x="554.8" y="651.6" type="line"/>
      <point x="560.8" y="688.8" type="line"/>
      <point x="61.0" y="688.8" type="line"/>
    </contour>
    <component base="t" xOffset="11.4"/>
  </outline>
</glyph>
<glyph name="longs" format="2">
  <advance width="466.7"/>
  <unicode hex="017F"/>
  <guideline x="230.0" y="0.0" angle="82.9991"/>
  <anchor x="482.6" y="1498.9" name="Top"/>
  <anchor x="482.6" y="1498.9" name="top"/>
  <anchor x="118.8" y="-421.0" name="bottom"/>
  <outline>
    <contour>
      <point x="325.6" y="1087.6" type="line" smooth="yes"/>
      <point x="352.4" y="1301.0"/>
      <point x="454.2" y="1381.4"/>
      <point x="577.6" y="1381.4" type="curve" smooth="yes"/>
      <point x="638.2" y="1381.4"/>
      <point x="668.8" y="1357.0"/>
      <point x="674.8" y="1376.6" type="curve"/>
      <point x="679.4" y="1399.4" type="line"/>
      <point x="653.6" y="1413.2"/>
      <point x="614.0" y="1421.2"/>
      <point x="576.8" y="1421.2" type="curve" smooth="yes"/>
      <point x="422.8" y="1421.2"/>
      <point x="302.0" y="1314.0"/>
      <point x="273.8" y="1088.6" type="curve" smooth="yes"/>
      <point x="110.0" y="-251.4" type="line"/>
      <point x="126.2" y="-251.4" type="line" smooth="yes"/>
      <point x="138.8" y="-251.4"/>
      <point x="148.6" y="-244.8"/>
      <point x="153.0" y="-227.8" type="curve"/>
      <point x="192.6" y="14.2" type="line"/>
    </contour>
    <contour>
      <point x="290.8" y="908.4" type="line"/>
      <point x="295.4" y="947.8" type="line"/>
      <point x="95.8" y="947.8" type="line"/>
      <point x="94.4" y="928.2" type="line"/>
      <point x="92.0" y="920.2"/>
      <point x="98.4" y="914.6"/>
      <point x="110.0" y="913.6" type="curve"/>
      <point x="261.2" y="907.4" type="line"/>
      <point x="276.0" y="908.4" type="line"/>
    </contour>
  </outline>
</glyph>
